<?xml version="1.0" encoding="UTF-8" standalone="yes"?>
<!DOCTYPE svg PUBLIC "-//W3C//DTD SVG 1.0//EN" "http://www.w3.org/TR/2001/REC-SVG-20010904/DTD/svg10.dtd">
<svg height="300" onload="if(self.makeDraggable){makeDraggable(evt)}" width="900" xmlns="http://www.w3.org/2000/svg" xmlns:svg="http://www.w3.org/2000/svg" xmlns:xlink="http://www.w3.org/1999/xlink">
	<g id="gridlines_y">
		<line fill="none" id="profile:gridline_y_0" stroke="#cccccc" stroke-width="1" x1="80" x2="880" y1="220" y2="220" />
		<text fill="#000000" font-family="Verdana" font-size="12" id="profile:gridline_y_0_label" text-anchor="end" x="77.6" y="225">300 m</text>
		<line fill="none" id="profile:gridline_y_1" stroke="#cccccc" stroke-width="1" x1="80" x2="880" y1="186" y2="186" />
		<text fill="#000000" font-family="Verdana" font-size="12" id="profile:gridline_y_1_label" text-anchor="end" x="77.6" y="191">400 m</text>
		<line fill="none" id="profile:gridline_y_2" stroke="#cccccc" stroke-width="1" x1="80" x2="880" y1="153" y2="153" />
		<text fill="#000000" font-family="Verdana" font-size="12" id="profile:gridline_y_2_label" text-anchor="end" x="77.6" y="158">500 m</text>
		<line fill="none" id="profile:gridline_y_3" stroke="#cccccc" stroke-width="1" x1="80" x2="880" y1="120" y2="120" />
		<text fill="#000000" font-family="Verdana" font-size="12" id="profile:gridline_y_3_label" text-anchor="end" x="77.6" y="125">600 m</text>
		<line fill="none" id="profile:gridline_y_4" stroke="#cccccc" stroke-width="1" x1="80" x2="880" y1="86" y2="86" />
		<text fill="#000000" font-family="Verdana" font-size="12" id="profile:gridline_y_4_label" text-anchor="end" x="77.6" y="91">700 m</text>
		<line fill="none" id="profile:gridline_y_5" stroke="#cccccc" stroke-width="1" x1="80" x2="880" y1="53" y2="53" />
		<text fill="#000000" font-family="Verdana" font-size="12" id="profile:gridline_y_5_label" text-anchor="end" x="77.6" y="58">800 m</text>
		<line fill="none" id="profile:gridline_y_6" stroke="#cccccc" stroke-width="1" x1="80" x2="880" y1="20" y2="20" />
		<text fill="#000000" font-family="Verdana" font-size="12" id="profile:gridline_y_6_label" text-anchor="end" x="77.6" y="25">900 m</text>
	</g>
	<g id="gridlines_x">
		<line fill="none" id="profile:gridline_x_0_label" stroke="#cccccc" stroke-width="1" x1="80.5" x2="80.5" y1="20" y2="220" />
		<text fill="#000000" font-family="Verdana" font-size="12" id="x label 0" text-anchor="end" transform="rotate(-90,86.5,224)" x="86.5" y="224">0 km</text>
		<line fill="none" id="profile:gridline_x_1_label" stroke="#cccccc" stroke-width="1" x1="246.12499985006" x2="246.12499985006" y1="20" y2="220" />
		<text fill="#000000" font-family="Verdana" font-size="12" id="x label 1" text-anchor="end" transform="rotate(-90,252.12499985006,224)" x="252.12499985006" y="224">10 km</text>
		<line fill="none" id="profile:gridline_x_2_label" stroke="#cccccc" stroke-width="1" x1="411.749999700121" x2="411.749999700121" y1="20" y2="220" />
		<text fill="#000000" font-family="Verdana" font-size="12" id="x label 2" text-anchor="end" transform="rotate(-90,417.749999700121,224)" x="417.749999700121" y="224">20 km</text>
		<line fill="none" id="profile:gridline_x_3_label" stroke="#cccccc" stroke-width="1" x1="577.374999550181" x2="577.374999550181" y1="20" y2="220" />
		<text fill="#000000" font-family="Verdana" font-size="12" id="x label 3" text-anchor="end" transform="rotate(-90,583.374999550181,224)" x="583.374999550181" y="224">30 km</text>
		<line fill="none" id="profile:gridline_x_4_label" stroke="#cccccc" stroke-width="1" x1="742.999999400241" x2="742.999999400241" y1="20" y2="220" />
		<text fill="#000000" font-family="Verdana" font-size="12" id="x label 4" text-anchor="end" transform="rotate(-90,748.999999400241,224)" x="748.999999400241" y="224">40 km</text>
		<line fill="none" id="profile:gridline_x_5_label" stroke="#cccccc" stroke-width="1" x1="880.5" x2="880.5" y1="20" y2="220" />
		<text class="draggable" fill="#000000" font-family="Verdana" font-size="12" id="x label 5" text-anchor="end" transform="rotate(-90,886.5,224)" x="886.5" y="224">48.3 km</text>
	</g>
	<g clip-path="url(#profile:drawing_boundary)" id="profile:track_area">
		<g id="trk1:Teil1" opacity="1">
			<polyline fill="none" id="trk1:p3715" points="80,170.093 81.031,170 81.368,170 82.156,170.089 82.612,170.013 82.741,170.031 82.873,170.022 83.254,170.013 83.643,170.304 83.915,170.284 84.124,170.328 84.217,170.554 84.344,170.854 84.406,170.936 84.527,171.266 84.679,171.712 84.942,171.996 85.112,172.14 85.225,172.236 85.411,171.601 85.544,171.216 85.699,171.163 85.902,171.396 86.18,171.388 86.343,171.241 86.436,170.894 86.536,170.866 86.686,170.824 87.003,170.814 87.329,170.861 87.471,170.835 87.589,170.774 87.651,170.732 87.704,170.704 87.757,170.675 87.906,170.616 88.22,170.604 88.396,170.664 88.6,170.667 88.751,170.667 88.881,170.667 89.023,170.697 89.142,170.74 89.231,170.778 89.326,170.808 89.46,170.856 89.72,170.93 90.123,170.964 91.199,171 91.737,171 91.851,171.017 91.999,171.053 92.155,171.151 92.629,171.591 92.918,171.727 93.044,171.831 93.147,171.934 93.178,171.969 93.231,172.029 93.336,172.08 93.543,172.188 93.655,172.248 93.915,172.285 93.982,172.249 94.004,172.237 94.029,172.213 94.06,172.189 94.383,171.969 94.661,171.942 94.764,171.983 94.848,172 94.962,172 95.262,172.072 95.369,172.132 95.441,172.186 95.518,172.205 95.92,172.229 96.045,172.229 96.183,172.234 96.878,172.08 96.932,172.14 96.985,172.2 97.13,172.5 97.244,172.68 97.275,172.74 97.493,172.744 97.952,172.494 97.984,172.517 98.067,172.551 98.169,172.58 98.21,172.616 98.26,172.604 98.298,172.596 98.351,172.623 98.486,172.731 98.548,172.776 99.098,172.839 99.751,173.317 99.948,173.272 100.145,173.251 100.479,173.337 100.586,173.372 100.781,173.355 101.135,173.312 101.26,173.312 101.374,173.311 101.511,173.312 102.039,173.17 102.144,173.186 103.519,173.376 104.143,173.493 106.244,172.909 106.468,172.756 106.573,172.64 106.79,172.29 107.153,171.98 107.205,171.867 107.266,171.657 107.288,171.581 107.325,171.463 107.343,171.404 107.38,171.287 107.398,171.228 108.475,171.461 108.698,171.333 108.751,171.333 108.808,171.333 108.846,171.333 108.903,171.333 108.94,171.333 109.015,171.333 109.141,171.281 109.317,171.285 109.392,171.285 109.95,172.081 110.275,172.349 110.363,172.376 110.388,172.384 110.438,172.399 110.475,172.411 110.517,172.413 110.556,172.396 111.029,171.67 111.304,171.051 111.376,170.956 111.43,170.872 111.519,170.716 111.664,170.428 111.96,169.935 112.044,169.926 112.158,169.832 112.283,169.659 112.37,169.538 112.435,169.311 112.497,169.103 112.57,168.93 112.637,168.619 112.719,168.59 112.808,168.558 113.068,168.232 113.333,168.33 113.542,168.665 113.637,168.778 113.843,169.083 114.064,169.294 114.153,169.292 114.308,169.152 114.373,169.054 114.385,169.03 114.623,168.62 114.798,168.453 115.274,167.686 115.438,167.526 115.613,167.341 115.703,167.447 115.768,167.521 116.04,167.427 116.145,167.673 116.25,167.96 116.317,168.082 116.377,168.23 116.438,168.404 116.611,168.725 116.823,168.996 117.087,169.538 117.148,169.625 117.222,169.774 117.297,169.892 117.433,170.057 117.755,170.535 117.952,170.731 118.203,170.875 118.4,171.092 118.484,171.232 118.632,171.48 118.856,171.76 119.313,172.288 119.367,172.384 119.598,172.673 119.909,172.808 120.088,172.932 120.207,172.983 120.334,173 121.052,173 121.091,173 121.168,173 121.243,173 121.335,173 121.46,173 121.544,173 121.588,173 121.766,173.179 122.026,173.371 122.308,173.382 122.634,173.618 122.968,173.667 123.206,173.667 123.25,173.667 123.408,173.667 123.535,173.667 123.649,173.667 123.829,173.667 124.077,173.561 124.16,173.5 124.389,173.339 124.67,173.237 125.056,173.017 125.211,172.995 125.378,172.942 126.845,172.782 127.074,172.658 127.179,172.651 127.303,172.666 127.482,172.76 127.624,172.808 127.778,172.856 128.511,172.833 131.785,172.723 132.595,172.721 132.858,172.961 133.047,173.165 133.272,173.197 133.435,173.173 133.561,173.149 133.826,173.101 134.017,173.053 134.106,173.149 134.159,173.197 134.181,173.221 134.212,173.244 134.243,173.266 134.71,173.307 134.814,173.278 134.948,173.268 134.979,173.271 135.01,173.276 135.041,173.283 135.054,173.281 135.076,173.292 135.128,173.316 135.203,173.347 135.234,173.354 135.278,173.365 135.309,173.368 135.354,173.374 135.398,173.376 135.421,173.376 135.459,173.379 135.491,173.37 135.53,173.369 135.568,173.366 135.607,173.361 135.644,173.364 135.681,173.367 135.755,173.373 135.81,173.369 136.161,173.347 136.53,173.333 136.789,173.332 137.029,173.239 137.086,173.211 137.339,173.219 137.953,173.079 138.469,173.097 138.534,173.057 138.659,173 138.772,173 138.861,173 138.923,173 139.007,173 139.1,173.003 139.524,173.255 139.928,173.336 140.321,173.531 140.725,173.663 141.151,173.667 141.358,173.667 141.537,173.667 141.609,173.667 141.671,173.667 141.764,173.667 141.869,173.705 141.932,173.736 141.985,173.749 142.068,173.773 142.141,173.797 142.213,173.821 142.279,173.833 142.362,173.87 142.719,174.008 143.038,174.275 143.49,174 144.647,174.112 145.016,174.185 145.551,174.019 146.537,174.288 147.243,174.333 148.492,174.333 148.67,174.333 149.163,174.312 149.615,174.285 149.9,174.177 149.972,174.195 150.037,174.207 150.121,174.231 150.224,174.267 150.317,174.303 150.473,174.344 150.525,174.359 150.587,174.381 150.692,174.438 151.832,174.213 152.147,174.141 152.552,174.056 152.659,174 152.815,173.947 153.046,173.596 153.195,173.52 153.343,173.477 153.374,173.456 153.405,173.439 153.427,173.412 153.439,173.426 153.458,173.388 153.476,173.35 153.489,173.335 153.507,173.296 153.526,173.257 153.538,173.24 153.551,173.224 153.582,173.149 153.644,173.062 153.669,173.027 153.795,172.796 153.958,172.532 153.989,172.424 154.084,172.137 154.167,171.815 154.339,172.068 154.895,173.079 155,173.139 155.611,173.122 155.648,173.091 155.661,173.084 155.679,173.068 155.71,173.037 155.755,172.987 155.786,172.951 156.029,172.77 156.242,173.015 156.337,173.195 156.443,173.387 156.496,173.519 156.521,173.543 156.539,173.591 156.561,173.651 156.58,173.699 156.619,173.783 156.641,173.819 156.653,173.807 156.676,173.843 156.928,173.699 156.928,173.699 157.112,173.675 157.425,173.891 157.575,174.05 157.817,174.197 157.985,174.318 158.265,174.104 158.417,174.021 158.719,174.052 159.113,174.207 159.563,174.29 159.715,174.231 159.828,174.164 159.98,174.068 160.115,174 160.249,174 160.327,174 160.533,174 160.855,174 160.984,174 161.023,174 161.134,174 161.456,173.955 161.855,173.964 161.969,174.023 162.129,174.154 162.233,174.249 162.389,174.23 162.567,174.157 163.606,174.28 163.747,174.242 164.586,174.333 165.188,174.337 165.328,174.396 165.455,174.513 165.604,174.587 165.753,174.464 166.149,174.292 166.523,174.333 166.813,174.26 166.906,174.263 167.013,174.271 167.149,174.307 167.292,174.331 167.387,174.331 167.464,174.322 167.602,174.301 167.754,174.31 167.979,174.421 168.121,174.387 168.273,174.351 168.35,174.315 168.572,174.613 168.698,174.589 168.736,174.589 169.061,174.524 169.305,174.355 169.802,174.484 171.057,174.553 172.306,174.667 172.562,174.667 172.976,174.932 173.914,174.786 178.792,174.979 179.13,175 180.357,175 180.931,175 181.894,175 183.26,175.171 187.606,175.14 187.865,174.977 187.978,174.924 188.015,174.906 188.163,174.842 188.284,174.832 188.373,174.852 188.47,174.875 188.522,174.885 188.606,174.885 189.351,174.144 189.895,173.508 190.081,173.25 190.229,173.059 190.342,172.916 190.399,172.84 190.512,172.682 190.623,172.452 190.715,172.26 190.837,172.055 191.091,171.635 191.335,171.107 191.447,170.867 191.654,170.5 191.862,170.271 192.259,169.767 192.325,169.681 192.459,169.465 192.593,169.093 192.806,168.652 192.86,168.52 193.043,168.059 193.12,167.904 193.158,167.868 193.23,167.688 193.261,167.604 193.299,167.568 193.551,167.103 193.589,167.031 193.684,166.743 193.81,166.455 193.852,166.359 194.018,166.083 194.271,165.689 194.462,165.315 194.475,165.298 194.676,164.896 194.866,164.572 195.094,164.052 195.271,163.6 195.469,163.323 195.657,163.071 195.834,162.747 196.046,162.561 196.305,162.393 196.6,162.465 196.804,162.597 196.992,162.743 197.322,162.926 197.405,162.957 197.516,163.021 197.676,163.159 197.797,163.286 197.947,163.474 198.162,163.863 198.251,164.055 198.296,164.151 198.497,164.571 198.822,165.196 199.449,166.208 199.628,166.491 199.703,166.609 199.821,166.732 200.025,166.775 200.195,166.736 200.456,166.7 200.732,166.567 200.954,166.303 201.209,166.272 201.446,166.157 201.748,165.716 202.262,165.373 202.559,165.299 202.581,165.325 202.842,165.49 202.915,165.543 202.94,165.576 203.107,165.699 203.21,165.737 203.5,165.888 203.872,166.061 204.193,166.088 204.96,166.333 205.312,166.55 205.498,166.637 205.738,166.619 206.05,166.68 206.228,166.823 206.3,166.895 206.514,167.039 206.774,166.999 206.917,166.939 207.105,166.957 207.155,166.957 207.238,166.849 207.442,166.849 207.554,166.909 207.68,166.953 207.755,166.995 207.809,167.005 207.85,167.01 207.903,167.002 207.956,166.998 208.149,167.048 208.254,167.143 208.562,167.616 209.045,168.575 209.594,169.764 209.698,169.932 209.772,170.028 209.85,170.1 209.928,170.161 209.972,170.183 210.025,170.2 210.714,170.388 211.109,170.475 212.701,170.316 212.827,170.292 213.079,170.42 213.214,170.468 213.679,170.667 214.24,170.957 215.059,171.492 215.514,171.724 216.001,171.836 216.225,171.826 216.492,171.88 216.696,171.857 216.862,171.807 217.014,171.756 217.143,171.726 217.271,171.707 217.897,171.551 218.533,171.303 218.742,171.398 218.831,171.387 218.995,171.35 219.09,171.35 219.244,171.43 219.423,171.501 219.5,171.528 219.59,171.567 219.652,171.585 219.683,171.597 219.714,171.611 219.766,171.634 219.9,171.575 219.957,171.554 220.317,171.591 220.455,171.511 220.544,171.615 220.715,171.667 220.804,171.667 220.953,171.667 221.102,171.667 222.096,171.116 222.17,171.038 222.237,170.958 222.29,170.891 222.636,170.432 222.938,170.074 223.171,169.644 223.504,169.361 223.807,169.16 224.005,168.867 224.141,168.771 224.203,168.723 224.324,168.675 224.453,168.687 224.51,168.699 224.565,168.699 224.679,168.713 224.79,168.708 224.827,168.703 224.865,168.693 224.921,168.687 224.981,168.675 225.081,168.662 225.185,168.615 225.216,168.591 225.239,168.579 225.257,168.579 225.276,168.579 225.982,167.995 226.414,167.42 226.439,167.396 226.504,167.324 226.806,166.988 226.956,167.024 227.009,166.969 227.034,166.942 227.065,166.911 227.102,166.869 227.306,166.662 227.395,166.587 227.806,166.203 228.259,165.995 228.32,165.975 228.387,165.94 228.461,165.885 229.077,165.999 229.381,166.233 229.832,166.387 230.436,166.624 230.582,166.749 231.835,167.053 232.176,166.89 232.849,167.045 232.984,166.921 233.564,167.191 233.657,167.177 233.829,166.928 233.906,166.751 233.962,166.621 234.017,166.492 234.072,166.362 234.117,166.319 234.199,166.238 234.288,166.22 234.86,165.691 235.468,165.03 235.601,165.041 235.69,164.906 235.79,164.704 235.895,164.484 236.608,163.129 236.743,162.894 236.838,162.617 237.059,162.124 237.335,161.851 237.484,162.002 237.65,162.099 237.71,162.121 238.3,161.871 238.45,161.768 238.853,161.715 238.935,161.726 239.061,161.483 239.626,160.197 239.762,159.885 240.312,158.613 241.635,155.409 241.885,154.515 241.922,154.392 241.997,154.207 242.036,154.153 242.092,154.053 242.129,153.9 242.166,153.738 242.205,153.639 242.262,153.448 242.322,153.299 242.4,153.038 242.478,152.749 242.544,152.561 242.557,152.592 242.681,151.983 242.765,151.677 242.89,151.437 242.99,151.245 243.181,150.987 243.489,150.336 243.679,150.025 243.753,149.634 243.94,148.761 244.012,148.403 244.258,147.479 244.452,146.935 244.66,146.44 244.846,146.176 245.085,145.864 245.27,145.612 245.446,145.6 245.592,145.588 246.049,145.339 246.435,145.289 246.655,145.337 247.054,145.226 247.378,145.298 247.4,145.288 247.839,145.281 248.055,145.325 248.389,144.988 248.722,145.064 249.056,145.424 249.168,145.544 250.656,146.351 250.999,146.565 251.037,146.566 251.319,147.134 251.698,147.692 253.21,148.886 253.652,148.645 253.873,148.387 254.185,148.771 255.698,150.281 257.014,150.298 257.526,150.324 257.996,150.228 258.25,150.007 258.86,150.295 258.916,150.321 259.366,150.439 259.515,150.477 259.575,150.442 260.895,150.268 261.143,150.242 261.174,150.267 261.397,150.286 261.827,150.167 262.315,150.254 262.548,150.173 263.161,150.063 263.235,150.089 264.239,149.964 264.819,149.876 265.082,149.454 265.257,149.23 265.457,148.983 265.957,148.339 266.287,147.659 266.609,146.935 267.048,145.934 267.267,145.513 267.372,145.285 267.631,144.761 267.937,144.327 268.229,144.068 268.602,143.81 269.384,142.993 269.725,142.741 269.914,142.484 270.01,142.32 270.231,141.923 270.348,141.745 270.513,141.528 270.625,141.395 270.663,141.359 270.702,141.277 270.769,141.169 270.958,140.965 272.874,139.664 274.303,139.129 274.512,138.952 274.615,139.012 274.719,139.072 274.914,139.012 275.252,138.793 275.721,138.507 276.119,138.355 276.184,138.372 276.392,138.489 276.64,138.692 277.464,138.216 278.062,138.063 278.226,137.983 278.54,138.075 278.895,137.845 279.221,137.713 279.274,137.667 279.45,137.872 279.552,137.933 279.892,138.161 280.155,138.187 280.584,138.085 280.85,137.982 281.265,138.198 281.751,137.504 281.958,137.594 282.099,137.888 282.23,137.627 282.656,137.32 283.129,137.323 283.171,137.231 283.264,137.151 283.569,137.901 284.156,138.186 284.386,138.404 284.653,138.607 284.684,138.548 284.951,138.773 285.07,139.122 285.315,139.618 285.547,139.663 285.622,139.754 285.839,139.831 286.017,139.817 286.238,139.958 286.332,140.029 286.556,140.697 286.752,140.539 286.814,140.587 286.856,140.383 286.878,140.251 286.92,140.239 287.465,139.915 287.543,139.492 287.579,139.287 287.709,138.546 287.74,138.421 287.771,138.306 287.813,138.17 287.85,138.102 287.888,138.033 287.925,137.965 287.963,137.897 288.005,137.891 288.362,138.295 288.67,138.469 288.901,138.463 288.963,138.461 289.005,138.415 289.398,137.331 289.443,137.237 289.503,137.113 289.841,136.511 289.859,136.481 290.257,135.973 290.313,135.9 290.336,135.868 290.367,135.826 290.398,135.783 290.439,135.728 290.493,135.661 290.696,135.433 290.761,135.397 290.851,135.361 291.107,135.259 291.184,135.281 291.326,135.327 291.392,135.35 291.454,135.459 291.561,135.555 291.65,135.675 291.78,135.8 291.887,135.75 292.112,135.7 292.509,136.048 292.943,136.354 293.349,136.986 293.794,137.652 294.168,137.886 294.479,138.032 294.687,137.974 294.904,137.928 295.029,138.001 295.153,138.013 295.35,137.737 295.464,137.533 295.641,137.413 295.817,137.509 295.901,137.533 295.913,137.581 295.958,137.533 296.063,137.707 296.19,137.899 296.527,138.424 296.62,138.549 296.695,138.593 296.767,138.723 296.916,138.987 297.183,139.715 297.236,139.871 297.331,140.147 297.479,140.539 297.593,140.784 297.718,140.978 297.842,141.227 297.956,141.443 298.049,141.576 298.176,141.639 298.281,141.748 298.415,141.819 298.542,141.954 298.647,142.133 298.855,142.332 299.034,142.5 299.175,142.558 299.368,142.608 299.557,142.704 299.842,142.82 299.991,142.955 300.127,143.147 300.171,143.195 300.276,143.339 300.425,143.531 300.641,143.815 301.079,144.511 301.206,144.703 301.492,145.111 301.642,145.328 301.768,145.527 301.835,145.603 302.024,145.788 302.151,145.817 302.24,145.817 302.329,145.817 302.411,145.805 302.473,145.845 302.567,145.917 302.62,145.965 302.662,146 302.734,146.018 302.818,146.05 302.995,146.133 303.017,146.135 303.627,145.993 304.058,146.034 304.155,146.075 304.207,146.133 304.579,146.669 304.779,146.734 304.935,146.833 305.06,146.889 305.227,146.882 305.385,146.908 305.49,146.951 305.645,147.065 305.75,147.159 305.803,147.214 305.948,147.399 306.062,147.61 306.239,148.236 306.388,148.953 306.564,149.315 306.751,149.397 307.02,149.959 307.062,150.099 307.207,150.62 307.291,150.834 307.358,150.941 307.498,151.076 307.603,151.194 307.681,151.294 307.776,151.432 307.928,151.795 308.114,152.273 308.418,153.097 308.479,153.175 308.609,153.463 308.648,153.502 308.864,154.019 309.005,154.615 309.198,155.013 309.422,155.366 309.711,156.369 309.913,157.096 310.01,157.371 310.146,157.688 310.334,158.067 310.532,158.603 310.72,159.261 310.866,159.695 310.918,159.833 311.011,160.052 311.104,160.267 311.177,160.435 311.242,160.579 311.307,160.723 311.357,160.819 311.395,160.891 311.482,161.127 311.696,161.673 311.761,161.795 311.912,162.009 312.307,162.399 312.458,162.568 312.596,162.796 312.731,163.12 312.796,163.204 312.984,163.449 313.175,163.557 313.354,163.694 313.468,163.821 313.581,163.981 313.735,164.136 313.819,164.263 313.893,164.393 314.056,164.679 314.272,164.85 314.391,164.971 314.518,165.129 314.629,165.291 314.724,165.375 314.856,165.48 314.985,165.573 315.191,165.742 315.421,165.893 315.581,165.968 315.711,165.989 315.98,166.087 316.111,166.136 316.15,166.14 316.261,166.152 316.353,166.169 316.446,166.233 316.548,166.116 316.673,166.09 316.797,166.276 316.943,166.695 317.057,167.054 317.193,167.519 317.329,167.882 317.702,168.637 317.836,169.077 317.903,169.045 318.172,169.871 318.247,170.068 318.396,170.48 318.577,170.984 318.789,171.572 318.993,172.278 319.06,172.538 319.082,172.628 319.101,172.697 319.113,172.72 319.126,172.744 319.151,172.791 319.204,172.809 319.269,172.843 319.294,172.887 319.332,172.952 319.344,172.983 319.357,173.014 319.369,173.045 319.388,173.128 319.427,173.323 319.636,174.35 319.84,175.236 319.983,175.863 320.286,177.14 320.827,179.656 321,180.552 321.389,182.565 321.428,182.679 321.545,183.009 321.601,183.159 321.658,183.272 321.943,183.509 322.532,184.367 322.84,184.451 322.974,184.853 323.15,185.013 323.2,185.013 323.29,184.965 323.367,185.013 323.462,185.15 323.546,185.349 323.618,185.541 323.675,185.722 323.75,185.96 323.849,186.302 324.001,186.677 324.988,187.298 325.139,187.163 325.274,187.065 325.694,187 325.824,187 325.901,187 326.015,187.001 326.337,187.082 326.966,187.325 327.383,187.313 327.8,187.259 329.151,187.147 329.529,187.146 330.137,187.328 330.703,187.169 331.273,187.187 332.107,187.368 332.471,187.393 332.814,187.345 333.306,187.333 333.759,187.431 333.95,187.4 334.12,187.24 334.462,187.027 334.597,187.046 334.844,187.031 334.901,187.019 335.244,186.888 335.318,186.849 335.548,186.729 335.623,186.759 335.796,186.851 335.909,186.923 336.04,187 336.571,187 337.087,187 337.465,187.019 337.731,186.863 338.017,186.697 338.187,186.72 339.081,186.667 339.495,186.889 339.686,186.989 340.05,186.994 340.599,186.78 340.694,186.72 340.825,186.697 340.977,186.793 341.016,186.817 341.129,186.889 341.338,187 341.737,187 341.83,187 341.944,187 342.018,187 342.114,187 342.209,187 342.88,186.028 343.527,186.503 343.715,186.467 343.962,186.404 344.39,186.344 344.525,186.333 344.942,186.333 345.094,186.333 345.172,186.333 345.306,186.333 345.476,186.333 345.571,186.302 345.72,186.163 346.332,185.83 346.713,185.619 347.148,185.343 347.391,185.333 347.695,185.333 347.868,185.333 347.963,185.333 348.128,185.291 348.595,185.048 349.045,185 350.479,184.811 351.559,184.667 351.814,184.667 352.008,184.667 352.596,184.664 352.734,184.637 352.967,184.639 353.728,184.533 353.949,184.617 354.065,184.653 354.463,184.536 355.228,184.333 355.858,184.266 356.787,183.947 356.909,183.974 356.962,183.997 357.59,183.952 357.708,184 358.058,184 358.366,184.03 359.451,183.422 359.512,183.373 359.668,183.333 359.824,183.333 360.05,183.333 360.441,183.133 360.822,182.941 361.32,182.68 361.524,182.707 361.708,182.73 361.913,182.776 362.433,182.959 362.696,182.889 362.957,182.835 363.252,182.71 363.702,182.451 363.84,182.367 364.856,181.775 365.52,181.858 365.749,181.943 365.827,181.87 366.027,181.848 366.379,181.63 366.441,181.511 366.454,181.485 366.476,181.449 366.52,181.376 366.587,181.26 366.629,181.172 366.671,181.124 366.708,181.088 366.758,181.04 366.947,180.872 367.048,180.747 367.5,180.274 367.627,180.242 367.978,180.02 369.032,179.312 369.659,178.735 370.324,178.143 370.546,177.999 371.339,177.483 371.487,177.387 371.617,177.314 371.751,177.274 373.2,177.103 373.505,177.058 373.656,177.004 373.778,176.988 374.833,176.921 374.976,176.798 375.192,176.681 375.832,176.699 376.213,176.376 376.732,176.175 376.877,176.196 377.48,175.847 378.367,175.023 378.596,174.891 378.794,174.684 379.193,174.24 379.317,174.096 379.484,173.904 379.744,173.604 379.942,173.397 380.066,173.328 380.159,173.313 380.283,173.293 380.407,173.005 380.532,172.717 380.606,172.549 380.703,172.333 380.814,172.151 380.867,172.095 380.919,172.05 380.981,172.014 381.108,171.885 381.162,171.839 381.204,171.791 381.245,171.701 381.299,171.583 381.352,171.469 381.405,171.359 381.645,170.896 381.81,170.701 381.847,170.691 381.87,170.681 381.888,170.677 382.481,169.335 382.548,169.173 382.621,169.027 382.693,168.883 382.983,168.604 383.17,168.161 383.764,166.88 383.9,166.657 383.989,166.401 384.237,165.575 384.38,165.197 384.399,165.143 384.491,164.869 384.621,164.482 384.842,163.844 385.01,163.322 385.201,162.682 385.388,162.133 385.858,161.797 386.848,160.59 387.3,160.044 387.363,159.964 387.416,159.953 387.521,159.628 387.925,159.168 387.977,159.063 388.052,158.903 388.083,158.87 388.826,156.722 389.071,155.894 389.655,155.015 389.749,155.026 389.906,154.96 390.114,154.687 390.145,154.675 390.167,154.639 390.204,154.519 390.241,154.399 390.536,153.481 390.868,152.7 391.09,152.105 391.165,151.902 391.242,151.668 391.303,151.484 391.356,151.31 391.409,151.144 391.451,151.018 391.501,150.889 391.563,150.73 391.751,150.251 391.877,149.959 391.952,149.743 392.053,149.455 392.075,149.383 392.087,149.347 392.118,149.239 392.171,149.059 392.208,148.987 392.264,148.843 392.321,148.68 392.339,148.631 392.396,148.45 392.414,148.402 392.437,148.32 392.474,148.224 392.492,148.176 392.505,148.207 392.527,148.19 392.552,148.252 392.583,148.263 392.656,148.311 392.697,148.346 392.719,148.32 392.742,148.294 392.781,148.212 392.82,148.127 392.842,148.098 392.879,147.985 392.897,147.929 392.919,147.897 392.95,147.889 393.004,147.941 393.076,147.998 393.525,148.689 393.567,148.749 393.611,148.773 393.634,148.785 393.646,148.809 393.668,148.821 393.707,148.821 393.791,148.941 394.24,149.251 394.708,150.129 394.873,149.695 395.039,149.328 395.091,149.232 395.184,149.052 395.413,148.536 395.558,148.153 395.66,147.875 395.805,147.243 395.968,146.504 396.082,146.011 396.196,145.672 396.417,145.095 396.686,144.582 396.76,144.625 397.484,143.337 397.556,143.194 397.66,143.056 397.743,142.962 397.85,142.716 397.981,142.372 398.058,142.159 398.183,141.607 398.272,141.333 398.322,141.107 398.395,141.082 398.562,140.866 398.76,140.353 399.239,139.087 399.747,138.19 400.018,137.713 400.06,137.622 400.113,137.539 400.151,137.467 400.192,137.443 400.23,137.371 400.272,137.251 400.309,137.179 400.363,137.035 400.394,136.939 400.456,136.747 400.487,136.626 400.531,136.449 400.68,135.814 400.747,135.524 401.047,134.61 401.197,134.232 401.348,133.768 401.511,133.282 401.678,132.831 401.743,132.648 401.785,132.576 401.875,132.295 401.988,131.923 402.064,131.635 402.178,131.299 402.418,130.475 402.638,129.983 402.817,129.243 403.067,128.029 403.233,127.565 403.409,126.932 403.481,126.659 403.792,125.759 404.074,124.478 404.167,124.11 404.294,123.415 404.387,123.018 404.44,122.778 404.506,122.364 404.589,121.769 404.81,120.175 405.016,118.891 405.076,118.555 405.095,118.435 405.155,118.099 405.252,117.757 405.335,117.664 405.454,117.744 405.529,117.77 405.618,117.713 405.849,117.402 405.961,117.418 406.005,117.447 406.072,117.459 406.156,117.514 406.27,117.61 406.395,117.257 406.51,116.838 406.615,116.551 406.797,116.246 406.985,116.034 407.096,115.912 407.189,115.816 407.466,115.586 407.651,115.428 407.799,115.201 408.262,113.942 408.391,113.857 408.465,113.785 408.557,113.695 408.723,113.536 408.873,113.479 409.033,113.461 409.344,113.312 409.69,112.85 409.785,112.744 409.824,112.703 409.891,112.667 409.958,112.667 410.025,112.667 410.097,112.667 410.159,112.655 410.224,112.595 410.266,112.559 410.332,112.499 410.469,112.367 411.373,111.604 411.592,111.384 411.668,111.384 411.904,111.311 412.068,111.299 412.269,111.287 412.433,111.166 412.533,111.08 412.675,110.959 412.753,110.888 412.973,110.816 413.366,110.616 413.492,110.515 413.637,110.467 414.014,110.426 415.352,109.571 415.529,109.428 415.977,109.17 416.144,108.984 416.392,108.923 416.796,108.609 417.351,108.426 417.527,108.37 417.767,108.236 418.005,107.984 418.222,107.719 418.348,107.565 418.413,107.498 418.515,107.412 418.616,107.318 418.792,107.237 419.134,107.139 419.221,107.055 419.398,106.999 419.623,106.917 419.936,106.827 420.599,106.827 421.138,106.869 421.276,106.886 421.44,106.971 421.591,107.05 421.698,106.963 421.853,106.915 421.884,106.843 422.109,106.675 422.535,106.285 423.212,105.761 423.33,105.809 423.509,105.977 424.266,105.937 424.433,105.811 424.533,105.821 424.934,105.767 425.435,105.617 425.711,105.47 425.899,105.38 425.974,105.345 426.124,105.141 426.137,105.123 426.853,104.347 427.017,104.16 427.119,104.077 427.194,103.933 427.497,103.782 427.673,103.874 427.71,103.871 427.773,103.835 427.785,103.824 427.898,103.724 429.087,102.679 429.112,102.679 429.137,102.691 429.427,102.683 429.44,102.695 429.452,102.707 429.542,102.722 429.696,102.782 430.106,102.233 430.407,101.585 430.614,101.197 430.802,101.15 430.951,100.97 431.063,100.942 431.123,100.865 431.228,100.812 431.51,100.223 431.73,99.719 431.749,99.635 431.958,99.315 432.033,99.376 432.055,99.378 432.16,99.243 432.287,99.044 432.581,98.777 432.685,98.684 432.851,98.56 432.955,98.565 433.111,98.475 433.2,98.436 433.313,98.413 433.39,98.337 433.44,98.229 433.53,98.07 433.664,98.007 433.748,98.042 433.915,97.884 434.064,97.955 434.231,98.223 434.281,98.157 434.358,98.157 434.472,97.91 434.547,97.811 434.622,97.78 434.729,97.62 434.833,97.354 434.936,97.159 435.055,96.926 435.191,96.775 435.362,96.576 435.52,96.455 435.625,96.294 435.871,95.832 436.059,95.614 436.215,95.37 436.349,95.296 436.426,95.237 436.519,95.098 437.215,93.968 437.544,93.224 437.637,93.008 437.804,92.624 437.866,92.48 438.001,92.168 438.561,90.473 439.373,87.855 439.863,86.036 440.197,84.921 440.27,84.652 440.389,84.2 440.43,84.034 440.455,83.977 440.493,83.905 440.524,83.893 440.712,83.401 440.8,83.172 440.922,82.872 441,82.68 441.06,82.516 441.079,82.481 441.172,82.273 441.228,82.132 441.284,82.024 441.376,81.788 442.059,80.121 442.354,79.515 442.538,79.155 442.668,78.939 442.723,78.831 442.945,78.431 443.037,78.307 443.059,78.24 443.172,78 443.738,77.029 443.76,76.981 444.383,76.409 444.496,76.328 444.627,76.251 444.719,76.28 444.756,76.291 444.831,76.366 444.997,76.299 445.034,76.155 445.293,75.243 445.52,74.655 445.613,74.523 445.687,74.427 445.935,74.199 445.971,74.127 446.18,73.9 446.291,73.711 446.346,73.594 446.513,73.281 446.642,73.054 446.79,72.81 446.882,72.678 446.956,72.572 447.235,72.143 447.59,71.552 447.979,70.832 448.255,70.188 448.581,69.512 449.039,68.495 449.136,68.308 449.225,68.126 449.297,68.044 449.363,68.032 449.416,68.008 449.478,68.041 449.568,67.9 449.668,67.821 449.888,67.83 449.913,67.809 449.955,67.829 450.055,67.739 450.096,67.664 450.138,67.594 450.18,67.53 450.211,67.487 450.286,67.363 450.353,67.234 450.391,67.149 450.43,67.062 450.559,66.778 450.578,66.737 450.596,66.697 450.633,66.615 450.677,66.554 450.755,66.267 450.817,66.181 450.871,66.143 450.943,65.96 451.009,65.852 451.096,65.799 451.18,65.63 451.233,65.544 451.317,65.384 451.513,64.888 451.648,64.541 451.762,64.44 451.887,64.392 451.925,64.296 452.009,64.236 452.194,64.02 452.412,63.216 453.054,60.969 453.066,60.96 453.252,60.587 453.284,60.527 453.306,60.467 453.345,60.347 453.384,60.215 453.402,60.148 453.502,59.805 453.579,59.523 453.646,59.297 453.729,59.024 454.071,57.221 454.22,56.692 454.537,55.655 454.741,54.712 454.88,54.111 454.93,53.937 455.002,53.704 455.097,53.396 455.729,52.087 456.061,51.098 456.393,50.253 456.541,49.908 456.955,49.323 457.236,49.165 457.258,49.237 457.933,48.071 458.248,47.067 458.341,46.571 459,42.45 459.68,38.663 459.991,38.242 460.32,38.061 460.458,37.877 462.023,35.228 462.543,35.026 462.856,34.717 463.005,34.645 463.024,34.633 463.189,34.525 463.285,34.413 463.337,34.329 463.36,34.293 463.449,34.149 463.527,34.029 463.749,33.781 463.955,33.653 464.2,33.463 464.329,33.208 464.407,32.901 464.429,32.847 464.451,32.787 464.482,32.774 464.514,32.75 464.566,32.628 464.712,32.379 464.756,32.467 464.795,32.368 464.856,32.334 465.06,31.638 465.209,31.344 465.343,30.994 465.493,30.46 465.505,30.485 465.646,30.867 465.795,31.738 465.951,32.389 466.088,32.566 466.165,32.4 466.243,32.183 466.492,31.772 466.492,31.772 466.74,32.183 466.818,32.4 466.895,32.566 467.032,32.389 467.188,31.738 467.337,30.867 467.478,30.485 467.491,30.46 467.64,30.994 467.774,31.344 467.923,31.638 468.128,32.334 468.188,32.368 468.227,32.467 468.272,32.379 468.417,32.628 468.47,32.75 468.501,32.774 468.532,32.787 468.554,32.847 468.576,32.901 468.654,33.208 468.784,33.463 469.028,33.653 469.234,33.781 469.37,33.933 469.423,34.017 469.526,34.173 469.621,34.209 469.728,34.519 469.793,34.858 469.859,35.215 469.936,35.664 470.05,36.323 470.176,36.826 470.291,37.252 470.394,37.433 470.509,37.806 470.546,38.014 470.8,37.683 470.897,37.68 470.964,37.778 471.041,38.006 471.137,38.287 471.232,38.525 471.325,38.831 471.436,39.159 471.584,39.501 471.731,39.966 471.916,40.703 472.027,40.931 472.084,41.123 472.141,41.315 472.339,42.371 472.569,43.396 472.712,44.317 472.751,44.508 472.79,44.696 472.903,45.101 473.055,45.683 473.203,46.016 473.427,46.628 473.63,47.275 473.704,47.549 473.761,47.676 473.821,47.736 473.866,47.737 473.971,47.637 474.096,47.683 474.253,47.976 474.413,48.124 474.561,48.226 474.804,48.366 474.988,48.084 475.065,47.905 475.119,47.811 475.281,47.319 475.294,47.281 475.369,47.054 475.469,46.857 475.576,47.435 475.743,47.894 475.934,47.909 476.073,47.965 476.187,48.038 476.313,48.321 476.538,48.75 476.859,49.606 476.952,49.747 477.285,49.413 477.378,49.539 477.523,49.843 477.62,49.951 477.717,49.877 478.075,50.677 478.209,50.723 478.283,50.506 478.308,50.33 478.405,50.229 478.489,49.988 478.578,50.115 478.616,50.108 478.647,50.242 478.76,50.217 478.849,50.076 478.939,50.296 479.039,50.397 479.145,50.681 479.282,50.9 479.366,50.996 479.698,51.188 479.739,51.216 479.882,51.163 480.019,51.209 480.031,51.205 480.207,51.391 480.363,51.749 480.375,51.753 480.572,52.152 480.699,52.271 480.772,52.202 480.957,52.122 481.04,52.282 481.139,52.498 481.244,52.658 481.361,52.909 481.472,53.239 481.619,53.808 481.693,54.096 481.749,54.264 481.884,54.624 482.005,54.934 482.072,55.191 482.134,55.371 482.187,55.575 482.228,55.679 482.318,55.787 482.368,55.783 482.544,55.869 482.72,56.008 482.815,56.351 482.857,56.493 482.95,56.856 483.012,57.03 483.025,57.002 483.319,58.019 483.505,58.86 483.817,59.701 484.015,59.896 484.32,60.778 484.495,60.69 484.537,60.75 484.637,61.388 484.756,62.018 484.87,62.507 485.171,64.857 485.493,67.011 485.617,67.371 485.655,67.74 485.717,68.195 485.819,68.723 486.497,70.514 487.152,75.489 487.43,76.639 487.519,77.356 487.685,78.988 487.901,80.723 488.26,84.246 488.416,86.061 488.476,86.745 488.554,87.377 488.757,89.091 488.969,91.133 489.139,92.691 489.194,93.138 490.144,101.383 490.478,103.57 490.812,105.959 491.056,108.142 491.145,108.867 491.473,111.309 492.127,115.663 492.469,117.384 492.797,119.212 492.863,119.519 493.126,120.685 493.284,121.384 493.462,122.215 494.115,124.675 494.456,126.069 495.005,127.876 496.781,133.53 497.206,134.791 497.6,136.066 497.809,136.687 498.038,137.44 498.183,137.897 498.31,138.271 498.394,138.558 498.683,139.277 498.943,139.759 499.121,140.187 499.27,140.55 499.353,140.701 499.469,140.866 499.544,140.943 499.599,140.981 499.858,141.379 499.932,141.475 499.987,141.547 500.042,141.619 500.061,141.643 500.083,141.703 500.105,141.763 500.261,142.215 500.406,142.682 500.519,142.971 500.581,143.091 500.658,143.259 500.922,143.889 501.101,144.441 501.178,144.672 501.255,144.84 501.318,144.96 501.656,145.668 502.47,147.752 502.66,148.109 502.691,148.173 503.113,149.277 503.262,149.613 503.649,150.453 504.072,151.251 505.135,153.123 506.091,154.527 506.685,155.432 506.833,155.696 507.242,156.44 508.216,158.048 508.358,158.236 508.534,158.507 508.636,158.699 508.673,158.771 508.85,159.107 509.038,159.467 509.151,159.675 509.238,159.759 509.238,159.759 509.264,159.783 509.39,159.903 509.479,159.987 509.569,160.097 509.664,160.223 509.771,160.379 509.916,160.576 510.061,160.726 510.228,160.949 510.301,161.037 510.458,161.291 510.503,161.346 510.555,161.416 510.787,161.605 511.158,162.109 511.434,162.546 511.546,162.664 511.612,162.689 511.701,162.743 511.776,162.796 512.095,163.265 512.511,163.598 512.715,163.92 512.914,164.306 513.013,164.455 513.152,164.596 513.286,164.664 513.424,164.77 513.792,165.268 515.036,166.585 515.383,166.968 517.168,168.763 517.284,168.909 518.101,169.576 518.236,169.787 519.109,170.76 519.208,170.902 519.325,171.061 519.407,171.122 519.551,171.251 519.662,171.375 519.951,171.727 520.227,172.039 521.368,173.339 522.122,174.188 522.258,174.283 522.592,174.5 522.718,174.608 522.872,174.746 522.962,174.818 523.039,174.874 523.769,175.521 524.521,176.234 524.806,176.551 524.973,176.656 525.157,176.897 525.306,177.131 525.507,177.419 525.839,177.764 525.946,177.869 526.279,178.208 526.783,178.971 526.925,179.242 527.032,179.431 527.211,179.637 527.347,179.709 527.503,179.769 528.476,180.184 528.641,180.179 528.787,180.217 528.911,180.285 529.015,180.352 529.08,180.395 529.175,180.436 529.359,180.501 529.501,180.497 529.576,180.52 529.69,180.543 529.728,180.563 529.793,180.586 529.843,180.615 529.916,180.614 529.978,180.598 530.009,180.587 530.031,180.57 530.062,180.557 530.085,180.538 530.159,180.466 530.38,180.271 530.717,180.067 531.313,179.808 531.452,179.809 531.557,179.784 531.838,179.477 532.953,179.7 533.29,179.855 534.263,179.566 534.406,179.624 534.445,179.661 534.603,180.011 534.66,180.096 534.753,180.187 534.942,179.929 535.529,179.588 535.784,179.699 535.868,179.753 536.123,179.712 536.253,179.81 537.444,180.391 537.555,180.395 537.647,180.375 537.758,180.351 537.853,180.323 537.952,180.189 538.064,179.989 538.338,179.555 538.395,179.51 538.417,179.504 538.435,179.49 538.454,179.482 538.476,179.468 538.513,179.462 538.58,179.442 538.624,179.442 538.677,179.455 538.721,179.478 539.033,179.529 539.138,179.479 539.221,179.472 539.303,179.485 539.34,179.5 539.377,179.515 539.414,179.529 539.47,179.545 539.509,179.55 539.554,179.542 539.62,179.52 539.745,179.473 540.136,180.441 540.346,180.996 540.584,180.918 540.822,180.745 540.985,180.287 541.027,180.217 541.151,180.013 541.226,179.879 541.322,179.687 541.389,179.579 541.566,179.528 541.743,179.571 541.821,179.571 542.03,179.455 542.172,179.054 542.378,178.565 542.847,177.64 543.035,177.354 543.096,177.197 543.156,177.081 543.239,176.97 543.328,176.889 543.411,176.817 543.516,177.011 543.662,177.31 543.704,177.25 543.837,176.779 544.024,176.671 544.365,177.116 544.542,177.613 544.987,177.866 545.546,177.957 545.569,177.95 545.6,177.926 545.644,177.907 545.882,177.718 546.103,177.721 546.564,176.68 546.802,176.584 546.876,176.536 546.991,176.392 547.282,176.014 547.365,175.816 547.542,175.355 547.998,174.676 548.091,174.596 548.156,174.5 548.229,174.392 548.241,174.368 548.266,174.32 548.304,174.248 548.442,174 548.608,173.99 548.809,173.94 549.023,173.712 549.72,173.231 549.859,173.225 549.988,173.303 550.136,173.269 550.768,172.987 551.605,173.197 552.071,173.269 552.159,173.185 552.383,173.081 552.722,172.821 552.822,172.749 552.897,172.725 552.963,172.648 553.03,172.528 553.105,172.334 553.219,171.925 553.294,171.625 553.532,171.259 553.646,171.367 553.7,171.384 553.774,171.475 553.841,171.558 553.902,171.64 553.958,171.754 553.997,171.829 554.071,171.966 554.2,172.072 554.256,172.108 554.367,172.18 554.739,172.469 555.149,172.699 555.297,172.794 555.315,172.81 555.37,172.859 555.389,172.876 555.407,172.892 555.43,172.937 555.448,172.953 555.47,172.997 555.619,173.293 555.686,173.329 555.739,173.377 555.792,173.461 555.867,173.605 555.932,173.713 556.02,173.88 556.097,174.012 556.17,174.146 556.232,174.266 556.263,174.329 556.387,174.415 556.418,174.479 556.484,174.728 556.559,175.016 556.612,175.184 556.665,175.352 556.727,175.496 556.78,175.592 556.855,175.721 556.944,175.829 556.966,175.853 557.071,175.915 557.093,175.935 557.16,175.955 557.271,175.972 557.42,176.208 557.702,176.906 557.917,177.341 558.006,177.602 558.095,177.835 558.188,177.857 558.361,177.985 558.499,178.118 558.538,178.148 558.569,178.229 558.636,178.333 558.698,178.482 558.723,178.55 558.765,178.629 558.815,178.749 558.892,178.935 558.942,179.054 558.984,179.145 559.003,179.148 559.015,179.177 559.038,179.207 559.074,179.211 559.166,179.221 559.54,179.515 559.689,179.659 559.782,179.728 559.839,179.788 559.895,179.848 559.934,179.896 560.017,180.016 560.116,180.148 560.2,180.262 560.265,180.285 560.343,180.305 560.355,180.307 560.519,180.333 560.576,180.333 561.652,180.271 562.021,180.158 562.261,180.075 562.612,180.025 563.169,180.244 563.575,180.648 563.667,180.639 564.485,181.148 564.727,181.035 564.883,180.987 565.172,180.921 565.643,181.246 566.015,180.915 566.378,182.598 566.591,183.289 566.768,183.711 567.432,183.962 567.619,183.891 567.682,183.841 567.713,183.83 567.755,183.811 568.105,183.751 568.244,183.782 568.344,183.857 568.432,183.923 568.582,184 568.671,184 568.861,184 568.957,184 569.004,184 569.436,184 570.409,184.07 571.545,184.316 572.68,184.286 574.918,184.513 575.227,184.548 576.723,184.154 577.403,184 579.033,184.123 580.361,184.399 581.011,184.05 582.001,183.706 582.474,183.667 582.956,183.667 584.506,184.087 586.287,184 587.044,184.201 588.574,184.497 592.016,184.272 593.102,184.052 594.122,184 594.626,184 594.654,184 594.95,184 595.163,184 595.371,184 595.548,184 595.682,184 595.83,184 595.944,184 596.058,184 596.237,184 596.824,184 597.791,184 598.825,184 598.936,184 599.085,184 599.481,184 599.52,184 599.559,184 599.59,184 599.644,184 599.709,184 599.759,184 599.842,184 599.895,184 600.15,184 600.32,184 600.451,184 600.501,184 600.578,184 600.591,184 600.622,184.002 600.653,184.01 600.666,184.011 600.688,184.021 600.7,184.022 600.723,184.033 600.745,184.045 600.819,184.101 600.919,184.215 601.05,184.32 601.179,184.386 601.382,184.401 601.733,184.365 602.268,184.352 602.321,184.394 602.451,184.488 602.529,184.538 602.581,184.545 602.635,184.56 602.718,184.524 602.829,184.464 602.979,184.38 602.997,184.368 603.019,184.356 603.056,184.333 603.078,184.329 603.097,184.325 603.134,184.318 603.17,184.31 603.209,184.299 603.248,184.286 603.287,184.271 603.309,184.26 603.34,184.243 603.378,184.224 603.409,184.203 603.434,184.19 603.456,184.174 603.469,184.167 603.487,184.157 603.5,184.149 603.556,184.108 603.821,184.064 603.895,184.1 603.918,184.112 603.936,184.124 603.958,184.136 603.981,184.148 604.003,184.171 604.042,184.207 604.06,184.219 604.079,184.231 604.097,184.243 605.442,184.333 606.548,184.593 606.991,184.539 607.064,184.525 607.087,184.504 607.105,184.5 607.124,184.496 607.146,184.473 607.185,184.444 607.207,184.418 607.229,184.392 607.268,184.359 607.29,184.331 607.303,184.309 607.325,184.279 607.347,184.249 607.444,184.093 607.501,184.089 607.538,184.07 607.556,184.061 607.869,183.933 607.98,183.939 608.175,183.993 608.219,183.993 608.286,183.967 608.429,183.8 608.551,183.72 608.647,183.858 609.041,184.037 609.331,184.091 609.643,184.081 609.761,184.008 610.006,184.214 610.363,184.363 610.562,184.424 610.696,184.46 610.789,184.472 610.844,184.472 610.939,184.414 611,184.3 611.067,184.266 611.21,184.199 611.383,184.124 611.549,184.141 611.624,184.169 611.699,184.2 611.881,184.184 612.201,184.167 612.431,184.254 612.689,184.333 612.855,184.333 612.948,184.333 613.047,184.352 613.279,184.339 613.584,184.327 614.128,184.275 614.874,184.401 614.958,184.425 616.635,184.431 617.732,184.518 617.806,184.536 617.829,184.541 617.851,184.547 617.869,184.542 617.888,184.537 617.906,184.535 617.924,184.535 617.943,184.535 617.961,184.535 618,184.523 618.172,184.439 618.298,184.379 618.359,184.355 618.432,184.415 618.556,184.51 618.774,184.571 618.836,184.53 618.91,184.465 619.128,184.235 619.318,184.099 619.383,184.075 619.58,184 619.756,183.902 619.901,183.853 620.004,183.845 620.218,183.893 620.313,183.917 620.866,183.999 620.943,183.992 621.168,183.877 621.316,183.755 621.423,183.685 621.527,183.696 621.63,183.725 621.703,183.736 621.745,183.74 621.786,183.741 621.859,183.734 621.942,183.91 622.091,184.274 622.347,184.667 623.149,184.667 624.011,184.667 624.141,184.356 624.254,184.049 624.317,183.878 624.358,183.809 624.371,183.777 624.421,183.748 624.633,184.054 624.81,184.216 624.909,184.267 624.966,184.271 625.044,184.258 625.099,184.283 625.136,184.3 625.173,184.317 625.21,184.334 625.266,184.343 625.647,184.397 626.023,184.487 626.965,184.342 627.298,184.405 627.972,184.279 628.093,184.276 628.789,184.209 629.451,184.397 630.307,184.358 631.285,184.348 633.516,184.527 633.538,184.533 633.569,184.533 633.594,184.519 633.631,184.497 633.78,184.401 634.009,184.403 634.869,184.201 634.93,184.176 635.1,184.141 635.211,184.12 637.108,184.346 639.189,184.417 639.282,184.429 639.393,184.417 639.504,184.429 640.038,184.229 640.187,184.109 640.261,184.072 640.391,184.084 640.54,184.108 640.692,184.144 640.84,184.156 641.024,184.156 641.119,184.132 641.212,184.12 641.379,184 641.454,184 641.559,184 641.788,184 641.871,184 641.96,184.013 642.087,184.139 642.231,184.229 642.958,184.439 643.878,184.362 644.414,184.391 644.519,184.417 644.571,184.414 644.654,184.415 644.761,184.353 644.875,184.272 644.942,184.236 644.986,184.212 645.269,184.1 645.606,184.165 645.65,184.165 645.725,184.148 645.799,184.12 645.914,184.046 646.077,184 646.529,184.013 646.974,183.956 647.751,184.079 648.104,184.127 650.397,184.1 650.91,184 651.015,184 651.071,184 651.09,184 651.127,184 651.163,184 651.182,184 651.256,184 651.417,184 651.469,184 651.5,184 651.523,184 651.56,184 651.648,184 652.702,184 653.19,184 653.766,184 653.843,184 654.156,184 654.231,183.988 654.285,183.971 654.357,183.958 654.492,183.961 654.656,183.967 654.757,183.985 654.945,183.999 655.396,183.959 655.873,183.935 656.163,184.079 656.356,184.175 656.417,184.211 656.477,184.247 656.533,184.283 656.68,184.379 656.772,184.439 656.829,184.475 656.873,184.499 656.957,184.531 657.071,184.515 657.133,184.493 657.259,184.414 657.373,184.345 657.438,184.357 657.526,184.357 657.591,184.345 657.633,184.333 657.67,184.333 657.708,184.333 657.761,184.356 657.968,184.402 658.01,184.408 658.076,184.428 658.692,184.369 658.859,184.393 658.977,184.417 659.084,184.441 659.209,184.477 659.316,184.501 659.418,184.513 659.52,184.525 659.597,184.529 659.699,184.478 659.799,184.416 659.899,184.354 660.042,184.291 660.208,184.206 660.364,184.228 660.519,184.288 660.716,184.335 660.822,184.264 660.929,184.196 661.054,184.143 661.138,184.125 661.231,184.122 661.324,184.103 661.601,184.005 661.715,184.053 661.746,184.041 661.83,184.005 662.106,184.103 662.199,184.122 662.292,184.125 662.376,184.143 662.501,184.196 662.608,184.264 662.715,184.335 662.911,184.288 663.067,184.228 663.222,184.206 663.389,184.291 663.531,184.354 663.631,184.416 663.731,184.478 663.833,184.529 663.911,184.525 664.012,184.513 664.114,184.501 664.221,184.477 664.346,184.441 664.453,184.417 664.571,184.393 664.738,184.369 665.355,184.428 665.42,184.408 665.462,184.402 665.669,184.356 665.722,184.333 665.76,184.333 665.797,184.333 665.839,184.345 665.904,184.357 665.992,184.357 666.057,184.345 666.172,184.414 666.297,184.493 666.359,184.515 666.474,184.531 666.557,184.499 666.602,184.475 666.658,184.439 666.75,184.379 666.898,184.283 666.953,184.247 667.014,184.211 667.074,184.175 667.268,184.079 667.557,183.935 668.034,183.959 668.485,183.999 668.673,183.985 668.775,183.967 668.938,183.961 669.073,183.958 669.168,183.98 669.21,183.993 669.272,184 669.586,184 669.663,184 670.239,184 670.727,184 671.781,184 671.869,184 671.906,184 671.928,184 671.96,184 672.012,184 672.172,184 672.247,184 672.265,184 672.302,184 672.339,184 672.357,184 672.414,184 672.519,184 673.031,184.1 675.325,184.127 675.678,184.079 676.455,183.956 676.9,184.013 677.352,184 677.515,184.046 677.63,184.12 677.704,184.148 677.779,184.165 677.823,184.165 678.16,184.1 678.449,184.224 678.615,184.296 678.796,184.334 678.94,184.333 679.117,184.333 679.212,184.333 679.312,184.333 679.497,184.213 679.627,184.112 679.737,184.022 679.923,183.905 680.034,183.928 680.071,183.936 680.11,183.95 680.132,183.959 680.176,183.975 680.301,184 680.467,184 680.586,184 680.664,184 680.724,184 680.785,184 680.83,184 680.964,184 681.098,184 681.173,184 681.36,184 681.452,184 681.656,184 681.77,184 681.814,184 681.867,184 681.909,184 681.971,184 682.067,184 682.253,184 682.432,184 682.499,184 682.634,184 682.708,184 682.838,184 682.912,184.005 682.969,184.019 683.024,184.033 683.063,184.038 683.147,184.025 683.213,184.012 683.258,184 683.297,184 683.336,184 683.358,184 683.376,184 683.401,184.008 683.454,184.041 683.496,184.076 683.578,184.135 683.683,184.21 683.761,184.248 683.913,184.301 684.024,184.325 684.225,184.429 684.318,184.417 686.399,184.346 688.296,184.12 688.407,184.141 688.577,184.176 688.638,184.201 689.498,184.403 689.727,184.401 689.875,184.497 689.913,184.519 689.938,184.533 689.969,184.533 689.991,184.527 692.222,184.348 693.2,184.358 694.056,184.397 694.718,184.209 695.414,184.276 695.535,184.279 696.209,184.405 696.542,184.342 697.484,184.487 697.86,184.397 698.241,184.343 698.297,184.334 698.334,184.317 698.371,184.3 698.408,184.283 698.463,184.258 698.541,184.271 698.597,184.267 698.697,184.216 698.874,184.054 698.912,184.019 698.934,184.033 698.956,184.045 698.978,184.055 699.02,183.991 699.045,183.965 699.14,183.845 699.181,183.823 699.578,184 700.366,184 700.781,183.832 700.822,183.793 700.897,183.781 701.018,183.733 701.115,183.673 701.26,183.637 701.427,183.555 701.707,183.201 702.049,182.659 702.183,182.614 702.537,182.217 703.231,180.793 703.52,180.043 703.728,179.329 703.907,178.893 704.065,178.884 704.221,179.212 704.659,178.023 704.764,178.473 705.098,178.321 705.536,178.608 705.714,178.122 705.759,178.013 706.182,178.528 706.516,178.275 707.399,178.955 707.474,179 707.615,179 708.332,178.918 708.488,178.814 708.665,178.684 708.739,178.684 709.05,178.606 709.787,177.879 710.01,177.508 710.664,176.567 710.886,176.299 711.242,175.917 711.474,175.617 711.729,175.313 711.786,175.253 711.863,175.157 711.974,175.085 712.084,175.013 712.195,174.873 712.344,174.549 712.461,174.419 712.73,174.322 712.984,174.307 713.119,174.139 714.136,173.192 715.016,172.299 716.394,171.021 716.606,170.885 716.701,170.825 716.887,170.705 717.23,170.077 718.42,169.349 718.65,169.293 718.823,169.25 719,169.249 719.096,169.251 719.274,169.263 719.458,169.142 719.801,169.375 720.009,169.526 720.98,170.412 721.454,170.195 721.572,170.515 721.694,170.451 721.836,170.89 721.947,170.98 722.518,170.099 722.557,170.019 723.27,169.667 723.924,170.194 724.037,170.435 724.345,170.536 724.384,170.514 724.402,170.499 724.439,170.47 724.457,170.455 724.494,170.425 724.512,170.41 724.531,170.396 724.549,170.381 724.604,170.336 724.665,170.336 724.757,170.335 724.812,170.371 724.885,170.515 724.947,170.635 725.036,170.779 725.468,171.093 725.793,171.285 727.03,173.095 727.697,173.902 727.824,174.159 727.885,174.267 728.111,174.663 728.227,174.653 728.448,174.881 728.515,175.049 728.597,175.283 728.686,175.62 728.761,175.836 728.954,176.28 729.344,176.557 729.447,176.806 729.676,177.527 729.916,178.211 730.058,178.473 730.187,178.7 730.312,178.829 730.565,179.509 730.602,179.461 730.741,180.013 730.879,180.683 731.143,182.211 731.282,182.356 731.633,182.584 731.711,182.596 731.773,182.596 731.977,182.748 732.03,182.856 732.114,183.024 732.167,183.131 732.315,183.337 732.54,183.393 732.628,183.415 732.7,183.494 732.738,183.572 732.775,183.651 732.912,183.975 733.05,183.929 733.227,183.933 733.266,183.938 733.327,183.964 733.5,184.005 733.708,184.545 734.55,184.2 734.615,184.215 734.668,184.211 734.729,184.26 734.785,184.295 734.89,184.339 735.114,184.38 735.782,184.575 736.185,184.663 736.444,184.667 736.968,184.667 737.106,184.667 737.206,184.667 738.115,184.667 738.182,184.667 738.888,184.667 739.582,184.939 740.265,184.863 740.703,184.69 741.009,184.667 741.257,184.667 741.384,184.667 741.905,184.554 742.061,184.637 742.722,184.667 743.375,183.885 743.442,183.643 743.519,183.93 743.597,183.958 743.634,183.945 743.678,184.047 743.723,184.146 743.868,184.538 744.591,183.998 744.758,183.828 745.004,183.885 745.256,184.199 745.309,184.372 745.665,184.501 745.91,184.276 745.922,184.32 746.234,184.385 746.791,184.182 747.008,184.425 747.402,184.263 747.588,184.139 748.333,184.165 749.184,184.046 749.902,183.84 750.007,183.77 750.236,183.754 750.78,183.989 751.534,184.245 752.774,184.24 753.296,184.161 753.476,184.23 753.642,184.347 754.172,184.088 754.66,184.456 754.867,184.134 754.986,183.937 755.027,183.87 755.211,183.78 755.487,183.729 755.816,183.829 756.28,183.842 756.67,183.65 757.056,183.805 757.285,183.832 757.409,183.818 757.564,183.782 757.751,183.664 757.938,183.771 758.105,183.843 758.292,183.909 758.428,183.934 758.451,183.971 758.545,183.965 758.705,183.995 758.99,183.846 759.044,184.013 759.257,184.579 759.299,184.655 759.437,185.119 759.51,185.207 760.344,185.157 761.173,185.005 761.559,185.655 762.69,185.156 763.212,185.322 763.432,185.132 763.587,185.151 763.732,185.431 763.763,185.536 764.002,185.761 764.357,184.609 764.399,184.564 764.421,184.52 764.443,184.483 764.456,184.549 764.487,184.589 764.529,184.714 764.554,184.858 764.607,185.081 764.649,185.251 764.68,185.358 764.764,185.705 764.816,185.697 764.829,185.723 764.86,185.672 764.882,185.595 764.904,185.521 764.917,185.55 764.939,185.478 764.961,185.407 764.974,185.438 765.005,185.402 765.027,185.337 765.039,185.37 765.062,185.307 765.106,185.187 765.231,185.123 765.324,185.142 765.52,185.561 765.647,185.745 765.722,185.763 765.734,185.815 765.753,185.731 765.775,185.67 765.793,185.588 765.816,185.531 765.838,185.476 765.869,185.452 765.891,185.404 765.913,185.358 765.945,185.347 765.976,185.341 766.007,185.34 766.06,185.416 766.097,185.523 766.122,185.594 766.154,185.613 766.185,185.637 766.805,185.432 767.716,185.464 768.058,185.541 769.165,185.758 769.759,185.848 769.956,185.79 770.177,185.894 770.473,186.086 770.674,186.029 770.769,185.991 770.884,185.895 771.02,185.79 771.124,185.688 771.166,185.679 771.272,185.712 771.439,185.777 771.688,185.864 772.351,186.215 772.458,186.143 773.679,186.495 774.336,186.275 774.798,186.096 775.645,186.403 776.131,186.227 776.845,186.26 776.975,186.267 778.243,186.507 778.468,186.451 778.574,186.355 779.6,186.76 779.779,186.688 779.981,186.563 780.315,186.501 780.585,186.559 781.221,186.619 781.926,186.829 781.979,186.805 782.259,186.613 782.663,186.349 783.255,186.571 783.534,186.467 783.587,186.464 783.773,186.358 783.938,186.378 784.057,186.156 784.188,186.112 784.993,185.131 785.218,184.879 786.21,184.864 786.596,184.275 786.722,184.06 787.632,184.135 788.7,185.72 789.506,185.512 790.221,186.193 790.796,186.215 791.059,186.482 791.149,186.487 791.35,186.494 791.452,186.469 791.488,186.541 791.545,186.649 791.602,186.757 791.624,186.793 791.646,186.829 791.668,186.865 791.693,186.865 791.718,186.865 791.868,186.865 792.107,186.829 793.19,186.577 793.528,186.541 793.866,186.505 794.23,186.433 794.318,186.433 795.144,186.762 795.335,186.914 795.697,186.925 795.876,186.969 795.99,187.026 796.097,187.044 796.169,187.016 796.398,186.872 796.475,186.848 796.642,186.8 796.802,186.728 797.041,186.891 797.207,187.029 797.232,187.062 797.314,187.02 797.379,186.988 797.421,186.944 797.845,186.598 798.083,187.112 798.198,187.195 798.417,186.986 798.698,186.774 799.057,187.098 799.373,187.182 799.745,187.205 799.939,187.11 800.539,186.975 800.999,186.931 801.155,186.834 801.296,186.719 801.37,186.729 801.978,186.804 802.536,186.921 802.663,186.991 802.957,187.088 803.333,186.752 803.72,186.584 804.051,186.52 804.506,186.77 804.775,186.652 805.044,186.672 805.356,186.648 805.672,186.396 805.922,186.362 805.964,186.351 806.154,186.396 806.374,186.554 806.587,186.544 806.747,186.367 806.842,186.211 806.917,186.283 806.967,186.331 807.032,186.26 807.146,186.221 807.496,186.023 807.644,185.935 807.722,185.957 807.799,185.99 808.006,186.109 808.238,186.218 808.454,186.353 808.97,186.497 809.097,186.419 809.304,186.284 809.435,186.272 809.87,186.453 810.317,186.366 810.395,186.153 810.455,185.959 810.567,185.637 810.66,185.493 810.749,185.445 810.86,185.157 810.927,185.013 811.217,184.451 811.525,184.367 812.115,183.509 812.399,183.272 812.456,183.159 812.513,183.009 812.629,182.679 813.057,180.552 813.23,179.656 813.771,177.14 814.074,175.863 814.217,175.236 814.421,174.35 814.631,173.323 814.67,173.128 814.688,173.045 814.701,173.014 814.713,172.983 814.726,172.952 814.763,172.887 814.788,172.843 814.853,172.809 814.907,172.791 814.932,172.744 814.944,172.72 814.957,172.697 814.975,172.628 814.997,172.538 815.064,172.278 815.268,171.572 815.48,170.984 815.662,170.48 815.811,170.068 815.885,169.871 816.154,169.045 816.221,169.077 816.356,168.637 816.728,167.882 816.864,167.519 817,167.054 817.115,166.695 817.26,166.276 817.384,166.09 817.51,166.116 817.611,166.233 817.704,166.169 817.796,166.152 817.907,166.14 817.946,166.136 818.078,166.087 818.346,165.989 818.514,165.962 818.726,165.877 818.914,165.662 819.087,165.482 819.2,165.38 819.317,165.261 819.438,165.117 819.572,164.948 819.69,164.818 819.906,164.587 820.084,164.299 820.168,164.161 820.261,164.029 820.302,163.984 820.47,163.712 820.679,163.294 820.99,162.751 821.402,161.528 821.649,160.573 821.952,159.268 822.108,158.832 822.695,156.635 822.806,156.204 822.947,155.832 823.289,154.88 823.657,153.489 823.833,153.025 823.875,152.917 824.196,152.165 824.341,152.028 824.59,151.33 824.848,150.286 825.015,149.722 825.192,149.37 825.337,149.045 825.816,147.967 826.097,147.655 826.827,146.968 826.965,146.944 827.043,146.92 827.205,146.92 827.344,146.944 827.417,147.04 827.456,147.081 828.518,148.197 828.747,148.629 828.822,148.288 829.01,147.657 829.125,147.437 829.27,147.264 829.323,147.211 829.416,147.126 829.583,147.017 829.688,146.978 829.829,146.908 829.986,146.882 830.111,146.883 830.276,146.833 830.365,146.909 831.2,146.718 831.416,146.629 831.52,146.646 831.835,146.724 831.978,146.776 832.038,146.762 832.16,146.727 832.298,146.559 832.492,146.347 832.653,146.232 832.886,146.088 833.003,146.048 833.283,146.89 833.36,146.98 833.448,146.933 833.627,146.818 833.765,146.72 833.79,146.704 833.822,146.691 833.852,146.674 833.897,146.653 833.936,146.638 834.717,147.006 834.869,147.076 834.958,147.055 835.024,147.039 835.096,147.019 835.988,147.057 836.175,147.117 836.258,147.153 836.355,147.207 836.422,147.252 836.517,147.305 836.8,147.477 836.839,147.453 837.027,147.573 837.344,147.667 837.474,147.667 837.621,147.667 838.008,147.667 838.1,147.667 838.524,147.455 838.616,147.395 838.764,147.333 838.86,147.333 838.92,147.333 838.959,147.333 838.99,147.336 839.021,147.347 839.094,147.368 839.261,147.391 839.492,147.349 839.789,147.304 840.257,147.137 840.547,146.996 840.954,146.738 841.277,146.687 841.546,146.489 841.722,146.345 842.025,146.64 842.229,146.796 842.417,146.898 842.65,146.98 842.745,146.995 842.867,147.039 842.956,147.135 843.083,147.279 843.228,147.447 843.363,147.603 843.642,147.908 844.015,148.246 844.319,148.292 844.644,148.271 844.897,148.428 845.178,147.761 845.437,147.735 845.561,147.783 845.719,147.837 845.868,147.957 846.068,148.19 846.24,148.554 846.262,148.607 846.488,149.139 846.808,149.807 846.978,150.038 847.053,150.125 847.126,150.245 847.49,150.91 847.547,150.984 847.639,151.195 848.195,152.355 848.231,152.46 848.305,152.671 848.398,152.869 848.515,152.997 848.917,153.368 849.039,153.407 849.155,153.563 849.886,154.163 850.132,153.399 850.253,153.308 850.365,153.475 850.457,153.482 850.514,153.47 850.589,153.478 850.664,153.492 850.759,153.489 850.906,153.581 851.202,153.527 851.535,153.408 851.831,153.1 852.035,152.934 852.378,152.874 853.41,152.698 853.527,152.753 853.64,152.729 853.81,152.733 854.072,152.754 854.186,152.813 854.373,152.868 854.646,152.865 855.02,153.156 855.065,153.274 855.683,154.154 855.86,154.205 856.01,154.383 856.219,154.583 857.383,158.043 857.443,158.259 857.518,158.455 857.611,158.592 857.927,158.527 858.022,158.549 858.308,158.648 858.457,159.14 858.786,160.589 858.922,161.174 859.097,161.752 859.439,162.543 859.528,162.727 859.547,162.752 859.785,163.157 859.94,163.111 860.388,163.415 860.924,163.699 861.169,163.831 861.755,164.156 862.237,164.621 862.304,164.652 862.428,164.587 862.994,164.641 863.242,164.641 863.409,164.737 863.668,164.949 864.143,164.632 864.309,164.63 864.526,164.808 865.271,164.64 865.519,164.891 865.799,164.888 865.892,164.891 866.025,165.101 866.5,165.565 866.953,166.012 867.487,166.511 867.664,166.758 867.812,166.731 867.854,166.707 867.916,166.755 867.969,166.803 867.981,166.803 868.006,166.803 868.029,166.827 868.059,166.851 868.072,166.851 868.094,166.875 868.131,166.923 868.149,166.947 868.168,166.971 868.207,167.019 868.262,167.091 868.28,167.115 868.299,167.139 868.321,167.163 868.466,167.072 868.63,167.241 868.928,167.547 869.236,167.907 869.319,168.001 869.628,168.181 870.019,168.301 870.333,168.337 870.394,168.349 870.587,168.4 870.817,168.52 871.353,168.459 871.458,168.4 871.503,168.379 871.563,168.358 871.712,168.405 871.762,168.405 871.857,168.477 871.899,168.513 871.961,168.585 872.044,168.693 872.119,168.801 872.191,168.873 872.286,168.945 872.518,169.085 872.761,169.036 873.4,168.936 875.065,169.395 875.627,169.659 876.332,169.485 876.552,169.545 877.369,169.667 877.494,169.667 877.631,169.667 878.407,169.667 878.496,169.668 879.568,170.048 879.882,170.333 880,170.331" stroke="#000000" stroke-linecap="round" stroke-linejoin="round" stroke-width="2" />
		</g>
	</g>
	<defs >
		<clipPath id="profile:drawing_boundary">
			<rect height="200" width="800" x="80" y="20" />
		</clipPath>
	</defs>
	<text class="draggable" fill="#000000" font-family="Verdana" font-size="14.4" id="profile:axis_title_x" text-anchor="middle" x="480" y="297">Distance</text>
	<text class="draggable" fill="#000000" font-family="Verdana" font-size="14.4" id="profile:axis_title_y" text-anchor="middle" transform="rotate(-90,16.4,120)" x="16.4" y="120">Elevation</text>
	<g id="profile:logo" x="897" y="150">
		<rect fill="#FFFFFF" height="160" opacity="0.6" width="11" x="888" y="70" />
		<a href="https://www.gpsvisualizer.com/" target="_blank">
			<text fill="#000000" font-family="Verdana" font-size="9" text-anchor="middle" transform="translate(897,150) rotate(-90) translate(-897,-150)" x="897" y="150"></text>
		</a>
	</g>
	<rect fill="none" height="299" id="image_border" opacity="0" stroke="#000000" stroke-width="1" width="899" x="0.5" y="0.5" />
	<style type="text/css">.draggable { cursor:move; }</style>
	<script type="text/javascript"><![CDATA[
		function makeDraggable(evt) {
			var svg = evt.target; svg.addEventListener('mousedown', startDrag); svg.addEventListener('mousemove', drag); svg.addEventListener('mouseup', endDrag); svg.addEventListener('mouseleave', endDrag); svg.addEventListener('touchstart', startDrag); svg.addEventListener('touchmove', drag); svg.addEventListener('touchend', endDrag); svg.addEventListener('touchleave', endDrag); svg.addEventListener('touchcancel', endDrag); var selectedElement, offset, transform, bbox, minX, maxX, minY, maxY;
			function getMousePosition(evt) { var CTM = svg.getScreenCTM(); if(evt.touches) { evt = evt.touches[0]; } return { x:(evt.clientX-CTM.e)/CTM.a, y:(evt.clientY-CTM.f)/CTM.d }; }
			function startDrag(evt) { if(evt.target.classList && evt.target.classList.contains('draggable')) { selectedElement = evt.target; initialiseDragging(evt); } else if(evt.target.parentNode) { if(evt.target.parentNode.classList && evt.target.parentNode.classList.contains('draggable')) { selectedElement = evt.target.parentNode; initialiseDragging(evt); } else if(evt.target.parentNode.parentNode && evt.target.parentNode.parentNode.classList && evt.target.parentNode.parentNode.classList.contains('draggable')) { selectedElement = evt.target.parentNode.parentNode; initialiseDragging(evt); } } }
			function initialiseDragging(evt) { offset = getMousePosition(evt); var transforms = selectedElement.transform.baseVal; if(transforms.length === 0 || transforms.getItem(0).type !== SVGTransform.SVG_TRANSFORM_TRANSLATE) { var translate = svg.createSVGTransform(); translate.setTranslate(0,0); selectedElement.transform.baseVal.insertItemBefore(translate,0); } transform = transforms.getItem(0); offset.x -= transform.matrix.e; offset.y -= transform.matrix.f; }
			function drag(evt) { if(selectedElement) { evt.preventDefault(); var coord = getMousePosition(evt); var dx = coord.x-offset.x; var dy = coord.y-offset.y; transform.setTranslate(dx, dy); } }
			function endDrag(evt) { selectedElement = false; }
		}
]]></script>
	<!-- 		debugging stuff:
		key = 20210506103211-73061
		min. ffffff = 
		max. ffffff = 
		colorize min = 
		colorize max = 
		colorize range = 0
		upper left (data) = 47.43718,8.47044
		lower right (data) = 47.34603,8.55786
		upper left (drawing) = 47.43718,8.47044
		lower right (drawing) = 47.34603,8.55786
		center = 47.391605,8.51415
		width,height (pixels) = 900,300
		width,height (degrees) = 0.0874199999999998,0.091149999999999
		scale = 95875, resolution = 33.82 m/pixel
		input form = https://www.gpsvisualizer.com/profile_input?format=svg&height=200&margin_right=20&margin_top=20&profile_y_max=900&profile_y_min=300&text_size=12&trk_colorize=custom&trk_colorize_custom=%23FFFFFF&trk_elevation_gain=1&trk_elevation_threshold=5&units=metric&width=800&add_elevation=auto
 -->
	<!-- 
	Generated using the Perl SVG Module V2.59
	by Ronan Oger
	Info: http://www.roitsystems.com/
 -->
</svg>