<?xml version="1.0" encoding="UTF-8" standalone="yes"?>
<!DOCTYPE svg PUBLIC "-//W3C//DTD SVG 1.0//EN" "http://www.w3.org/TR/2001/REC-SVG-20010904/DTD/svg10.dtd">
<svg height="360" onload="if(self.makeDraggable){makeDraggable(evt)}" width="1160" xmlns="http://www.w3.org/2000/svg" xmlns:svg="http://www.w3.org/2000/svg" xmlns:xlink="http://www.w3.org/1999/xlink">
	<g id="gridlines_y">
		<line fill="none" id="profile:gridline_y_0" stroke="#cccccc" stroke-width="1" x1="80" x2="1080" y1="280" y2="280" />
		<text fill="#000000" font-family="Verdana" font-size="11" id="profile:gridline_y_0_label" text-anchor="end" x="77.8" y="284.5">300 m</text>
		<line fill="none" id="profile:gridline_y_1" stroke="#cccccc" stroke-width="1" x1="80" x2="1080" y1="246" y2="246" />
		<text fill="#000000" font-family="Verdana" font-size="11" id="profile:gridline_y_1_label" text-anchor="end" x="77.8" y="250.5">400 m</text>
		<line fill="none" id="profile:gridline_y_2" stroke="#cccccc" stroke-width="1" x1="80" x2="1080" y1="213" y2="213" />
		<text fill="#000000" font-family="Verdana" font-size="11" id="profile:gridline_y_2_label" text-anchor="end" x="77.8" y="217.5">500 m</text>
		<line fill="none" id="profile:gridline_y_3" stroke="#cccccc" stroke-width="1" x1="80" x2="1080" y1="180" y2="180" />
		<text fill="#000000" font-family="Verdana" font-size="11" id="profile:gridline_y_3_label" text-anchor="end" x="77.8" y="184.5">600 m</text>
		<line fill="none" id="profile:gridline_y_4" stroke="#cccccc" stroke-width="1" x1="80" x2="1080" y1="146" y2="146" />
		<text fill="#000000" font-family="Verdana" font-size="11" id="profile:gridline_y_4_label" text-anchor="end" x="77.8" y="150.5">700 m</text>
		<line fill="none" id="profile:gridline_y_5" stroke="#cccccc" stroke-width="1" x1="80" x2="1080" y1="113" y2="113" />
		<text fill="#000000" font-family="Verdana" font-size="11" id="profile:gridline_y_5_label" text-anchor="end" x="77.8" y="117.5">800 m</text>
		<line fill="none" id="profile:gridline_y_6" stroke="#cccccc" stroke-width="1" x1="80" x2="1080" y1="80" y2="80" />
		<text fill="#000000" font-family="Verdana" font-size="11" id="profile:gridline_y_6_label" text-anchor="end" x="77.8" y="84.5">900 m</text>
	</g>
	<g id="gridlines_x">
		<line fill="none" id="profile:gridline_x_0_label" stroke="#cccccc" stroke-width="1" x1="80.5" x2="80.5" y1="80" y2="280" />
		<text fill="#000000" font-family="Verdana" font-size="11" id="x label 0" text-anchor="end" transform="rotate(-90,86,283.666666666667)" x="86" y="283.666666666667">0 km</text>
		<line fill="none" id="profile:gridline_x_1_label" stroke="#cccccc" stroke-width="1" x1="287.531249812575" x2="287.531249812575" y1="80" y2="280" />
		<text fill="#000000" font-family="Verdana" font-size="11" id="x label 1" text-anchor="end" transform="rotate(-90,293.031249812575,283.666666666667)" x="293.031249812575" y="283.666666666667">10 km</text>
		<line fill="none" id="profile:gridline_x_2_label" stroke="#cccccc" stroke-width="1" x1="494.562499625151" x2="494.562499625151" y1="80" y2="280" />
		<text fill="#000000" font-family="Verdana" font-size="11" id="x label 2" text-anchor="end" transform="rotate(-90,500.062499625151,283.666666666667)" x="500.062499625151" y="283.666666666667">20 km</text>
		<line fill="none" id="profile:gridline_x_3_label" stroke="#cccccc" stroke-width="1" x1="701.593749437726" x2="701.593749437726" y1="80" y2="280" />
		<text fill="#000000" font-family="Verdana" font-size="11" id="x label 3" text-anchor="end" transform="rotate(-90,707.093749437726,283.666666666667)" x="707.093749437726" y="283.666666666667">30 km</text>
		<line fill="none" id="profile:gridline_x_4_label" stroke="#cccccc" stroke-width="1" x1="908.624999250301" x2="908.624999250301" y1="80" y2="280" />
		<text fill="#000000" font-family="Verdana" font-size="11" id="x label 4" text-anchor="end" transform="rotate(-90,914.124999250301,283.666666666667)" x="914.124999250301" y="283.666666666667">40 km</text>
		<line fill="none" id="profile:gridline_x_5_label" stroke="#cccccc" stroke-width="1" x1="1080.5" x2="1080.5" y1="80" y2="280" />
		<text class="draggable" fill="#000000" font-family="Verdana" font-size="11" id="x label 5" text-anchor="end" transform="rotate(-90,1086,283.666666666667)" x="1086" y="283.666666666667">48.302 km</text>
	</g>
	<g clip-path="url(#profile:drawing_boundary)" id="profile:track_area">
		<g id="trk1:Teil1" opacity="1">
			<polyline fill="none" id="trk1:p3715" points="80,230.093 81.288,230 81.71,230 82.695,230.089 83.265,230.013 83.427,230.031 83.591,230.022 84.068,230.013 84.554,230.304 84.894,230.284 85.155,230.328 85.271,230.554 85.43,230.854 85.507,230.936 85.659,231.266 85.849,231.712 86.177,231.996 86.39,232.14 86.531,232.236 86.764,231.601 86.93,231.216 87.124,231.163 87.378,231.396 87.724,231.388 87.929,231.241 88.045,230.894 88.17,230.866 88.357,230.824 88.754,230.814 89.161,230.861 89.339,230.835 89.487,230.774 89.564,230.732 89.63,230.704 89.697,230.675 89.882,230.616 90.276,230.604 90.496,230.664 90.75,230.667 90.939,230.667 91.101,230.667 91.279,230.697 91.427,230.74 91.539,230.778 91.657,230.808 91.826,230.856 92.15,230.93 92.654,230.964 93.999,231 94.671,231 94.814,231.017 94.999,231.053 95.194,231.151 95.786,231.591 96.148,231.727 96.305,231.831 96.434,231.934 96.473,231.969 96.538,232.029 96.67,232.08 96.929,232.188 97.068,232.248 97.394,232.285 97.477,232.249 97.505,232.237 97.536,232.213 97.575,232.189 97.979,231.969 98.326,231.942 98.456,231.983 98.56,232 98.703,232 99.078,232.072 99.211,232.132 99.301,232.186 99.398,232.205 99.9,232.229 100.056,232.229 100.229,232.234 101.098,232.08 101.165,232.14 101.231,232.2 101.413,232.5 101.555,232.68 101.594,232.74 101.866,232.744 102.441,232.494 102.479,232.517 102.584,232.551 102.711,232.58 102.763,232.616 102.826,232.604 102.872,232.596 102.939,232.623 103.107,232.731 103.185,232.776 103.873,232.839 104.689,233.317 104.934,233.272 105.182,233.251 105.599,233.337 105.732,233.372 105.977,233.355 106.419,233.312 106.576,233.312 106.718,233.311 106.889,233.312 107.549,233.17 107.68,233.186 109.398,233.376 110.179,233.493 112.805,232.909 113.084,232.756 113.216,232.64 113.487,232.29 113.941,231.98 114.006,231.867 114.082,231.657 114.11,231.581 114.156,231.463 114.179,231.404 114.225,231.287 114.248,231.228 115.594,231.461 115.873,231.333 115.939,231.333 116.009,231.333 116.058,231.333 116.129,231.333 116.175,231.333 116.268,231.333 116.427,231.281 116.647,231.285 116.74,231.285 117.437,232.081 117.844,232.349 117.953,232.376 117.984,232.384 118.047,232.399 118.094,232.411 118.146,232.413 118.195,232.396 118.787,231.67 119.13,231.051 119.22,230.956 119.287,230.872 119.399,230.716 119.58,230.428 119.95,229.935 120.055,229.926 120.197,229.832 120.353,229.659 120.463,229.538 120.544,229.311 120.622,229.103 120.712,228.93 120.796,228.619 120.899,228.59 121.01,228.558 121.335,228.232 121.666,228.33 121.927,228.665 122.046,228.778 122.304,229.083 122.579,229.294 122.691,229.292 122.885,229.152 122.966,229.054 122.982,229.03 123.279,228.62 123.497,228.453 124.093,227.686 124.297,227.526 124.517,227.341 124.628,227.447 124.71,227.521 125.05,227.427 125.181,227.673 125.312,227.96 125.396,228.082 125.472,228.23 125.547,228.404 125.764,228.725 126.029,228.996 126.359,229.538 126.435,229.625 126.528,229.774 126.621,229.892 126.791,230.057 127.193,230.535 127.44,230.731 127.753,230.875 128,231.092 128.105,231.232 128.29,231.48 128.571,231.76 129.142,232.288 129.208,232.384 129.498,232.673 129.886,232.808 130.11,232.932 130.258,232.983 130.417,233 131.315,233 131.363,233 131.46,233 131.554,233 131.669,233 131.826,233 131.93,233 131.986,233 132.208,233.179 132.532,233.371 132.885,233.382 133.293,233.618 133.71,233.667 134.007,233.667 134.063,233.667 134.26,233.667 134.418,233.667 134.561,233.667 134.786,233.667 135.096,233.561 135.2,233.5 135.486,233.339 135.838,233.237 136.32,233.017 136.514,232.995 136.722,232.942 138.557,232.782 138.843,232.658 138.974,232.651 139.129,232.666 139.352,232.76 139.53,232.808 139.723,232.856 140.639,232.833 144.732,232.723 145.744,232.721 146.073,232.961 146.308,233.165 146.589,233.197 146.794,233.173 146.952,233.149 147.283,233.101 147.521,233.053 147.633,233.149 147.698,233.197 147.726,233.221 147.765,233.244 147.804,233.266 148.387,233.307 148.517,233.278 148.685,233.268 148.724,233.271 148.762,233.276 148.801,233.283 148.817,233.281 148.845,233.292 148.91,233.316 149.004,233.347 149.042,233.354 149.098,233.365 149.137,233.368 149.192,233.374 149.248,233.376 149.276,233.376 149.324,233.379 149.363,233.37 149.412,233.369 149.46,233.366 149.509,233.361 149.555,233.364 149.601,233.367 149.693,233.373 149.762,233.369 150.201,233.347 150.662,233.333 150.986,233.332 151.287,233.239 151.357,233.211 151.673,233.219 152.442,233.079 153.086,233.097 153.167,233.057 153.323,233 153.465,233 153.577,233 153.654,233 153.759,233 153.875,233.003 154.405,233.255 154.91,233.336 155.401,233.531 155.907,233.663 156.439,233.667 156.698,233.667 156.921,233.667 157.012,233.667 157.089,233.667 157.206,233.667 157.337,233.705 157.415,233.736 157.481,233.749 157.585,233.773 157.676,233.797 157.767,233.821 157.848,233.833 157.953,233.87 158.399,234.008 158.798,234.275 159.362,234 160.809,234.112 161.269,234.185 161.938,234.019 163.172,234.288 164.054,234.333 165.615,234.333 165.838,234.333 166.454,234.312 167.019,234.285 167.375,234.177 167.465,234.195 167.547,234.207 167.651,234.231 167.78,234.267 167.897,234.303 168.091,234.344 168.156,234.359 168.234,234.381 168.365,234.438 169.79,234.213 170.184,234.141 170.69,234.056 170.824,234 171.018,233.947 171.308,233.596 171.493,233.52 171.678,233.477 171.717,233.456 171.756,233.439 171.784,233.412 171.799,233.426 171.822,233.388 171.845,233.35 171.861,233.335 171.884,233.296 171.907,233.257 171.923,233.24 171.938,233.224 171.977,233.149 172.055,233.062 172.086,233.027 172.244,232.796 172.447,232.532 172.486,232.424 172.605,232.137 172.709,231.815 172.923,232.068 173.619,233.079 173.75,233.139 174.514,233.122 174.56,233.091 174.576,233.084 174.599,233.068 174.638,233.037 174.693,232.987 174.732,232.951 175.036,232.77 175.302,233.015 175.421,233.195 175.554,233.387 175.62,233.519 175.651,233.543 175.674,233.591 175.702,233.651 175.725,233.699 175.773,233.783 175.801,233.819 175.817,233.807 175.845,233.843 176.16,233.699 176.16,233.699 176.39,233.675 176.782,233.891 176.969,234.05 177.271,234.197 177.481,234.318 177.832,234.104 178.022,234.021 178.398,234.052 178.891,234.207 179.454,234.29 179.644,234.231 179.785,234.164 179.975,234.068 180.143,234 180.311,234 180.408,234 180.666,234 181.068,234 181.23,234 181.279,234 181.418,234 181.82,233.955 182.319,233.964 182.461,234.023 182.661,234.154 182.792,234.249 182.987,234.23 183.209,234.157 184.507,234.28 184.683,234.242 185.732,234.333 186.484,234.337 186.661,234.396 186.819,234.513 187.006,234.587 187.192,234.464 187.686,234.292 188.154,234.333 188.516,234.26 188.633,234.263 188.766,234.271 188.937,234.307 189.115,234.331 189.233,234.331 189.33,234.322 189.503,234.301 189.692,234.31 189.974,234.421 190.152,234.387 190.341,234.351 190.437,234.315 190.715,234.613 190.873,234.589 190.92,234.589 191.327,234.524 191.631,234.355 192.253,234.484 193.821,234.553 195.383,234.667 195.703,234.667 196.22,234.932 197.392,234.786 203.49,234.979 203.912,235 205.446,235 206.164,235 207.368,235 209.075,235.171 214.507,235.14 214.831,234.977 214.973,234.924 215.019,234.906 215.203,234.842 215.355,234.832 215.466,234.852 215.587,234.875 215.653,234.885 215.757,234.885 216.688,234.144 217.369,233.508 217.601,233.25 217.786,233.059 217.928,232.916 217.998,232.84 218.14,232.682 218.278,232.452 218.394,232.26 218.546,232.055 218.863,231.635 219.169,231.107 219.308,230.867 219.568,230.5 219.827,230.271 220.323,229.767 220.407,229.681 220.574,229.465 220.742,229.093 221.008,228.652 221.074,228.52 221.304,228.059 221.4,227.904 221.447,227.868 221.538,227.688 221.577,227.604 221.624,227.568 221.939,227.103 221.986,227.031 222.105,226.743 222.263,226.455 222.315,226.359 222.523,226.083 222.839,225.689 223.078,225.315 223.093,225.298 223.345,224.896 223.582,224.572 223.868,224.052 224.088,223.6 224.336,223.323 224.571,223.071 224.792,222.747 225.058,222.561 225.381,222.393 225.75,222.465 226.005,222.597 226.24,222.743 226.653,222.926 226.756,222.957 226.895,223.021 227.095,223.159 227.247,223.286 227.433,223.474 227.703,223.863 227.814,224.055 227.87,224.151 228.122,224.571 228.527,225.196 229.311,226.208 229.535,226.491 229.629,226.609 229.777,226.732 230.032,226.775 230.244,226.736 230.57,226.7 230.915,226.567 231.193,226.303 231.511,226.272 231.807,226.157 232.185,225.716 232.828,225.373 233.199,225.299 233.227,225.325 233.553,225.49 233.643,225.543 233.674,225.576 233.883,225.699 234.013,225.737 234.375,225.888 234.84,226.061 235.241,226.088 236.2,226.333 236.64,226.55 236.873,226.637 237.172,226.619 237.562,226.68 237.785,226.823 237.876,226.895 238.142,227.039 238.468,226.999 238.646,226.939 238.881,226.957 238.944,226.957 239.048,226.849 239.302,226.849 239.443,226.909 239.601,226.953 239.694,226.995 239.761,227.005 239.813,227.01 239.879,227.002 239.944,226.998 240.186,227.048 240.317,227.143 240.703,227.616 241.306,228.575 241.992,229.764 242.123,229.932 242.215,230.028 242.312,230.1 242.41,230.161 242.465,230.183 242.531,230.2 243.392,230.388 243.886,230.475 245.876,230.316 246.034,230.292 246.349,230.42 246.518,230.468 247.099,230.667 247.799,230.957 248.824,231.492 249.393,231.724 250.002,231.836 250.281,231.826 250.615,231.88 250.87,231.857 251.077,231.807 251.267,231.756 251.428,231.726 251.589,231.707 252.372,231.551 253.167,231.303 253.427,231.398 253.539,231.387 253.744,231.35 253.862,231.35 254.055,231.43 254.279,231.501 254.375,231.528 254.487,231.567 254.565,231.585 254.603,231.597 254.642,231.611 254.708,231.634 254.875,231.575 254.946,231.554 255.396,231.591 255.568,231.511 255.679,231.615 255.894,231.667 256.005,231.667 256.191,231.667 256.378,231.667 257.62,231.116 257.713,231.038 257.796,230.958 257.862,230.891 258.295,230.432 258.673,230.074 258.963,229.644 259.38,229.361 259.759,229.16 260.006,228.867 260.176,228.771 260.253,228.723 260.405,228.675 260.567,228.687 260.637,228.699 260.707,228.699 260.848,228.713 260.987,228.708 261.033,228.703 261.082,228.693 261.151,228.687 261.227,228.675 261.351,228.662 261.482,228.615 261.521,228.591 261.548,228.579 261.572,228.579 261.594,228.579 262.478,227.995 263.018,227.42 263.049,227.396 263.13,227.324 263.508,226.988 263.695,227.024 263.761,226.969 263.792,226.942 263.831,226.911 263.878,226.869 264.132,226.662 264.244,226.587 264.757,226.203 265.324,225.995 265.4,225.975 265.483,225.94 265.576,225.885 266.346,225.999 266.726,226.233 267.29,226.387 268.046,226.624 268.227,226.749 269.794,227.053 270.22,226.89 271.062,227.045 271.23,226.921 271.955,227.191 272.072,227.177 272.286,226.928 272.383,226.751 272.452,226.621 272.521,226.492 272.59,226.362 272.646,226.319 272.749,226.238 272.86,226.22 273.575,225.691 274.335,225.03 274.502,225.041 274.613,224.906 274.737,224.704 274.868,224.484 275.76,223.129 275.928,222.894 276.048,222.617 276.323,222.124 276.669,221.851 276.855,222.002 277.062,222.099 277.138,222.121 277.876,221.871 278.062,221.768 278.566,221.715 278.669,221.726 278.826,221.483 279.533,220.197 279.702,219.885 280.391,218.613 282.044,215.409 282.356,214.515 282.403,214.392 282.496,214.207 282.545,214.153 282.615,214.053 282.661,213.9 282.707,213.738 282.756,213.639 282.827,213.448 282.903,213.299 283,213.038 283.097,212.749 283.18,212.561 283.196,212.592 283.351,211.983 283.456,211.677 283.612,211.437 283.737,211.245 283.976,210.987 284.361,210.336 284.598,210.025 284.692,209.634 284.925,208.761 285.016,208.403 285.323,207.479 285.565,206.935 285.825,206.44 286.058,206.176 286.357,205.864 286.588,205.612 286.808,205.6 286.99,205.588 287.562,205.339 288.044,205.289 288.318,205.337 288.817,205.226 289.222,205.298 289.25,205.288 289.799,205.281 290.068,205.325 290.486,204.988 290.903,205.064 291.32,205.424 291.459,205.544 293.32,206.351 293.748,206.565 293.797,206.566 294.149,207.134 294.622,207.692 296.513,208.886 297.065,208.645 297.341,208.387 297.731,208.771 299.622,210.281 301.268,210.298 301.908,210.324 302.495,210.228 302.813,210.007 303.575,210.295 303.645,210.321 304.207,210.439 304.393,210.477 304.469,210.442 306.119,210.268 306.429,210.242 306.468,210.267 306.746,210.286 307.283,210.167 307.894,210.254 308.185,210.173 308.951,210.063 309.044,210.089 310.299,209.964 311.023,209.876 311.352,209.454 311.571,209.23 311.821,208.983 312.447,208.339 312.859,207.659 313.261,206.935 313.81,205.934 314.084,205.513 314.215,205.285 314.539,204.761 314.921,204.327 315.287,204.068 315.753,203.81 316.73,202.993 317.156,202.741 317.392,202.484 317.513,202.32 317.789,201.923 317.935,201.745 318.142,201.528 318.281,201.395 318.329,201.359 318.378,201.277 318.461,201.169 318.697,200.965 321.092,199.664 322.879,199.129 323.14,198.952 323.269,199.012 323.399,199.072 323.643,199.012 324.065,198.793 324.651,198.507 325.149,198.355 325.23,198.372 325.49,198.489 325.8,198.692 326.829,198.216 327.577,198.063 327.782,197.983 328.175,198.075 328.619,197.845 329.027,197.713 329.093,197.667 329.313,197.872 329.44,197.933 329.865,198.161 330.194,198.187 330.729,198.085 331.063,197.982 331.581,198.198 332.189,197.504 332.448,197.594 332.624,197.888 332.787,197.627 333.32,197.32 333.912,197.323 333.964,197.231 334.08,197.151 334.461,197.901 335.195,198.186 335.483,198.404 335.817,198.607 335.855,198.548 336.189,198.773 336.338,199.122 336.644,199.618 336.934,199.663 337.027,199.754 337.299,199.831 337.522,199.817 337.797,199.958 337.916,200.029 338.195,200.697 338.44,200.539 338.517,200.587 338.569,200.383 338.597,200.251 338.649,200.239 339.331,199.915 339.428,199.492 339.474,199.287 339.636,198.546 339.675,198.421 339.714,198.306 339.766,198.17 339.813,198.102 339.86,198.033 339.907,197.965 339.954,197.897 340.006,197.891 340.452,198.295 340.837,198.469 341.127,198.463 341.204,198.461 341.257,198.415 341.748,197.331 341.803,197.237 341.879,197.113 342.301,196.511 342.324,196.481 342.821,195.973 342.892,195.9 342.919,195.868 342.958,195.826 342.997,195.783 343.049,195.728 343.116,195.661 343.37,195.433 343.452,195.397 343.563,195.361 343.884,195.259 343.98,195.281 344.158,195.327 344.24,195.35 344.318,195.459 344.451,195.555 344.563,195.675 344.726,195.8 344.859,195.75 345.14,195.7 345.636,196.048 346.179,196.354 346.686,196.986 347.243,197.652 347.711,197.886 348.099,198.032 348.358,197.974 348.63,197.928 348.786,198.001 348.942,198.013 349.187,197.737 349.33,197.533 349.551,197.413 349.771,197.509 349.876,197.533 349.891,197.581 349.947,197.533 350.078,197.707 350.237,197.899 350.659,198.424 350.775,198.549 350.868,198.593 350.959,198.723 351.145,198.987 351.478,199.715 351.545,199.871 351.664,200.147 351.849,200.539 351.992,200.784 352.147,200.978 352.302,201.227 352.445,201.443 352.562,201.576 352.72,201.639 352.852,201.748 353.019,201.819 353.178,201.954 353.309,202.133 353.568,202.332 353.793,202.5 353.969,202.558 354.211,202.608 354.446,202.704 354.802,202.82 354.988,202.955 355.158,203.147 355.214,203.195 355.345,203.339 355.532,203.531 355.801,203.815 356.349,204.511 356.507,204.703 356.865,205.111 357.052,205.328 357.211,205.527 357.294,205.603 357.53,205.788 357.688,205.817 357.8,205.817 357.911,205.817 358.014,205.805 358.092,205.845 358.208,205.917 358.275,205.965 358.327,206 358.418,206.018 358.522,206.05 358.743,206.133 358.771,206.135 359.533,205.993 360.073,206.034 360.193,206.075 360.259,206.133 360.723,206.669 360.974,206.734 361.168,206.833 361.325,206.889 361.534,206.882 361.731,206.908 361.862,206.951 362.056,207.065 362.188,207.159 362.253,207.214 362.435,207.399 362.578,207.61 362.799,208.236 362.985,208.953 363.205,209.315 363.438,209.397 363.775,209.959 363.827,210.099 364.009,210.62 364.113,210.834 364.197,210.941 364.373,211.076 364.504,211.194 364.601,211.294 364.721,211.432 364.911,211.795 365.143,212.273 365.523,213.097 365.599,213.175 365.762,213.463 365.81,213.502 366.08,214.019 366.256,214.615 366.498,215.013 366.777,215.366 367.139,216.369 367.391,217.096 367.512,217.371 367.682,217.688 367.918,218.067 368.165,218.603 368.4,219.261 368.582,219.695 368.648,219.833 368.764,220.052 368.881,220.267 368.971,220.435 369.053,220.579 369.134,220.723 369.197,220.819 369.244,220.891 369.353,221.127 369.62,221.673 369.701,221.795 369.89,222.009 370.383,222.399 370.572,222.568 370.746,222.796 370.913,223.12 370.995,223.204 371.23,223.449 371.469,223.557 371.693,223.694 371.835,223.821 371.976,223.981 372.169,224.136 372.273,224.263 372.366,224.393 372.57,224.679 372.84,224.85 372.989,224.971 373.147,225.129 373.286,225.291 373.406,225.375 373.57,225.48 373.732,225.573 373.989,225.742 374.276,225.893 374.476,225.968 374.639,225.989 374.975,226.087 375.139,226.136 375.188,226.14 375.327,226.152 375.442,226.169 375.558,226.233 375.685,226.116 375.841,226.09 375.997,226.276 376.178,226.695 376.322,227.054 376.491,227.519 376.661,227.882 377.127,228.637 377.295,229.077 377.379,229.045 377.715,229.871 377.808,230.068 377.995,230.48 378.222,230.984 378.487,231.572 378.742,232.278 378.825,232.538 378.853,232.628 378.876,232.697 378.892,232.72 378.907,232.744 378.938,232.791 379.005,232.809 379.087,232.843 379.118,232.887 379.165,232.952 379.18,232.983 379.196,233.014 379.212,233.045 379.235,233.128 379.283,233.323 379.545,234.35 379.8,235.236 379.979,235.863 380.358,237.14 381.034,239.656 381.25,240.552 381.736,242.565 381.785,242.679 381.931,243.009 382.002,243.159 382.072,243.272 382.428,243.509 383.165,244.367 383.55,244.451 383.718,244.853 383.938,245.013 384,245.013 384.112,244.965 384.209,245.013 384.327,245.15 384.432,245.349 384.523,245.541 384.594,245.722 384.687,245.96 384.811,246.302 385.001,246.677 386.234,247.298 386.424,247.163 386.592,247.065 387.118,247 387.28,247 387.377,247 387.518,247.001 387.921,247.082 388.707,247.325 389.229,247.313 389.75,247.259 391.438,247.147 391.911,247.146 392.671,247.328 393.379,247.169 394.091,247.187 395.134,247.368 395.589,247.393 396.017,247.345 396.632,247.333 397.199,247.431 397.437,247.4 397.649,247.24 398.078,247.027 398.246,247.046 398.555,247.031 398.626,247.019 399.054,246.888 399.148,246.849 399.435,246.729 399.528,246.759 399.745,246.851 399.886,246.923 400.05,247 400.714,247 401.358,247 401.832,247.019 402.163,246.863 402.521,246.697 402.733,246.72 403.851,246.667 404.369,246.889 404.608,246.989 405.062,246.994 405.748,246.78 405.867,246.72 406.031,246.697 406.221,246.793 406.27,246.817 406.412,246.889 406.673,247 407.172,247 407.288,247 407.43,247 407.523,247 407.642,247 407.761,247 408.601,246.028 409.409,246.503 409.644,246.467 409.953,246.404 410.488,246.344 410.656,246.333 411.177,246.333 411.367,246.333 411.465,246.333 411.632,246.333 411.845,246.333 411.964,246.302 412.15,246.163 412.914,245.83 413.392,245.619 413.935,245.343 414.238,245.333 414.618,245.333 414.835,245.333 414.954,245.333 415.161,245.291 415.744,245.048 416.306,245 418.099,244.811 419.449,244.667 419.767,244.667 420.01,244.667 420.745,244.664 420.918,244.637 421.209,244.639 422.16,244.533 422.436,244.617 422.582,244.653 423.079,244.536 424.034,244.333 424.823,244.266 425.984,243.947 426.136,243.974 426.202,243.997 426.987,243.952 427.135,244 427.573,244 427.958,244.03 429.314,243.422 429.39,243.373 429.585,243.333 429.779,243.333 430.062,243.333 430.551,243.133 431.027,242.941 431.65,242.68 431.905,242.707 432.135,242.73 432.391,242.776 433.042,242.959 433.37,242.889 433.696,242.835 434.064,242.71 434.627,242.451 434.8,242.367 436.071,241.775 436.9,241.858 437.186,241.943 437.283,241.87 437.534,241.848 437.974,241.63 438.051,241.511 438.067,241.485 438.095,241.449 438.15,241.376 438.234,241.26 438.286,241.172 438.338,241.124 438.385,241.088 438.448,241.04 438.683,240.872 438.811,240.747 439.375,240.274 439.533,240.242 439.972,240.02 441.29,239.312 442.074,238.735 442.905,238.143 443.183,237.999 444.174,237.483 444.359,237.387 444.521,237.314 444.689,237.274 446.5,237.103 446.881,237.058 447.071,237.004 447.222,236.988 448.541,236.921 448.72,236.798 448.99,236.681 449.79,236.699 450.266,236.376 450.914,236.175 451.096,236.196 451.85,235.847 452.959,235.023 453.245,234.891 453.492,234.684 453.991,234.24 454.146,234.096 454.355,233.904 454.68,233.604 454.927,233.397 455.082,233.328 455.199,233.313 455.354,233.293 455.509,233.005 455.665,232.717 455.758,232.549 455.878,232.333 456.018,232.151 456.083,232.095 456.149,232.05 456.227,232.014 456.386,231.885 456.452,231.839 456.505,231.791 456.557,231.701 456.623,231.583 456.69,231.469 456.757,231.359 457.056,230.896 457.263,230.701 457.309,230.691 457.337,230.681 457.36,230.677 458.101,229.335 458.185,229.173 458.276,229.027 458.366,228.883 458.729,228.604 458.963,228.161 459.705,226.88 459.875,226.657 459.986,226.401 460.296,225.575 460.475,225.197 460.498,225.143 460.614,224.869 460.776,224.482 461.053,223.844 461.262,223.322 461.501,222.682 461.735,222.133 462.322,221.797 463.56,220.59 464.126,220.044 464.203,219.964 464.27,219.953 464.401,219.628 464.906,219.168 464.971,219.063 465.065,218.903 465.103,218.87 466.032,216.722 466.339,215.894 467.069,215.015 467.186,215.026 467.383,214.96 467.642,214.687 467.681,214.675 467.709,214.639 467.755,214.519 467.801,214.399 468.17,213.481 468.584,212.7 468.862,212.105 468.956,211.902 469.053,211.668 469.129,211.484 469.195,211.31 469.261,211.144 469.313,211.018 469.376,210.889 469.454,210.73 469.689,210.251 469.847,209.959 469.941,209.743 470.066,209.455 470.094,209.383 470.109,209.347 470.148,209.239 470.214,209.059 470.26,208.987 470.33,208.843 470.401,208.68 470.424,208.631 470.495,208.45 470.518,208.402 470.546,208.32 470.592,208.224 470.615,208.176 470.631,208.207 470.659,208.19 470.69,208.252 470.729,208.263 470.819,208.311 470.872,208.346 470.899,208.32 470.927,208.294 470.976,208.212 471.024,208.127 471.052,208.098 471.098,207.985 471.121,207.929 471.149,207.897 471.188,207.889 471.255,207.941 471.345,207.998 471.906,208.689 471.959,208.749 472.014,208.773 472.042,208.785 472.058,208.809 472.085,208.821 472.134,208.821 472.238,208.941 472.799,209.251 473.385,210.129 473.591,209.695 473.798,209.328 473.864,209.232 473.981,209.052 474.266,208.536 474.448,208.153 474.575,207.875 474.757,207.243 474.96,206.504 475.103,206.011 475.245,205.672 475.521,205.095 475.857,204.582 475.95,204.625 476.855,203.337 476.945,203.194 477.075,203.056 477.179,202.962 477.313,202.716 477.476,202.372 477.572,202.159 477.729,201.607 477.84,201.333 477.903,201.107 477.994,201.082 478.203,200.866 478.45,200.353 479.049,199.087 479.684,198.19 480.022,197.713 480.075,197.622 480.141,197.539 480.188,197.467 480.24,197.443 480.287,197.371 480.339,197.251 480.386,197.179 480.453,197.035 480.492,196.939 480.57,196.747 480.608,196.626 480.664,196.449 480.85,195.814 480.934,195.524 481.309,194.61 481.497,194.232 481.685,193.768 481.889,193.282 482.098,192.831 482.179,192.648 482.231,192.576 482.343,192.295 482.486,191.923 482.579,191.635 482.722,191.299 483.023,190.475 483.297,189.983 483.521,189.243 483.834,188.029 484.041,187.565 484.261,186.932 484.352,186.659 484.74,185.759 485.092,184.478 485.208,184.11 485.367,183.415 485.484,183.018 485.549,182.778 485.633,182.364 485.736,181.769 486.012,180.175 486.269,178.891 486.345,178.555 486.368,178.435 486.444,178.099 486.565,177.757 486.669,177.664 486.818,177.744 486.911,177.77 487.022,177.713 487.312,177.402 487.451,177.418 487.507,177.447 487.59,177.459 487.695,177.514 487.837,177.61 487.994,177.257 488.137,176.838 488.269,176.551 488.496,176.246 488.731,176.034 488.87,175.912 488.986,175.816 489.333,175.586 489.563,175.428 489.748,175.201 490.327,173.942 490.489,173.857 490.581,173.785 490.696,173.695 490.904,173.536 491.091,173.479 491.291,173.461 491.68,173.312 492.112,172.85 492.232,172.744 492.28,172.703 492.364,172.667 492.447,172.667 492.531,172.667 492.622,172.667 492.699,172.655 492.781,172.595 492.833,172.559 492.914,172.499 493.086,172.367 494.216,171.604 494.491,171.384 494.584,171.384 494.88,171.311 495.085,171.299 495.336,171.287 495.541,171.166 495.666,171.08 495.844,170.959 495.941,170.888 496.216,170.816 496.708,170.616 496.865,170.515 497.046,170.467 497.518,170.426 499.19,169.571 499.411,169.428 499.971,169.17 500.18,168.984 500.491,168.923 500.995,168.609 501.689,168.426 501.909,168.37 502.208,168.236 502.506,167.984 502.778,167.719 502.935,167.565 503.016,167.498 503.143,167.412 503.271,167.318 503.49,167.237 503.917,167.139 504.027,167.055 504.247,166.999 504.529,166.917 504.92,166.827 505.749,166.827 506.422,166.869 506.596,166.886 506.8,166.971 506.989,167.05 507.123,166.963 507.316,166.915 507.355,166.843 507.636,166.675 508.169,166.285 509.015,165.761 509.163,165.809 509.387,165.977 510.332,165.937 510.541,165.811 510.666,165.821 511.167,165.767 511.794,165.617 512.139,165.47 512.374,165.38 512.467,165.345 512.655,165.141 512.671,165.123 513.567,164.347 513.771,164.16 513.899,164.077 513.992,163.933 514.371,163.782 514.591,163.874 514.638,163.871 514.716,163.835 514.732,163.824 514.872,163.724 516.359,162.679 516.39,162.679 516.421,162.691 516.784,162.683 516.799,162.695 516.815,162.707 516.927,162.722 517.12,162.782 517.633,162.233 518.008,161.585 518.267,161.197 518.503,161.15 518.689,160.97 518.828,160.942 518.904,160.865 519.035,160.812 519.387,160.223 519.663,159.719 519.686,159.635 519.948,159.315 520.041,159.376 520.069,159.378 520.2,159.243 520.359,159.044 520.726,158.777 520.856,158.684 521.064,158.56 521.194,158.565 521.389,158.475 521.501,158.436 521.641,158.413 521.738,158.337 521.801,158.229 521.912,158.07 522.081,158.007 522.185,158.042 522.394,157.884 522.58,157.955 522.789,158.223 522.851,158.157 522.948,158.157 523.09,157.91 523.184,157.811 523.278,157.78 523.411,157.62 523.541,157.354 523.67,157.159 523.819,156.926 523.989,156.775 524.203,156.576 524.4,156.455 524.531,156.294 524.838,155.832 525.074,155.614 525.269,155.37 525.436,155.296 525.533,155.237 525.648,155.098 526.519,153.968 526.93,153.224 527.046,153.008 527.255,152.624 527.333,152.48 527.501,152.168 528.202,150.473 529.216,147.855 529.829,146.036 530.247,144.921 530.338,144.652 530.486,144.2 530.538,144.034 530.569,143.977 530.616,143.905 530.655,143.893 530.889,143.401 531.001,143.172 531.152,142.872 531.25,142.68 531.325,142.516 531.348,142.481 531.465,142.273 531.535,142.132 531.604,142.024 531.719,141.788 532.573,140.121 532.943,139.515 533.173,139.155 533.335,138.939 533.404,138.831 533.681,138.431 533.796,138.307 533.824,138.24 533.965,138 534.673,137.029 534.701,136.981 535.479,136.409 535.62,136.328 535.784,136.251 535.899,136.28 535.945,136.291 536.039,136.366 536.246,136.299 536.293,136.155 536.616,135.243 536.899,134.655 537.016,134.523 537.109,134.427 537.418,134.199 537.464,134.127 537.725,133.9 537.864,133.711 537.933,133.594 538.141,133.281 538.303,133.054 538.488,132.81 538.603,132.678 538.695,132.572 539.043,132.143 539.487,131.552 539.974,130.832 540.319,130.188 540.726,129.512 541.299,128.495 541.419,128.308 541.531,128.126 541.622,128.044 541.703,128.032 541.77,128.008 541.848,128.041 541.96,127.9 542.085,127.821 542.36,127.83 542.391,127.809 542.443,127.829 542.568,127.739 542.621,127.664 542.673,127.594 542.725,127.53 542.764,127.487 542.857,127.363 542.941,127.234 542.989,127.149 543.038,127.062 543.199,126.778 543.222,126.737 543.245,126.697 543.291,126.615 543.347,126.554 543.444,126.267 543.522,126.181 543.588,126.143 543.679,125.96 543.761,125.852 543.87,125.799 543.975,125.63 544.041,125.544 544.146,125.384 544.392,124.888 544.56,124.541 544.703,124.44 544.858,124.392 544.907,124.296 545.011,124.236 545.243,124.02 545.515,123.216 546.317,120.969 546.333,120.96 546.566,120.587 546.605,120.527 546.632,120.467 546.681,120.347 546.73,120.215 546.753,120.148 546.877,119.805 546.974,119.523 547.058,119.297 547.162,119.024 547.589,117.221 547.774,116.692 548.172,115.655 548.426,114.712 548.6,114.111 548.662,113.937 548.753,113.704 548.872,113.396 549.662,112.087 550.076,111.098 550.491,110.253 550.676,109.908 551.194,109.323 551.545,109.165 551.572,109.237 552.416,108.071 552.81,107.067 552.926,106.571 553.75,102.45 554.6,98.663 554.989,98.242 555.399,98.061 555.572,97.877 557.529,95.228 558.178,95.026 558.57,94.717 558.757,94.645 558.78,94.633 558.987,94.525 559.106,94.413 559.172,94.329 559.2,94.293 559.311,94.149 559.408,94.029 559.686,93.781 559.944,93.653 560.249,93.463 560.411,93.208 560.509,92.901 560.536,92.847 560.564,92.787 560.603,92.774 560.642,92.75 560.708,92.628 560.889,92.379 560.945,92.467 560.994,92.368 561.069,92.334 561.325,91.638 561.511,91.344 561.679,90.994 561.866,90.46 561.881,90.485 562.058,90.867 562.244,91.738 562.439,92.389 562.61,92.566 562.707,92.4 562.803,92.183 563.115,91.772 563.115,91.772 563.426,92.183 563.522,92.4 563.619,92.566 563.79,92.389 563.985,91.738 564.171,90.867 564.348,90.485 564.363,90.46 564.55,90.994 564.718,91.344 564.904,91.638 565.159,92.334 565.235,92.368 565.284,92.467 565.34,92.379 565.521,92.628 565.587,92.75 565.626,92.774 565.665,92.787 565.693,92.847 565.721,92.901 565.818,93.208 565.98,93.463 566.285,93.653 566.543,93.781 566.713,93.933 566.779,94.017 566.908,94.173 567.027,94.209 567.16,94.519 567.242,94.858 567.323,95.215 567.42,95.664 567.562,96.323 567.721,96.826 567.863,97.252 567.993,97.433 568.136,97.806 568.183,98.014 568.5,97.683 568.621,97.68 568.705,97.778 568.802,98.006 568.921,98.287 569.04,98.525 569.157,98.831 569.295,99.159 569.48,99.501 569.664,99.966 569.895,100.703 570.034,100.931 570.105,101.123 570.176,101.315 570.424,102.371 570.711,103.396 570.89,104.317 570.939,104.508 570.988,104.696 571.129,105.101 571.319,105.683 571.504,106.016 571.784,106.628 572.038,107.275 572.13,107.549 572.201,107.676 572.277,107.736 572.332,107.737 572.464,107.637 572.621,107.683 572.816,107.976 573.016,108.124 573.201,108.226 573.505,108.366 573.735,108.084 573.832,107.905 573.898,107.811 574.102,107.319 574.117,107.281 574.211,107.054 574.336,106.857 574.47,107.435 574.679,107.894 574.918,107.909 575.091,107.965 575.234,108.038 575.391,108.321 575.672,108.75 576.074,109.606 576.191,109.747 576.606,109.413 576.722,109.539 576.904,109.843 577.025,109.951 577.146,109.877 577.594,110.677 577.761,110.723 577.854,110.506 577.886,110.33 578.006,110.229 578.111,109.988 578.223,110.115 578.27,110.108 578.309,110.242 578.449,110.217 578.561,110.076 578.673,110.296 578.798,110.397 578.932,110.681 579.103,110.9 579.207,110.996 579.622,111.188 579.674,111.216 579.852,111.163 580.023,111.209 580.039,111.205 580.259,111.391 580.453,111.749 580.469,111.753 580.715,112.152 580.874,112.271 580.965,112.202 581.196,112.122 581.3,112.282 581.424,112.498 581.555,112.658 581.701,112.909 581.84,113.239 582.024,113.808 582.116,114.096 582.187,114.264 582.355,114.624 582.506,114.934 582.59,115.191 582.667,115.371 582.733,115.575 582.785,115.679 582.897,115.787 582.96,115.783 583.18,115.869 583.4,116.008 583.519,116.351 583.571,116.493 583.688,116.856 583.766,117.03 583.781,117.002 584.148,118.019 584.381,118.86 584.772,119.701 585.019,119.896 585.4,120.778 585.619,120.69 585.672,120.75 585.797,121.388 585.945,122.018 586.088,122.507 586.464,124.857 586.866,127.011 587.021,127.371 587.068,127.74 587.147,128.195 587.274,128.723 588.121,130.514 588.94,135.489 589.287,136.639 589.399,137.356 589.606,138.988 589.876,140.723 590.325,144.246 590.519,146.061 590.595,146.745 590.693,147.377 590.946,149.091 591.211,151.133 591.424,152.691 591.493,153.138 592.679,161.383 593.097,163.57 593.514,165.959 593.821,168.142 593.932,168.867 594.341,171.309 595.158,175.663 595.587,177.384 595.996,179.212 596.079,179.519 596.408,180.685 596.605,181.384 596.828,182.215 597.644,184.675 598.07,186.069 598.756,187.876 600.976,193.53 601.507,194.791 602,196.066 602.261,196.687 602.547,197.44 602.729,197.897 602.888,198.271 602.992,198.558 603.354,199.277 603.678,199.759 603.901,200.187 604.087,200.55 604.191,200.701 604.337,200.866 604.43,200.943 604.499,200.981 604.823,201.379 604.915,201.475 604.984,201.547 605.053,201.619 605.076,201.643 605.104,201.703 605.132,201.763 605.326,202.215 605.507,202.682 605.648,202.971 605.726,203.091 605.823,203.259 606.152,203.889 606.376,204.441 606.473,204.672 606.569,204.84 606.648,204.96 607.07,205.668 608.088,207.752 608.325,208.109 608.364,208.173 608.891,209.277 609.078,209.613 609.561,210.453 610.09,211.251 611.418,213.123 612.614,214.527 613.356,215.432 613.542,215.696 614.053,216.44 615.269,218.048 615.447,218.236 615.668,218.507 615.795,218.699 615.842,218.771 616.062,219.107 616.298,219.467 616.439,219.675 616.548,219.759 616.548,219.759 616.579,219.783 616.737,219.903 616.849,219.987 616.961,220.097 617.08,220.223 617.213,220.379 617.395,220.576 617.576,220.726 617.785,220.949 617.876,221.037 618.073,221.291 618.129,221.346 618.194,221.416 618.484,221.605 618.948,222.109 619.293,222.546 619.432,222.664 619.515,222.689 619.627,222.743 619.72,222.796 620.119,223.265 620.639,223.598 620.894,223.92 621.142,224.306 621.267,224.455 621.439,224.596 621.607,224.664 621.78,224.77 622.24,225.268 623.795,226.585 624.228,226.968 626.46,228.763 626.606,228.909 627.626,229.576 627.794,229.787 628.886,230.76 629.01,230.902 629.156,231.061 629.259,231.122 629.438,231.251 629.577,231.375 629.939,231.727 630.284,232.039 631.71,233.339 632.653,234.188 632.823,234.283 633.24,234.5 633.397,234.608 633.59,234.746 633.702,234.818 633.799,234.874 634.711,235.521 635.652,236.234 636.008,236.551 636.217,236.656 636.446,236.897 636.632,237.131 636.884,237.419 637.298,237.764 637.432,237.869 637.849,238.208 638.478,238.971 638.656,239.242 638.79,239.431 639.014,239.637 639.184,239.709 639.378,239.769 640.595,240.184 640.802,240.179 640.984,240.217 641.139,240.285 641.269,240.352 641.35,240.395 641.469,240.436 641.698,240.501 641.876,240.497 641.97,240.52 642.113,240.543 642.16,240.563 642.241,240.586 642.304,240.615 642.395,240.614 642.472,240.598 642.511,240.587 642.539,240.57 642.578,240.557 642.606,240.538 642.699,240.466 642.975,240.271 643.396,240.067 644.142,239.808 644.315,239.809 644.446,239.784 644.797,239.477 646.192,239.7 646.613,239.855 647.829,239.566 648.008,239.624 648.057,239.661 648.254,240.011 648.324,240.096 648.441,240.187 648.678,239.929 649.412,239.588 649.73,239.699 649.835,239.753 650.153,239.712 650.317,239.81 651.805,240.391 651.944,240.395 652.059,240.375 652.197,240.351 652.316,240.323 652.44,240.189 652.58,239.989 652.923,239.555 652.993,239.51 653.021,239.504 653.044,239.49 653.067,239.482 653.095,239.468 653.141,239.462 653.225,239.442 653.28,239.442 653.346,239.455 653.402,239.478 653.791,239.529 653.922,239.479 654.026,239.472 654.129,239.485 654.175,239.5 654.221,239.515 654.267,239.529 654.338,239.545 654.386,239.55 654.442,239.542 654.526,239.52 654.681,239.473 655.17,240.441 655.432,240.996 655.73,240.918 656.027,240.745 656.231,240.287 656.284,240.217 656.439,240.013 656.532,239.879 656.653,239.687 656.736,239.579 656.958,239.528 657.179,239.571 657.276,239.571 657.537,239.455 657.715,239.054 657.973,238.565 658.559,237.64 658.793,237.354 658.869,237.197 658.945,237.081 659.048,236.97 659.16,236.889 659.264,236.817 659.396,237.011 659.577,237.31 659.63,237.25 659.797,236.779 660.03,236.671 660.457,237.116 660.678,237.613 661.234,237.866 661.933,237.957 661.961,237.95 662,237.926 662.055,237.907 662.352,237.718 662.629,237.721 663.205,236.68 663.502,236.584 663.596,236.536 663.739,236.392 664.102,236.014 664.207,235.816 664.427,235.355 664.997,234.676 665.114,234.596 665.195,234.5 665.286,234.392 665.302,234.368 665.333,234.32 665.38,234.248 665.552,234 665.76,233.99 666.012,233.94 666.279,233.712 667.15,233.231 667.323,233.225 667.485,233.303 667.67,233.269 668.46,232.987 669.506,233.197 670.089,233.269 670.198,233.185 670.478,233.081 670.903,232.821 671.028,232.749 671.121,232.725 671.204,232.648 671.288,232.528 671.381,232.334 671.524,231.925 671.617,231.625 671.915,231.259 672.058,231.367 672.124,231.384 672.218,231.475 672.301,231.558 672.377,231.64 672.448,231.754 672.496,231.829 672.588,231.966 672.75,232.072 672.82,232.108 672.959,232.18 673.424,232.469 673.936,232.699 674.121,232.794 674.144,232.81 674.213,232.859 674.236,232.876 674.259,232.892 674.287,232.937 674.31,232.953 674.338,232.997 674.524,233.293 674.608,233.329 674.673,233.377 674.74,233.461 674.834,233.605 674.915,233.713 675.025,233.88 675.122,234.012 675.212,234.146 675.29,234.266 675.329,234.329 675.484,234.415 675.523,234.479 675.605,234.728 675.698,235.016 675.765,235.184 675.832,235.352 675.909,235.496 675.975,235.592 676.068,235.721 676.18,235.829 676.207,235.853 676.338,235.915 676.366,235.935 676.45,235.955 676.589,235.972 676.775,236.208 677.127,236.906 677.396,237.341 677.508,237.602 677.619,237.835 677.735,237.857 677.951,237.985 678.124,238.118 678.173,238.148 678.212,238.229 678.295,238.333 678.373,238.482 678.404,238.55 678.456,238.629 678.519,238.749 678.615,238.935 678.678,239.054 678.73,239.145 678.753,239.148 678.769,239.177 678.797,239.207 678.843,239.211 678.958,239.221 679.425,239.515 679.612,239.659 679.728,239.728 679.799,239.788 679.869,239.848 679.918,239.896 680.021,240.016 680.146,240.148 680.25,240.262 680.332,240.285 680.428,240.305 680.444,240.307 680.649,240.333 680.719,240.333 682.065,240.271 682.527,240.158 682.827,240.075 683.265,240.025 683.962,240.244 684.468,240.648 684.583,240.639 685.606,241.148 685.909,241.035 686.103,240.987 686.466,240.921 687.054,241.246 687.519,240.915 687.972,242.598 688.239,243.289 688.459,243.711 689.29,243.962 689.524,243.891 689.602,243.841 689.641,243.83 689.693,243.811 690.131,243.751 690.305,243.782 690.43,243.857 690.54,243.923 690.727,244 690.839,244 691.077,244 691.196,244 691.255,244 691.795,244 693.011,244.07 694.431,244.316 695.85,244.286 698.647,244.513 699.034,244.548 700.903,244.154 701.754,244 703.792,244.123 705.452,244.399 706.263,244.05 707.501,243.706 708.092,243.667 708.695,243.667 710.633,244.087 712.859,244 713.805,244.201 715.717,244.497 720.021,244.272 721.377,244.052 722.652,244 723.282,244 723.317,244 723.688,244 723.954,244 724.214,244 724.435,244 724.603,244 724.788,244 724.929,244 725.072,244 725.296,244 726.03,244 727.239,244 728.531,244 728.669,244 728.856,244 729.352,244 729.4,244 729.449,244 729.488,244 729.554,244 729.636,244 729.699,244 729.803,244 729.869,244 730.187,244 730.4,244 730.564,244 730.626,244 730.723,244 730.739,244 730.778,244.002 730.816,244.01 730.832,244.011 730.86,244.021 730.875,244.022 730.903,244.033 730.931,244.045 731.024,244.101 731.149,244.215 731.313,244.32 731.474,244.386 731.727,244.401 732.167,244.365 732.835,244.352 732.901,244.394 733.064,244.488 733.161,244.538 733.226,244.545 733.293,244.56 733.398,244.524 733.537,244.464 733.723,244.38 733.746,244.368 733.774,244.356 733.82,244.333 733.848,244.329 733.871,244.325 733.917,244.318 733.963,244.31 734.011,244.299 734.06,244.286 734.109,244.271 734.137,244.26 734.175,244.243 734.222,244.224 734.261,244.203 734.293,244.19 734.32,244.174 734.336,244.167 734.359,244.157 734.375,244.149 734.445,244.108 734.776,244.064 734.869,244.1 734.897,244.112 734.92,244.124 734.948,244.136 734.976,244.148 735.004,244.171 735.052,244.207 735.075,244.219 735.098,244.231 735.121,244.243 736.803,244.333 738.185,244.593 738.739,244.539 738.831,244.525 738.858,244.504 738.881,244.5 738.904,244.496 738.932,244.473 738.981,244.444 739.009,244.418 739.037,244.392 739.085,244.359 739.113,244.331 739.129,244.309 739.156,244.279 739.184,244.249 739.305,244.093 739.376,244.089 739.422,244.07 739.445,244.061 739.837,243.933 739.976,243.939 740.219,243.993 740.274,243.993 740.358,243.967 740.537,243.8 740.688,243.72 740.809,243.858 741.302,244.037 741.663,244.091 742.053,244.081 742.202,244.008 742.508,244.214 742.953,244.363 743.202,244.424 743.37,244.46 743.486,244.472 743.555,244.472 743.674,244.414 743.75,244.3 743.833,244.266 744.013,244.199 744.229,244.124 744.437,244.141 744.53,244.169 744.624,244.2 744.851,244.184 745.251,244.167 745.538,244.254 745.861,244.333 746.068,244.333 746.185,244.333 746.309,244.352 746.599,244.339 746.98,244.327 747.66,244.275 748.593,244.401 748.697,244.425 750.793,244.431 752.165,244.518 752.258,244.536 752.286,244.541 752.313,244.547 752.337,244.542 752.36,244.537 752.383,244.535 752.406,244.535 752.429,244.535 752.452,244.535 752.5,244.523 752.715,244.439 752.873,244.379 752.949,244.355 753.04,244.415 753.195,244.51 753.467,244.571 753.544,244.53 753.638,244.465 753.91,244.235 754.147,244.099 754.229,244.075 754.474,244 754.694,243.902 754.876,243.853 755.005,243.845 755.272,243.893 755.391,243.917 756.082,243.999 756.179,243.992 756.46,243.877 756.645,243.755 756.779,243.685 756.908,243.696 757.038,243.725 757.128,243.736 757.181,243.74 757.233,243.741 757.324,243.734 757.428,243.91 757.614,244.274 757.934,244.667 758.936,244.667 760.014,244.667 760.177,244.356 760.317,244.049 760.396,243.878 760.448,243.809 760.464,243.777 760.526,243.748 760.791,244.054 761.013,244.216 761.137,244.267 761.208,244.271 761.305,244.258 761.374,244.283 761.42,244.3 761.466,244.317 761.512,244.334 761.583,244.343 762.059,244.397 762.529,244.487 763.707,244.342 764.122,244.405 764.965,244.279 765.117,244.276 765.987,244.209 766.814,244.397 767.884,244.358 769.106,244.348 771.894,244.527 771.922,244.533 771.961,244.533 771.992,244.519 772.039,244.497 772.225,244.401 772.512,244.403 773.587,244.201 773.662,244.176 773.875,244.141 774.014,244.12 776.385,244.346 778.986,244.417 779.102,244.429 779.241,244.417 779.38,244.429 780.048,244.229 780.234,244.109 780.326,244.072 780.488,244.084 780.675,244.108 780.865,244.144 781.05,244.156 781.28,244.156 781.399,244.132 781.515,244.12 781.724,244 781.817,244 781.948,244 782.236,244 782.339,244 782.45,244.013 782.609,244.139 782.788,244.229 783.698,244.439 784.848,244.362 785.518,244.391 785.649,244.417 785.714,244.414 785.818,244.415 785.951,244.353 786.094,244.272 786.177,244.236 786.233,244.212 786.586,244.1 787.007,244.165 787.063,244.165 787.156,244.148 787.249,244.12 787.392,244.046 787.596,244 788.161,244.013 788.717,243.956 789.689,244.079 790.13,244.127 792.997,244.1 793.637,244 793.768,244 793.839,244 793.862,244 793.908,244 793.954,244 793.977,244 794.071,244 794.271,244 794.337,244 794.375,244 794.403,244 794.45,244 794.559,244 795.877,244 796.487,244 797.207,244 797.304,244 797.695,244 797.789,243.988 797.856,243.971 797.947,243.958 798.115,243.961 798.319,243.967 798.447,243.985 798.681,243.999 799.245,243.959 799.841,243.935 800.203,244.079 800.445,244.175 800.521,244.211 800.597,244.247 800.666,244.283 800.85,244.379 800.965,244.439 801.036,244.475 801.091,244.499 801.196,244.531 801.339,244.515 801.417,244.493 801.573,244.414 801.716,244.345 801.798,244.357 801.907,244.357 801.989,244.345 802.041,244.333 802.088,244.333 802.135,244.333 802.202,244.356 802.461,244.402 802.513,244.408 802.594,244.428 803.365,244.369 803.573,244.393 803.722,244.417 803.855,244.441 804.012,244.477 804.145,244.501 804.272,244.513 804.4,244.525 804.496,244.529 804.624,244.478 804.749,244.416 804.874,244.354 805.052,244.291 805.26,244.206 805.455,244.228 805.649,244.288 805.895,244.335 806.028,244.264 806.161,244.196 806.318,244.143 806.423,244.125 806.539,244.122 806.656,244.103 807.001,244.005 807.144,244.053 807.183,244.041 807.287,244.005 807.632,244.103 807.749,244.122 807.865,244.125 807.97,244.143 808.127,244.196 808.26,244.264 808.393,244.335 808.639,244.288 808.833,244.228 809.028,244.206 809.236,244.291 809.414,244.354 809.539,244.416 809.664,244.478 809.792,244.529 809.888,244.525 810.015,244.513 810.143,244.501 810.276,244.477 810.433,244.441 810.566,244.417 810.714,244.393 810.923,244.369 811.693,244.428 811.775,244.408 811.827,244.402 812.086,244.356 812.153,244.333 812.2,244.333 812.247,244.333 812.299,244.345 812.38,244.357 812.49,244.357 812.572,244.345 812.715,244.414 812.871,244.493 812.949,244.515 813.092,244.531 813.196,244.499 813.252,244.475 813.323,244.439 813.438,244.379 813.622,244.283 813.691,244.247 813.767,244.211 813.843,244.175 814.084,244.079 814.447,243.935 815.043,243.959 815.606,243.999 815.841,243.985 815.968,243.967 816.173,243.961 816.341,243.958 816.46,243.98 816.512,243.993 816.59,244 816.982,244 817.079,244 817.798,244 818.409,244 819.726,244 819.836,244 819.883,244 819.91,244 819.949,244 820.015,244 820.215,244 820.309,244 820.332,244 820.378,244 820.424,244 820.447,244 820.518,244 820.649,244 821.289,244.1 824.156,244.127 824.597,244.079 825.568,243.956 826.125,244.013 826.69,244 826.894,244.046 827.037,244.12 827.13,244.148 827.223,244.165 827.279,244.165 827.7,244.1 828.061,244.224 828.268,244.296 828.495,244.334 828.675,244.333 828.896,244.333 829.015,244.333 829.14,244.333 829.372,244.213 829.534,244.112 829.672,244.022 829.904,243.905 830.042,243.928 830.088,243.936 830.137,243.95 830.165,243.959 830.22,243.975 830.376,244 830.584,244 830.732,244 830.83,244 830.905,244 830.981,244 831.037,244 831.205,244 831.373,244 831.466,244 831.7,244 831.815,244 832.071,244 832.212,244 832.268,244 832.333,244 832.386,244 832.463,244 832.584,244 832.816,244 833.04,244 833.124,244 833.292,244 833.385,244 833.547,244 833.64,244.005 833.711,244.019 833.78,244.033 833.829,244.038 833.933,244.025 834.017,244.012 834.072,244 834.121,244 834.17,244 834.197,244 834.221,244 834.252,244.008 834.317,244.041 834.37,244.076 834.473,244.135 834.604,244.21 834.701,244.248 834.891,244.301 835.03,244.325 835.282,244.429 835.398,244.417 837.999,244.346 840.37,244.12 840.509,244.141 840.721,244.176 840.797,244.201 841.872,244.403 842.159,244.401 842.344,244.497 842.391,244.519 842.423,244.533 842.461,244.533 842.489,244.527 845.278,244.348 846.5,244.358 847.569,244.397 848.397,244.209 849.267,244.276 849.419,244.279 850.261,244.405 850.677,244.342 851.855,244.487 852.325,244.397 852.801,244.343 852.872,244.334 852.918,244.317 852.964,244.3 853.01,244.283 853.079,244.258 853.176,244.271 853.247,244.267 853.371,244.216 853.593,244.054 853.639,244.019 853.667,244.033 853.695,244.045 853.723,244.055 853.775,243.991 853.807,243.965 853.925,243.845 853.976,243.823 854.472,244 855.457,244 855.976,243.832 856.028,243.793 856.121,243.781 856.273,243.733 856.394,243.673 856.576,243.637 856.784,243.555 857.134,243.201 857.561,242.659 857.729,242.614 858.171,242.217 859.038,240.793 859.4,240.043 859.66,239.329 859.884,238.893 860.081,238.884 860.276,239.212 860.824,238.023 860.955,238.473 861.372,238.321 861.92,238.608 862.143,238.122 862.199,238.013 862.727,238.528 863.145,238.275 864.249,238.955 864.342,239 864.519,239 865.415,238.918 865.61,238.814 865.831,238.684 865.923,238.684 866.313,238.606 867.234,237.879 867.512,237.508 868.33,236.567 868.608,236.299 869.053,235.917 869.343,235.617 869.661,235.313 869.732,235.253 869.829,235.157 869.967,235.085 870.106,235.013 870.244,234.873 870.43,234.549 870.576,234.419 870.912,234.322 871.231,234.307 871.398,234.139 872.67,233.192 873.77,232.299 875.492,231.021 875.757,230.885 875.876,230.825 876.109,230.705 876.537,230.077 878.025,229.349 878.312,229.293 878.529,229.25 878.75,229.249 878.87,229.251 879.093,229.263 879.322,229.142 879.751,229.375 880.011,229.526 881.225,230.412 881.817,230.195 881.966,230.515 882.117,230.451 882.295,230.89 882.434,230.98 883.147,230.099 883.196,230.019 884.088,229.667 884.905,230.194 885.047,230.435 885.431,230.536 885.479,230.514 885.502,230.499 885.548,230.47 885.571,230.455 885.617,230.425 885.64,230.41 885.663,230.396 885.687,230.381 885.755,230.336 885.831,230.336 885.946,230.335 886.015,230.371 886.106,230.515 886.184,230.635 886.295,230.779 886.835,231.093 887.242,231.285 888.787,233.095 889.621,233.902 889.78,234.159 889.856,234.267 890.138,234.663 890.284,234.653 890.56,234.881 890.643,235.049 890.747,235.283 890.858,235.62 890.951,235.836 891.193,236.28 891.68,236.557 891.809,236.806 892.095,237.527 892.395,238.211 892.573,238.473 892.734,238.7 892.89,238.829 893.206,239.509 893.252,239.461 893.426,240.013 893.599,240.683 893.928,242.211 894.102,242.356 894.542,242.584 894.638,242.596 894.716,242.596 894.971,242.748 895.038,242.856 895.142,243.024 895.209,243.131 895.394,243.337 895.675,243.393 895.785,243.415 895.875,243.494 895.922,243.572 895.969,243.651 896.14,243.975 896.313,243.929 896.534,243.933 896.583,243.938 896.659,243.964 896.875,244.005 897.135,244.545 898.188,244.2 898.269,244.215 898.335,244.211 898.411,244.26 898.482,244.295 898.613,244.339 898.893,244.38 899.728,244.575 900.231,244.663 900.555,244.667 901.21,244.667 901.383,244.667 901.507,244.667 902.644,244.667 902.727,244.667 903.61,244.667 904.477,244.939 905.332,244.863 905.879,244.69 906.262,244.667 906.571,244.667 906.73,244.667 907.382,244.554 907.576,244.637 908.403,244.667 909.219,243.885 909.302,243.643 909.399,243.93 909.496,243.958 909.542,243.945 909.598,244.047 909.654,244.146 909.835,244.538 910.739,243.998 910.948,243.828 911.255,243.885 911.57,244.199 911.636,244.372 912.081,244.501 912.387,244.276 912.403,244.32 912.793,244.385 913.488,244.182 913.76,244.425 914.252,244.263 914.485,244.139 915.417,244.165 916.481,244.046 917.377,243.84 917.509,243.77 917.795,243.754 918.475,243.989 919.417,244.245 920.967,244.24 921.62,244.161 921.844,244.23 922.053,244.347 922.715,244.088 923.325,244.456 923.584,244.134 923.732,243.937 923.784,243.87 924.014,243.78 924.359,243.729 924.77,243.829 925.35,243.842 925.837,243.65 926.32,243.805 926.606,243.832 926.761,243.818 926.956,243.782 927.188,243.664 927.422,243.771 927.631,243.843 927.865,243.909 928.035,243.934 928.063,243.971 928.182,243.965 928.382,243.995 928.738,243.846 928.805,244.013 929.071,244.579 929.123,244.655 929.297,245.119 929.388,245.207 930.43,245.157 931.466,245.005 931.949,245.655 933.362,245.156 934.015,245.322 934.289,245.132 934.484,245.151 934.665,245.431 934.704,245.536 935.002,245.761 935.446,244.609 935.499,244.564 935.527,244.52 935.554,244.483 935.57,244.549 935.609,244.589 935.661,244.714 935.692,244.858 935.759,245.081 935.811,245.251 935.85,245.358 935.954,245.705 936.02,245.697 936.036,245.723 936.075,245.672 936.102,245.595 936.13,245.521 936.146,245.55 936.174,245.478 936.202,245.407 936.217,245.438 936.256,245.402 936.284,245.337 936.299,245.37 936.327,245.307 936.383,245.187 936.538,245.123 936.655,245.142 936.9,245.561 937.059,245.745 937.152,245.763 937.168,245.815 937.191,245.731 937.219,245.67 937.242,245.588 937.27,245.531 937.297,245.476 937.336,245.452 937.364,245.404 937.392,245.358 937.431,245.347 937.47,245.341 937.508,245.34 937.575,245.416 937.622,245.523 937.653,245.594 937.692,245.613 937.731,245.637 938.507,245.432 939.645,245.464 940.072,245.541 941.456,245.758 942.198,245.848 942.445,245.79 942.721,245.894 943.091,246.086 943.343,246.029 943.462,245.991 943.605,245.895 943.776,245.79 943.905,245.688 943.957,245.679 944.091,245.712 944.299,245.777 944.61,245.864 945.439,246.215 945.572,246.143 947.099,246.495 947.92,246.275 948.498,246.096 949.556,246.403 950.164,246.227 951.056,246.26 951.219,246.267 952.803,246.507 953.085,246.451 953.218,246.355 954.5,246.76 954.724,246.688 954.976,246.563 955.394,246.501 955.732,246.559 956.526,246.619 957.408,246.829 957.474,246.805 957.824,246.613 958.329,246.349 959.068,246.571 959.418,246.467 959.483,246.464 959.716,246.358 959.923,246.378 960.072,246.156 960.235,246.112 961.241,245.131 961.522,244.879 962.762,244.864 963.245,244.275 963.403,244.06 964.54,244.135 965.875,245.72 966.882,245.512 967.776,246.193 968.495,246.215 968.824,246.482 968.936,246.487 969.187,246.494 969.314,246.469 969.36,246.541 969.431,246.649 969.502,246.757 969.53,246.793 969.558,246.829 969.586,246.865 969.617,246.865 969.648,246.865 969.836,246.865 970.133,246.829 971.487,246.577 971.91,246.541 972.332,246.505 972.788,246.433 972.897,246.433 973.93,246.762 974.169,246.914 974.621,246.925 974.845,246.969 974.987,247.026 975.121,247.044 975.212,247.016 975.497,246.872 975.594,246.848 975.802,246.8 976.002,246.728 976.301,246.891 976.508,247.029 976.539,247.062 976.643,247.02 976.724,246.988 976.777,246.944 977.307,246.598 977.604,247.112 977.747,247.195 978.021,246.986 978.373,246.774 978.822,247.098 979.216,247.182 979.682,247.205 979.923,247.11 980.674,246.975 981.249,246.931 981.443,246.834 981.62,246.719 981.713,246.729 982.473,246.804 983.17,246.921 983.329,246.991 983.696,247.088 984.167,246.752 984.65,246.584 985.064,246.52 985.633,246.77 985.969,246.652 986.306,246.672 986.696,246.648 987.09,246.396 987.403,246.362 987.455,246.351 987.692,246.396 987.968,246.554 988.234,246.544 988.434,246.367 988.553,246.211 988.646,246.283 988.709,246.331 988.79,246.26 988.933,246.221 989.37,246.023 989.556,245.935 989.652,245.957 989.749,245.99 990.008,246.109 990.298,246.218 990.567,246.353 991.213,246.497 991.371,246.419 991.63,246.284 991.793,246.272 992.337,246.453 992.896,246.366 992.993,246.153 993.069,245.959 993.208,245.637 993.325,245.493 993.436,245.445 993.575,245.157 993.659,245.013 994.022,244.451 994.407,244.367 995.143,243.509 995.499,243.272 995.57,243.159 995.641,243.009 995.787,242.679 996.322,240.552 996.538,239.656 997.214,237.14 997.593,235.863 997.772,235.236 998.027,234.35 998.288,233.323 998.337,233.128 998.36,233.045 998.376,233.014 998.391,232.983 998.407,232.952 998.454,232.887 998.485,232.843 998.567,232.809 998.633,232.791 998.664,232.744 998.68,232.72 998.696,232.697 998.719,232.628 998.747,232.538 998.83,232.278 999.085,231.572 999.35,230.984 999.577,230.48 999.764,230.068 999.857,229.871 1000.193,229.045 1000.277,229.077 1000.445,228.637 1000.91,227.882 1001.08,227.519 1001.25,227.054 1001.393,226.695 1001.575,226.276 1001.73,226.09 1001.887,226.116 1002.014,226.233 1002.13,226.169 1002.245,226.152 1002.384,226.14 1002.433,226.136 1002.597,226.087 1002.933,225.989 1003.142,225.962 1003.407,225.877 1003.642,225.662 1003.858,225.482 1004,225.38 1004.146,225.261 1004.297,225.117 1004.464,224.948 1004.613,224.818 1004.883,224.587 1005.105,224.299 1005.209,224.161 1005.326,224.029 1005.378,223.984 1005.587,223.712 1005.848,223.294 1006.237,222.751 1006.752,221.528 1007.062,220.573 1007.441,219.268 1007.635,218.832 1008.369,216.635 1008.508,216.204 1008.684,215.832 1009.112,214.88 1009.572,213.489 1009.792,213.025 1009.844,212.917 1010.245,212.165 1010.427,212.028 1010.737,211.33 1011.06,210.286 1011.269,209.722 1011.489,209.37 1011.671,209.045 1012.27,207.967 1012.621,207.655 1013.533,206.968 1013.707,206.944 1013.803,206.92 1014.006,206.92 1014.18,206.944 1014.272,207.04 1014.32,207.081 1015.647,208.197 1015.934,208.629 1016.028,208.288 1016.263,207.657 1016.406,207.437 1016.588,207.264 1016.654,207.211 1016.77,207.126 1016.979,207.017 1017.11,206.978 1017.286,206.908 1017.483,206.882 1017.638,206.883 1017.845,206.833 1017.957,206.909 1019,206.718 1019.269,206.629 1019.4,206.646 1019.793,206.724 1019.972,206.776 1020.048,206.762 1020.2,206.727 1020.373,206.559 1020.616,206.347 1020.816,206.232 1021.107,206.088 1021.253,206.048 1021.604,206.89 1021.7,206.98 1021.81,206.933 1022.033,206.818 1022.207,206.72 1022.238,206.704 1022.277,206.691 1022.316,206.674 1022.371,206.653 1022.42,206.638 1023.396,207.006 1023.586,207.076 1023.698,207.055 1023.779,207.039 1023.87,207.019 1024.985,207.057 1025.219,207.117 1025.323,207.153 1025.444,207.207 1025.527,207.252 1025.647,207.305 1026.001,207.477 1026.049,207.453 1026.284,207.573 1026.68,207.667 1026.842,207.667 1027.026,207.667 1027.51,207.667 1027.625,207.667 1028.154,207.455 1028.271,207.395 1028.455,207.333 1028.574,207.333 1028.65,207.333 1028.699,207.333 1028.738,207.336 1028.777,207.347 1028.867,207.368 1029.076,207.391 1029.366,207.349 1029.736,207.304 1030.321,207.137 1030.684,206.996 1031.192,206.738 1031.596,206.687 1031.932,206.489 1032.152,206.345 1032.531,206.64 1032.786,206.796 1033.021,206.898 1033.313,206.98 1033.432,206.995 1033.583,207.039 1033.695,207.135 1033.854,207.279 1034.035,207.447 1034.203,207.603 1034.553,207.908 1035.018,208.246 1035.399,208.292 1035.805,208.271 1036.121,208.428 1036.472,207.761 1036.796,207.735 1036.952,207.783 1037.149,207.837 1037.335,207.957 1037.585,208.19 1037.8,208.554 1037.828,208.607 1038.11,209.139 1038.51,209.807 1038.722,210.038 1038.816,210.125 1038.908,210.245 1039.363,210.91 1039.433,210.984 1039.549,211.195 1040.243,212.355 1040.289,212.46 1040.381,212.671 1040.498,212.869 1040.643,212.997 1041.147,213.368 1041.298,213.407 1041.444,213.563 1042.358,214.163 1042.665,213.399 1042.817,213.308 1042.956,213.475 1043.072,213.482 1043.143,213.47 1043.236,213.478 1043.329,213.492 1043.449,213.489 1043.633,213.581 1044.002,213.527 1044.419,213.408 1044.789,213.1 1045.044,212.934 1045.473,212.874 1046.762,212.698 1046.908,212.753 1047.05,212.729 1047.262,212.733 1047.59,212.754 1047.732,212.813 1047.967,212.868 1048.307,212.865 1048.776,213.156 1048.831,213.274 1049.604,214.154 1049.825,214.205 1050.012,214.383 1050.274,214.583 1051.729,218.043 1051.804,218.259 1051.898,218.455 1052.014,218.592 1052.408,218.527 1052.527,218.549 1052.885,218.648 1053.071,219.14 1053.482,220.589 1053.652,221.174 1053.872,221.752 1054.299,222.543 1054.41,222.727 1054.433,222.752 1054.731,223.157 1054.926,223.111 1055.485,223.415 1056.155,223.699 1056.461,223.831 1057.193,224.156 1057.797,224.621 1057.88,224.652 1058.036,224.587 1058.742,224.641 1059.053,224.641 1059.261,224.737 1059.584,224.949 1060.179,224.632 1060.386,224.63 1060.658,224.808 1061.589,224.64 1061.899,224.891 1062.248,224.888 1062.365,224.891 1062.532,225.101 1063.126,225.565 1063.691,226.012 1064.359,226.511 1064.58,226.758 1064.765,226.731 1064.818,226.707 1064.895,226.755 1064.961,226.803 1064.976,226.803 1065.008,226.803 1065.036,226.827 1065.074,226.851 1065.09,226.851 1065.118,226.875 1065.164,226.923 1065.187,226.947 1065.21,226.971 1065.258,227.019 1065.328,227.091 1065.351,227.115 1065.374,227.139 1065.401,227.163 1065.583,227.072 1065.787,227.241 1066.16,227.547 1066.545,227.907 1066.649,228.001 1067.034,228.181 1067.523,228.301 1067.916,228.337 1067.992,228.349 1068.234,228.4 1068.521,228.52 1069.191,228.459 1069.322,228.4 1069.378,228.379 1069.454,228.358 1069.64,228.405 1069.703,228.405 1069.821,228.477 1069.874,228.513 1069.951,228.585 1070.055,228.693 1070.149,228.801 1070.239,228.873 1070.358,228.945 1070.647,229.085 1070.951,229.036 1071.75,228.936 1073.831,229.395 1074.534,229.659 1075.415,229.485 1075.69,229.545 1076.711,229.667 1076.868,229.667 1077.039,229.667 1078.008,229.667 1078.12,229.668 1079.46,230.048 1079.852,230.333 1080,230.331" stroke="#000000" stroke-linecap="round" stroke-linejoin="round" stroke-width="2" />
		</g>
	</g>
	<defs >
		<clipPath id="profile:drawing_boundary">
			<rect height="200" width="1000" x="80" y="80" />
		</clipPath>
	</defs>
	<text class="draggable" fill="#000000" font-family="Verdana" font-size="13.2" id="profile:axis_title_x" text-anchor="middle" x="580" y="357">Distance</text>
	<text class="draggable" fill="#000000" font-family="Verdana" font-size="13.2" id="profile:axis_title_y" text-anchor="middle" transform="rotate(-90,15.2,180)" x="15.2" y="180">Elevation</text>
	<g class="draggable" id="title" x="580" y="20.625">
		<text fill="#000000" font-family="Verdana" font-size="16.5" font-weight="bold" id="title text 1" text-anchor="middle" x="580" y="20.625">Zurich Marathon 2021 Virtual Run - Elevation Profile</text>
	</g>
	<g id="profile:logo" x="1157" y="180">
		<rect fill="#FFFFFF" height="160" opacity="0.6" width="11" x="1148" y="100" />
		<a href="https://www.gpsvisualizer.com/" target="_blank">
			<text fill="#000000" font-family="Verdana" font-size="9" text-anchor="middle" transform="translate(1157,180) rotate(-90) translate(-1157,-180)" x="1157" y="180">created by GPSVisualizer.com</text>
		</a>
	</g>
	<rect fill="none" height="359" id="image_border" opacity="0" stroke="#000000" stroke-width="1" width="1159" x="0.5" y="0.5" />
	<style type="text/css">.draggable { cursor:move; }</style>
	<script type="text/javascript"><![CDATA[
		function makeDraggable(evt) {
			var svg = evt.target; svg.addEventListener('mousedown', startDrag); svg.addEventListener('mousemove', drag); svg.addEventListener('mouseup', endDrag); svg.addEventListener('mouseleave', endDrag); svg.addEventListener('touchstart', startDrag); svg.addEventListener('touchmove', drag); svg.addEventListener('touchend', endDrag); svg.addEventListener('touchleave', endDrag); svg.addEventListener('touchcancel', endDrag); var selectedElement, offset, transform, bbox, minX, maxX, minY, maxY;
			function getMousePosition(evt) { var CTM = svg.getScreenCTM(); if(evt.touches) { evt = evt.touches[0]; } return { x:(evt.clientX-CTM.e)/CTM.a, y:(evt.clientY-CTM.f)/CTM.d }; }
			function startDrag(evt) { if(evt.target.classList && evt.target.classList.contains('draggable')) { selectedElement = evt.target; initialiseDragging(evt); } else if(evt.target.parentNode) { if(evt.target.parentNode.classList && evt.target.parentNode.classList.contains('draggable')) { selectedElement = evt.target.parentNode; initialiseDragging(evt); } else if(evt.target.parentNode.parentNode && evt.target.parentNode.parentNode.classList && evt.target.parentNode.parentNode.classList.contains('draggable')) { selectedElement = evt.target.parentNode.parentNode; initialiseDragging(evt); } } }
			function initialiseDragging(evt) { offset = getMousePosition(evt); var transforms = selectedElement.transform.baseVal; if(transforms.length === 0 || transforms.getItem(0).type !== SVGTransform.SVG_TRANSFORM_TRANSLATE) { var translate = svg.createSVGTransform(); translate.setTranslate(0,0); selectedElement.transform.baseVal.insertItemBefore(translate,0); } transform = transforms.getItem(0); offset.x -= transform.matrix.e; offset.y -= transform.matrix.f; }
			function drag(evt) { if(selectedElement) { evt.preventDefault(); var coord = getMousePosition(evt); var dx = coord.x-offset.x; var dy = coord.y-offset.y; transform.setTranslate(dx, dy); } }
			function endDrag(evt) { selectedElement = false; }
		}
]]></script>
	<!-- 		debugging stuff:
		key = 20210501024825-73015
		min. ffffff = 
		max. ffffff = 
		colorize min = 
		colorize max = 
		colorize range = 0
		upper left (data) = 47.43718,8.47044
		lower right (data) = 47.34603,8.55786
		upper left (drawing) = 47.43718,8.47044
		lower right (drawing) = 47.34603,8.55786
		center = 47.391605,8.51415
		width,height (pixels) = 1160,360
		width,height (degrees) = 0.0874199999999998,0.091149999999999
		scale = 79896, resolution = 28.19 m/pixel
		input form = https://www.gpsvisualizer.com/profile_input?format=svg&height=200&profile_y_max=900&profile_y_min=300&trk_colorize=custom&trk_colorize_custom=%23FFFFFF&trk_elevation_gain=1&trk_elevation_threshold=5&units=metric&width=1000&add_elevation=auto
 -->
	<!-- 
	Generated using the Perl SVG Module V2.59
	by Ronan Oger
	Info: http://www.roitsystems.com/
 -->
</svg>