<?xml version="1.0" encoding="UTF-8" standalone="yes"?>
<!DOCTYPE svg PUBLIC "-//W3C//DTD SVG 1.0//EN" "http://www.w3.org/TR/2001/REC-SVG-20010904/DTD/svg10.dtd">
<svg height="460" onload="if(self.makeDraggable){makeDraggable(evt)}" width="1660" xmlns="http://www.w3.org/2000/svg" xmlns:svg="http://www.w3.org/2000/svg" xmlns:xlink="http://www.w3.org/1999/xlink">
	<g id="gridlines_y">
		<line fill="none" id="profile:gridline_y_0" stroke="#cccccc" stroke-width="1" x1="80" x2="1580" y1="380" y2="380" />
		<text fill="#000000" font-family="Verdana" font-size="11" id="profile:gridline_y_0_label" text-anchor="end" x="77.8" y="384.5">300 m</text>
		<line fill="none" id="profile:gridline_y_1" stroke="#cccccc" stroke-width="1" x1="80" x2="1580" y1="330" y2="330" />
		<text fill="#000000" font-family="Verdana" font-size="11" id="profile:gridline_y_1_label" text-anchor="end" x="77.8" y="334.5">400 m</text>
		<line fill="none" id="profile:gridline_y_2" stroke="#cccccc" stroke-width="1" x1="80" x2="1580" y1="280" y2="280" />
		<text fill="#000000" font-family="Verdana" font-size="11" id="profile:gridline_y_2_label" text-anchor="end" x="77.8" y="284.5">500 m</text>
		<line fill="none" id="profile:gridline_y_3" stroke="#cccccc" stroke-width="1" x1="80" x2="1580" y1="230" y2="230" />
		<text fill="#000000" font-family="Verdana" font-size="11" id="profile:gridline_y_3_label" text-anchor="end" x="77.8" y="234.5">600 m</text>
		<line fill="none" id="profile:gridline_y_4" stroke="#cccccc" stroke-width="1" x1="80" x2="1580" y1="180" y2="180" />
		<text fill="#000000" font-family="Verdana" font-size="11" id="profile:gridline_y_4_label" text-anchor="end" x="77.8" y="184.5">700 m</text>
		<line fill="none" id="profile:gridline_y_5" stroke="#cccccc" stroke-width="1" x1="80" x2="1580" y1="130" y2="130" />
		<text fill="#000000" font-family="Verdana" font-size="11" id="profile:gridline_y_5_label" text-anchor="end" x="77.8" y="134.5">800 m</text>
		<line fill="none" id="profile:gridline_y_6" stroke="#cccccc" stroke-width="1" x1="80" x2="1580" y1="80" y2="80" />
		<text fill="#000000" font-family="Verdana" font-size="11" id="profile:gridline_y_6_label" text-anchor="end" x="77.8" y="84.5">900 m</text>
	</g>
	<g id="gridlines_x">
		<line fill="none" id="profile:gridline_x_0_label" stroke="#cccccc" stroke-width="1" x1="80.5" x2="80.5" y1="80" y2="380" />
		<text fill="#000000" font-family="Verdana" font-size="11" id="x label 0" text-anchor="end" transform="rotate(-90,86,383.666666666667)" x="86" y="383.666666666667">0 km</text>
		<line fill="none" id="profile:gridline_x_1_label" stroke="#cccccc" stroke-width="1" x1="391.046874718863" x2="391.046874718863" y1="80" y2="380" />
		<text fill="#000000" font-family="Verdana" font-size="11" id="x label 1" text-anchor="end" transform="rotate(-90,396.546874718863,383.666666666667)" x="396.546874718863" y="383.666666666667">10 km</text>
		<line fill="none" id="profile:gridline_x_2_label" stroke="#cccccc" stroke-width="1" x1="701.593749437726" x2="701.593749437726" y1="80" y2="380" />
		<text fill="#000000" font-family="Verdana" font-size="11" id="x label 2" text-anchor="end" transform="rotate(-90,707.093749437726,383.666666666667)" x="707.093749437726" y="383.666666666667">20 km</text>
		<line fill="none" id="profile:gridline_x_3_label" stroke="#cccccc" stroke-width="1" x1="1012.14062415659" x2="1012.14062415659" y1="80" y2="380" />
		<text fill="#000000" font-family="Verdana" font-size="11" id="x label 3" text-anchor="end" transform="rotate(-90,1017.64062415659,383.666666666667)" x="1017.64062415659" y="383.666666666667">30 km</text>
		<line fill="none" id="profile:gridline_x_4_label" stroke="#cccccc" stroke-width="1" x1="1322.68749887545" x2="1322.68749887545" y1="80" y2="380" />
		<text fill="#000000" font-family="Verdana" font-size="11" id="x label 4" text-anchor="end" transform="rotate(-90,1328.18749887545,383.666666666667)" x="1328.18749887545" y="383.666666666667">40 km</text>
		<line fill="none" id="profile:gridline_x_5_label" stroke="#cccccc" stroke-width="1" x1="1580.5" x2="1580.5" y1="80" y2="380" />
		<text class="draggable" fill="#000000" font-family="Verdana" font-size="11" id="x label 5" text-anchor="end" transform="rotate(-90,1586,383.666666666667)" x="1586" y="383.666666666667">48.302 km</text>
	</g>
	<g clip-path="url(#profile:drawing_boundary)" id="profile:track_area">
		<g id="trk1:Teil1" opacity="1">
			<polyline fill="none" id="trk1:p3715" points="80,305.139 81.933,305 82.565,305 84.043,305.134 84.897,305.02 85.14,305.046 85.386,305.033 86.102,305.02 86.831,305.455 87.341,305.425 87.733,305.492 87.907,305.831 88.145,306.281 88.261,306.404 88.489,306.899 88.774,307.568 89.266,307.994 89.585,308.21 89.797,308.354 90.145,307.401 90.396,306.824 90.685,306.745 91.067,307.094 91.587,307.082 91.893,306.861 92.067,306.341 92.255,306.298 92.536,306.236 93.131,306.221 93.741,306.292 94.008,306.252 94.23,306.161 94.347,306.099 94.445,306.056 94.545,306.013 94.823,305.923 95.413,305.906 95.743,305.996 96.124,306 96.408,306 96.652,306 96.919,306.046 97.141,306.11 97.308,306.167 97.486,306.212 97.738,306.284 98.224,306.394 98.981,306.446 100.998,306.5 102.007,306.5 102.221,306.526 102.499,306.58 102.791,306.726 103.678,307.387 104.222,307.591 104.457,307.747 104.651,307.901 104.709,307.954 104.808,308.044 105.005,308.12 105.394,308.282 105.603,308.372 106.09,308.428 106.216,308.374 106.257,308.356 106.304,308.32 106.362,308.284 106.968,307.954 107.489,307.913 107.683,307.975 107.84,308 108.054,308 108.616,308.108 108.816,308.198 108.952,308.279 109.097,308.308 109.85,308.344 110.084,308.344 110.344,308.351 111.647,308.12 111.747,308.21 111.847,308.3 112.119,308.75 112.333,309.02 112.391,309.11 112.799,309.115 113.661,308.74 113.719,308.775 113.876,308.827 114.066,308.87 114.144,308.923 114.238,308.906 114.308,308.894 114.408,308.934 114.66,309.096 114.777,309.164 115.809,309.258 117.033,309.975 117.402,309.908 117.772,309.877 118.399,310.005 118.599,310.058 118.965,310.032 119.629,309.968 119.863,309.969 120.077,309.966 120.333,309.968 121.323,309.755 121.52,309.779 124.098,310.064 125.268,310.24 129.208,309.363 129.626,309.134 129.824,308.96 130.231,308.435 130.911,307.969 131.009,307.8 131.123,307.485 131.165,307.371 131.234,307.195 131.268,307.106 131.338,306.93 131.372,306.842 133.39,307.192 133.809,307 133.908,307 134.014,307 134.087,307 134.193,307 134.262,307 134.402,307 134.64,306.922 134.97,306.928 135.111,306.928 136.155,308.122 136.766,308.524 136.93,308.564 136.977,308.576 137.071,308.599 137.141,308.616 137.219,308.619 137.292,308.594 138.18,307.505 138.695,306.577 138.831,306.434 138.93,306.308 139.098,306.074 139.37,305.642 139.925,304.903 140.082,304.889 140.296,304.748 140.53,304.488 140.694,304.307 140.816,303.967 140.933,303.654 141.069,303.395 141.194,302.928 141.349,302.885 141.516,302.837 142.002,302.349 142.499,302.495 142.891,302.997 143.069,303.167 143.456,303.625 143.869,303.94 144.036,303.938 144.327,303.728 144.449,303.581 144.473,303.545 144.918,302.93 145.246,302.68 146.139,301.529 146.445,301.289 146.775,301.012 146.943,301.171 147.065,301.281 147.574,301.14 147.771,301.509 147.969,301.94 148.094,302.123 148.207,302.346 148.321,302.606 148.645,303.088 149.043,303.493 149.539,304.308 149.653,304.438 149.792,304.661 149.932,304.838 150.187,305.086 150.79,305.803 151.161,306.096 151.63,306.312 152,306.637 152.157,306.848 152.435,307.221 152.856,307.64 153.713,308.432 153.812,308.576 154.246,309.01 154.828,309.212 155.165,309.397 155.388,309.474 155.626,309.5 156.972,309.5 157.045,309.5 157.191,309.5 157.331,309.5 157.504,309.5 157.738,309.5 157.895,309.5 157.978,309.5 158.312,309.769 158.799,310.057 159.327,310.073 159.939,310.427 160.565,310.5 161.01,310.5 161.094,310.5 161.389,310.5 161.627,310.5 161.842,310.5 162.179,310.5 162.644,310.341 162.8,310.25 163.229,310.008 163.756,309.856 164.48,309.526 164.771,309.492 165.084,309.413 167.835,309.173 168.264,308.986 168.461,308.977 168.694,308.999 169.028,309.14 169.295,309.212 169.584,309.284 170.959,309.25 177.097,309.084 178.616,309.082 179.109,309.442 179.462,309.748 179.884,309.796 180.19,309.76 180.427,309.724 180.924,309.652 181.282,309.58 181.449,309.724 181.548,309.796 181.589,309.832 181.648,309.865 181.706,309.899 182.581,309.961 182.775,309.917 183.027,309.902 183.085,309.907 183.144,309.914 183.202,309.925 183.225,309.921 183.267,309.938 183.366,309.974 183.505,310.021 183.564,310.031 183.647,310.048 183.705,310.051 183.789,310.06 183.872,310.064 183.914,310.064 183.987,310.068 184.045,310.055 184.118,310.054 184.191,310.05 184.264,310.042 184.333,310.046 184.402,310.051 184.54,310.06 184.643,310.054 185.301,310.021 185.993,310 186.479,309.998 186.93,309.859 187.036,309.817 187.51,309.829 188.662,309.618 189.629,309.645 189.751,309.586 189.985,309.5 190.197,309.5 190.365,309.5 190.481,309.5 190.638,309.5 190.812,309.505 191.608,309.882 192.364,310.005 193.102,310.296 193.86,310.494 194.659,310.5 195.047,310.5 195.381,310.5 195.517,310.5 195.634,310.5 195.808,310.5 196.005,310.558 196.122,310.603 196.222,310.624 196.378,310.66 196.514,310.696 196.65,310.732 196.772,310.75 196.929,310.805 197.598,311.012 198.197,311.412 199.044,311 201.214,311.168 201.904,311.277 202.907,311.028 204.757,311.432 206.081,311.5 208.422,311.5 208.756,311.5 209.681,311.468 210.528,311.427 211.062,311.265 211.198,311.292 211.32,311.31 211.476,311.346 211.671,311.4 211.845,311.454 212.136,311.516 212.235,311.538 212.351,311.572 212.548,311.657 214.685,311.32 215.276,311.212 216.036,311.084 216.235,311 216.528,310.921 216.962,310.394 217.24,310.279 217.517,310.215 217.576,310.185 217.634,310.159 217.675,310.118 217.699,310.139 217.733,310.082 217.768,310.024 217.791,310.002 217.826,309.944 217.861,309.885 217.884,309.861 217.907,309.836 217.966,309.723 218.083,309.592 218.13,309.541 218.366,309.194 218.671,308.798 218.729,308.637 218.907,308.206 219.063,307.722 219.385,308.101 220.428,309.618 220.625,309.708 221.771,309.683 221.84,309.637 221.864,309.627 221.898,309.603 221.956,309.556 222.04,309.48 222.098,309.427 222.554,309.156 222.953,309.522 223.131,309.792 223.331,310.08 223.429,310.278 223.476,310.314 223.511,310.386 223.553,310.476 223.587,310.548 223.66,310.674 223.702,310.728 223.725,310.71 223.767,310.764 224.24,310.548 224.24,310.548 224.584,310.512 225.173,310.836 225.453,311.075 225.907,311.295 226.221,311.476 226.748,311.156 227.033,311.031 227.597,311.077 228.336,311.31 229.181,311.435 229.466,311.347 229.678,311.246 229.963,311.102 230.215,311 230.466,311 230.612,311 230.999,311 231.602,311 231.845,311 231.918,311 232.126,311 232.73,310.933 233.479,310.946 233.691,311.034 233.991,311.231 234.188,311.373 234.48,311.346 234.814,311.235 236.761,311.42 237.025,311.363 238.598,311.5 239.726,311.505 239.991,311.594 240.229,311.769 240.508,311.88 240.788,311.696 241.529,311.438 242.231,311.5 242.774,311.389 242.949,311.394 243.149,311.406 243.405,311.46 243.672,311.496 243.85,311.497 243.995,311.483 244.255,311.451 244.538,311.465 244.961,311.631 245.228,311.58 245.511,311.526 245.656,311.472 246.073,311.92 246.31,311.884 246.38,311.884 246.99,311.786 247.447,311.533 248.38,311.726 250.732,311.83 253.075,312 253.554,312 254.331,312.398 256.088,312.178 265.236,312.468 265.868,312.5 268.169,312.5 269.247,312.5 271.052,312.5 273.612,312.757 281.761,312.71 282.247,312.465 282.459,312.387 282.528,312.36 282.805,312.262 283.033,312.248 283.2,312.279 283.381,312.312 283.479,312.327 283.635,312.328 285.033,311.216 286.053,310.262 286.402,309.875 286.679,309.588 286.892,309.373 286.998,309.26 287.21,309.023 287.417,308.678 287.591,308.39 287.819,308.082 288.295,307.452 288.754,306.66 288.962,306.3 289.352,305.75 289.741,305.406 290.485,304.65 290.61,304.522 290.861,304.198 291.112,303.64 291.512,302.978 291.612,302.779 291.956,302.089 292.1,301.856 292.171,301.802 292.307,301.532 292.365,301.406 292.435,301.352 292.909,300.654 292.979,300.546 293.157,300.114 293.394,299.682 293.472,299.538 293.785,299.124 294.258,298.534 294.617,297.972 294.64,297.947 295.018,297.344 295.374,296.858 295.802,296.079 296.133,295.4 296.503,294.984 296.857,294.606 297.189,294.12 297.586,293.842 298.072,293.59 298.624,293.698 299.007,293.896 299.359,294.114 299.979,294.389 300.134,294.436 300.343,294.531 300.643,294.738 300.87,294.929 301.15,295.211 301.554,295.794 301.721,296.082 301.805,296.226 302.183,296.856 302.791,297.794 303.966,299.312 304.303,299.736 304.443,299.913 304.665,300.098 305.048,300.163 305.366,300.104 305.855,300.05 306.373,299.85 306.789,299.454 307.267,299.408 307.711,299.236 308.277,298.575 309.242,298.06 309.798,297.948 309.84,297.988 310.329,298.235 310.465,298.314 310.512,298.365 310.825,298.549 311.019,298.605 311.562,298.832 312.26,299.092 312.861,299.132 314.301,299.5 314.96,299.825 315.309,299.956 315.758,299.928 316.343,300.021 316.678,300.234 316.813,300.342 317.213,300.558 317.702,300.498 317.968,300.408 318.322,300.436 318.415,300.436 318.572,300.274 318.953,300.274 319.164,300.364 319.401,300.43 319.541,300.493 319.641,300.507 319.719,300.515 319.818,300.502 319.917,300.498 320.279,300.572 320.476,300.714 321.054,301.423 321.959,302.863 322.988,304.646 323.184,304.898 323.322,305.042 323.468,305.15 323.614,305.241 323.698,305.274 323.796,305.3 325.088,305.582 325.829,305.712 328.813,305.474 329.052,305.438 329.524,305.63 329.776,305.702 330.649,306 331.699,306.436 333.236,307.238 334.09,307.587 335.002,307.753 335.421,307.738 335.923,307.82 336.305,307.785 336.615,307.711 336.901,307.634 337.142,307.589 337.384,307.561 338.557,307.327 339.75,306.954 340.141,307.097 340.309,307.081 340.615,307.026 340.793,307.024 341.083,307.144 341.418,307.251 341.563,307.291 341.73,307.35 341.847,307.378 341.905,307.396 341.963,307.416 342.062,307.451 342.312,307.363 342.418,307.33 343.095,307.386 343.352,307.267 343.519,307.423 343.841,307.5 344.007,307.5 344.287,307.5 344.567,307.5 346.429,306.675 346.569,306.558 346.694,306.437 346.793,306.337 347.442,305.648 348.009,305.111 348.445,304.466 349.07,304.041 349.638,303.74 350.009,303.3 350.263,303.156 350.38,303.084 350.607,303.012 350.85,303.03 350.956,303.048 351.06,303.048 351.272,303.07 351.481,303.062 351.55,303.055 351.623,303.039 351.726,303.03 351.84,303.012 352.026,302.993 352.223,302.922 352.281,302.886 352.323,302.868 352.357,302.868 352.392,302.868 353.716,301.992 354.527,301.13 354.574,301.094 354.696,300.986 355.262,300.482 355.542,300.536 355.642,300.454 355.688,300.413 355.747,300.367 355.817,300.303 356.198,299.993 356.366,299.88 357.135,299.304 357.986,298.992 358.1,298.963 358.225,298.91 358.365,298.828 359.519,298.998 360.088,299.349 360.935,299.58 362.068,299.936 362.34,300.124 364.69,300.579 365.33,300.334 366.592,300.568 366.845,300.381 367.933,300.787 368.107,300.766 368.429,300.392 368.575,300.126 368.678,299.932 368.782,299.738 368.885,299.543 368.969,299.479 369.124,299.357 369.291,299.329 370.362,298.536 371.502,297.545 371.753,297.561 371.92,297.359 372.106,297.056 372.302,296.726 373.641,294.693 373.892,294.341 374.071,293.925 374.485,293.186 375.003,292.776 375.283,293.003 375.593,293.149 375.707,293.181 376.813,292.806 377.093,292.651 377.849,292.573 378.004,292.589 378.239,292.224 379.299,290.296 379.554,289.828 380.586,287.919 383.066,283.113 383.535,281.772 383.604,281.588 383.744,281.31 383.817,281.229 383.923,281.079 383.992,280.85 384.061,280.608 384.134,280.458 384.24,280.173 384.354,279.949 384.5,279.557 384.646,279.123 384.771,278.841 384.794,278.889 385.027,277.974 385.184,277.516 385.418,277.156 385.606,276.868 385.964,276.481 386.541,275.505 386.897,275.038 387.037,274.452 387.387,273.141 387.523,272.604 387.984,271.219 388.347,270.403 388.738,269.66 389.087,269.264 389.535,268.796 389.881,268.418 390.212,268.4 390.485,268.382 391.342,268.008 392.067,267.934 392.478,268.005 393.225,267.839 393.834,267.947 393.875,267.932 394.698,267.922 395.103,267.988 395.729,267.483 396.355,267.596 396.981,268.136 397.189,268.316 399.98,269.526 400.622,269.847 400.695,269.849 401.224,270.701 401.933,271.538 404.77,273.329 405.598,272.968 406.011,272.58 406.597,273.156 409.433,275.421 411.902,275.447 412.861,275.486 413.742,275.342 414.22,275.01 415.362,275.442 415.468,275.482 416.31,275.659 416.59,275.716 416.704,275.663 419.179,275.401 419.644,275.363 419.702,275.4 420.119,275.429 420.925,275.251 421.841,275.382 422.278,275.26 423.426,275.095 423.566,275.134 425.448,274.946 426.535,274.814 427.028,274.182 427.357,273.845 427.732,273.474 428.67,272.508 429.288,271.489 429.892,270.402 430.714,268.901 431.125,268.269 431.323,267.928 431.809,267.141 432.381,266.49 432.93,266.102 433.629,265.714 435.094,264.49 435.735,264.111 436.088,263.726 436.269,263.479 436.683,262.884 436.902,262.617 437.212,262.293 437.421,262.092 437.494,262.038 437.567,261.916 437.692,261.754 438.046,261.448 441.638,259.496 444.318,258.694 444.71,258.428 444.904,258.518 445.098,258.608 445.465,258.517 446.098,258.19 446.976,257.76 447.723,257.532 447.845,257.558 448.234,257.734 448.7,258.038 450.244,257.324 451.366,257.094 451.673,256.974 452.263,257.112 452.929,256.768 453.54,256.57 453.64,256.5 453.97,256.808 454.16,256.9 454.797,257.242 455.291,257.281 456.094,257.127 456.594,256.973 457.371,257.297 458.283,256.256 458.672,256.392 458.936,256.832 459.181,256.44 459.981,255.98 460.868,255.984 460.946,255.846 461.12,255.726 461.692,256.851 462.793,257.279 463.224,257.606 463.725,257.91 463.783,257.822 464.284,258.16 464.506,258.683 464.966,259.428 465.401,259.494 465.54,259.63 465.948,259.747 466.283,259.725 466.695,259.937 466.873,260.044 467.293,261.046 467.659,260.808 467.776,260.88 467.854,260.574 467.896,260.376 467.974,260.358 468.997,259.873 469.143,259.238 469.212,258.93 469.454,257.818 469.513,257.632 469.571,257.459 469.649,257.255 469.719,257.153 469.79,257.05 469.86,256.947 469.93,256.845 470.009,256.837 470.678,257.443 471.256,257.704 471.69,257.694 471.806,257.691 471.885,257.622 472.622,255.996 472.705,255.856 472.819,255.669 473.451,254.766 473.486,254.722 474.231,253.96 474.337,253.851 474.379,253.803 474.437,253.739 474.496,253.674 474.574,253.593 474.674,253.492 475.055,253.15 475.177,253.096 475.345,253.042 475.825,252.888 475.97,252.922 476.237,252.991 476.359,253.025 476.476,253.188 476.676,253.332 476.844,253.512 477.088,253.7 477.288,253.625 477.71,253.55 478.454,254.072 479.269,254.531 480.028,255.48 480.864,256.478 481.566,256.829 482.148,257.048 482.537,256.961 482.945,256.892 483.18,257.002 483.413,257.02 483.781,256.606 483.996,256.3 484.326,256.12 484.657,256.264 484.813,256.3 484.837,256.372 484.92,256.3 485.118,256.56 485.356,256.848 485.988,257.635 486.163,257.823 486.302,257.89 486.438,258.084 486.718,258.48 487.217,259.572 487.317,259.806 487.495,260.22 487.773,260.808 487.988,261.176 488.221,261.466 488.453,261.841 488.668,262.164 488.842,262.364 489.081,262.459 489.278,262.622 489.528,262.729 489.766,262.932 489.964,263.199 490.353,263.498 490.689,263.75 490.954,263.837 491.316,263.912 491.669,264.056 492.203,264.229 492.483,264.432 492.737,264.72 492.821,264.792 493.018,265.008 493.297,265.296 493.701,265.722 494.523,266.766 494.761,267.054 495.298,267.666 495.578,267.991 495.816,268.291 495.941,268.404 496.294,268.682 496.532,268.725 496.699,268.726 496.866,268.726 497.021,268.708 497.138,268.768 497.312,268.876 497.412,268.948 497.491,269 497.627,269.027 497.783,269.075 498.115,269.199 498.157,269.202 499.3,268.989 500.109,269.05 500.29,269.113 500.389,269.2 501.085,270.003 501.461,270.101 501.753,270.25 501.988,270.334 502.301,270.324 502.596,270.362 502.793,270.426 503.084,270.598 503.282,270.738 503.38,270.82 503.653,271.099 503.867,271.414 504.198,272.354 504.477,273.43 504.808,273.973 505.158,274.096 505.663,274.939 505.741,275.148 506.014,275.93 506.17,276.252 506.295,276.411 506.56,276.613 506.756,276.791 506.902,276.942 507.081,277.149 507.366,277.692 507.714,278.409 508.284,279.646 508.398,279.763 508.642,280.194 508.715,280.252 509.12,281.029 509.384,281.923 509.746,282.52 510.166,283.05 510.709,284.553 511.087,285.644 511.268,286.057 511.523,286.532 511.876,287.101 512.247,287.905 512.601,288.892 512.873,289.543 512.972,289.749 513.146,290.078 513.321,290.4 513.457,290.652 513.579,290.868 513.701,291.084 513.795,291.228 513.865,291.336 514.029,291.69 514.429,292.51 514.552,292.692 514.835,293.014 515.575,293.599 515.858,293.852 516.118,294.194 516.37,294.68 516.492,294.806 516.846,295.174 517.204,295.336 517.539,295.541 517.753,295.732 517.964,295.971 518.254,296.204 518.41,296.394 518.55,296.589 518.856,297.019 519.26,297.275 519.483,297.457 519.721,297.693 519.93,297.936 520.109,298.062 520.355,298.219 520.597,298.36 520.984,298.613 521.414,298.839 521.714,298.952 521.959,298.983 522.462,299.13 522.708,299.204 522.781,299.21 522.99,299.228 523.162,299.253 523.337,299.35 523.527,299.173 523.762,299.135 523.995,299.414 524.268,300.043 524.482,300.581 524.737,301.279 524.992,301.822 525.691,302.956 525.943,303.615 526.068,303.568 526.572,304.806 526.712,305.103 526.992,305.72 527.333,306.476 527.73,307.358 528.113,308.416 528.238,308.807 528.279,308.942 528.314,309.045 528.337,309.08 528.361,309.115 528.408,309.186 528.508,309.214 528.63,309.264 528.677,309.33 528.747,309.428 528.77,309.474 528.794,309.522 528.817,309.568 528.852,309.692 528.925,309.985 529.318,311.525 529.7,312.854 529.969,313.795 530.537,315.71 531.551,319.485 531.875,320.829 532.605,323.848 532.678,324.019 532.896,324.514 533.003,324.738 533.109,324.909 533.643,325.263 534.748,326.55 535.325,326.676 535.577,327.279 535.907,327.52 536.001,327.52 536.168,327.448 536.313,327.52 536.491,327.726 536.648,328.024 536.784,328.312 536.89,328.583 537.03,328.94 537.217,329.454 537.502,330.016 539.351,330.947 539.636,330.745 539.888,330.598 540.677,330.5 540.919,330.5 541.065,330.5 541.278,330.501 541.881,330.623 543.061,330.987 543.843,330.97 544.625,330.889 547.157,330.72 547.867,330.719 549.007,330.991 550.069,330.754 551.136,330.781 552.701,331.051 553.383,331.09 554.026,331.018 554.948,331 555.798,331.147 556.156,331.099 556.474,330.86 557.117,330.541 557.369,330.568 557.833,330.546 557.939,330.529 558.582,330.332 558.722,330.273 559.152,330.094 559.292,330.138 559.617,330.276 559.829,330.384 560.076,330.5 561.07,330.5 562.038,330.5 562.747,330.529 563.245,330.295 563.781,330.046 564.1,330.08 565.777,330.001 566.554,330.334 566.912,330.483 567.594,330.491 568.622,330.17 568.801,330.08 569.047,330.046 569.332,330.19 569.405,330.226 569.618,330.334 570.009,330.5 570.758,330.5 570.932,330.5 571.144,330.5 571.284,330.5 571.463,330.5 571.642,330.5 572.901,329.041 574.114,329.754 574.466,329.7 574.93,329.606 575.732,329.515 575.984,329.5 576.766,329.5 577.051,329.5 577.197,329.5 577.449,329.5 577.767,329.5 577.946,329.453 578.226,329.245 579.372,328.745 580.087,328.428 580.903,328.014 581.357,328 581.928,328 582.252,328 582.431,328 582.741,327.936 583.616,327.572 584.459,327.5 587.148,327.216 589.173,327 589.651,327 590.015,327 591.117,326.996 591.376,326.955 591.814,326.958 593.24,326.8 593.653,326.926 593.872,326.98 594.618,326.804 596.052,326.5 597.234,326.399 598.976,325.921 599.204,325.961 599.304,325.996 600.481,325.928 600.703,326 601.359,326 601.937,326.045 603.971,325.133 604.085,325.06 604.377,325 604.669,325 605.093,325 605.826,324.7 606.54,324.411 607.475,324.02 607.857,324.06 608.203,324.096 608.586,324.164 609.563,324.438 610.055,324.334 610.544,324.252 611.097,324.065 611.941,323.676 612.201,323.55 614.106,322.662 615.35,322.788 615.779,322.915 615.925,322.805 616.3,322.772 616.961,322.445 617.077,322.267 617.101,322.227 617.142,322.174 617.226,322.065 617.351,321.89 617.429,321.758 617.508,321.686 617.578,321.632 617.672,321.56 618.025,321.308 618.216,321.121 619.063,320.411 619.3,320.363 619.958,320.03 621.935,318.968 623.111,318.103 624.357,317.214 624.774,316.998 626.262,316.224 626.539,316.08 626.782,315.971 627.033,315.911 629.751,315.654 630.321,315.587 630.606,315.507 630.833,315.482 632.811,315.382 633.08,315.197 633.485,315.022 634.685,315.048 635.399,314.563 636.372,314.262 636.644,314.295 637.775,313.77 639.438,312.534 639.867,312.336 640.238,312.026 640.986,311.36 641.219,311.144 641.532,310.856 642.019,310.406 642.39,310.095 642.623,309.993 642.798,309.97 643.031,309.94 643.264,309.508 643.497,309.076 643.637,308.824 643.818,308.5 644.027,308.226 644.125,308.143 644.224,308.075 644.34,308.021 644.578,307.828 644.678,307.759 644.757,307.686 644.835,307.551 644.935,307.375 645.035,307.204 645.135,307.038 645.584,306.344 645.895,306.051 645.964,306.036 646.005,306.022 646.04,306.016 647.152,304.002 647.278,303.76 647.414,303.541 647.55,303.325 648.094,302.906 648.444,302.241 649.557,300.32 649.812,299.986 649.979,299.601 650.444,298.363 650.713,297.796 650.747,297.715 650.922,297.304 651.164,296.724 651.579,295.767 651.894,294.983 652.251,294.024 652.603,293.2 653.484,292.696 655.34,290.885 656.188,290.065 656.305,289.947 656.405,289.93 656.601,289.442 657.359,288.752 657.457,288.595 657.597,288.354 657.655,288.305 659.048,285.083 659.509,283.841 660.604,282.523 660.779,282.539 661.074,282.44 661.464,282.03 661.522,282.012 661.564,281.958 661.633,281.778 661.702,281.598 662.255,280.222 662.877,279.05 663.293,278.158 663.434,277.853 663.58,277.502 663.693,277.226 663.792,276.966 663.892,276.716 663.97,276.527 664.064,276.334 664.181,276.094 664.533,275.377 664.77,274.938 664.911,274.614 665.098,274.182 665.14,274.074 665.164,274.02 665.222,273.858 665.321,273.588 665.39,273.48 665.496,273.264 665.602,273.02 665.636,272.947 665.743,272.675 665.777,272.603 665.819,272.481 665.888,272.336 665.923,272.264 665.946,272.311 665.988,272.284 666.035,272.378 666.093,272.395 666.229,272.466 666.307,272.519 666.349,272.481 666.391,272.442 666.464,272.317 666.537,272.191 666.578,272.147 666.648,271.978 666.682,271.893 666.724,271.846 666.782,271.833 666.882,271.911 667.018,271.997 667.859,273.034 667.938,273.124 668.021,273.16 668.063,273.178 668.086,273.214 668.128,273.232 668.201,273.232 668.358,273.412 669.199,273.877 670.077,275.194 670.387,274.542 670.697,273.992 670.796,273.848 670.971,273.578 671.399,272.805 671.672,272.23 671.862,271.812 672.135,270.865 672.44,269.757 672.654,269.017 672.868,268.507 673.281,267.642 673.786,266.873 673.926,266.938 675.282,265.005 675.418,264.791 675.612,264.584 675.769,264.442 675.969,264.075 676.213,263.558 676.358,263.238 676.593,262.41 676.761,262 676.855,261.661 676.991,261.623 677.304,261.3 677.675,260.529 678.574,258.63 679.527,257.284 680.033,256.57 680.112,256.433 680.212,256.308 680.282,256.2 680.361,256.164 680.431,256.056 680.509,255.876 680.58,255.768 680.68,255.552 680.738,255.408 680.854,255.12 680.913,254.939 680.996,254.674 681.276,253.721 681.401,253.286 681.964,251.915 682.245,251.347 682.527,250.651 682.834,249.923 683.146,249.246 683.269,248.972 683.347,248.864 683.515,248.443 683.729,247.884 683.869,247.452 684.083,246.948 684.534,245.712 684.946,244.974 685.281,243.864 685.751,242.044 686.062,241.348 686.392,240.398 686.528,239.988 687.11,238.638 687.638,236.717 687.812,236.166 688.051,235.122 688.226,234.528 688.324,234.167 688.449,233.546 688.604,232.654 689.018,230.262 689.404,228.336 689.518,227.832 689.553,227.652 689.666,227.148 689.847,226.636 690.004,226.495 690.227,226.616 690.366,226.655 690.533,226.57 690.968,226.103 691.177,226.127 691.26,226.171 691.385,226.188 691.542,226.272 691.756,226.416 691.991,225.885 692.206,225.257 692.403,224.827 692.744,224.369 693.096,224.05 693.305,223.868 693.479,223.724 693.999,223.379 694.345,223.143 694.622,222.801 695.491,220.912 695.733,220.786 695.871,220.677 696.044,220.542 696.356,220.304 696.636,220.218 696.936,220.191 697.519,219.968 698.169,219.275 698.347,219.115 698.42,219.055 698.546,219 698.671,219 698.796,219 698.932,219 699.049,218.982 699.171,218.892 699.249,218.838 699.372,218.748 699.63,218.55 701.324,217.406 701.736,217.076 701.877,217.076 702.321,216.966 702.628,216.948 703.005,216.93 703.312,216.749 703.499,216.62 703.766,216.438 703.911,216.332 704.324,216.224 705.062,215.924 705.297,215.772 705.569,215.7 706.277,215.639 708.786,214.356 709.117,214.142 709.957,213.755 710.27,213.476 710.736,213.384 711.493,212.913 712.533,212.639 712.863,212.555 713.313,212.354 713.759,211.976 714.167,211.578 714.402,211.347 714.524,211.248 714.715,211.118 714.906,210.977 715.234,210.855 715.876,210.708 716.04,210.582 716.37,210.498 716.794,210.375 717.38,210.24 718.624,210.24 719.633,210.303 719.893,210.328 720.2,210.457 720.484,210.576 720.684,210.444 720.974,210.372 721.032,210.264 721.454,210.012 722.254,209.428 723.522,208.642 723.745,208.714 724.08,208.966 725.499,208.905 725.811,208.716 725.999,208.731 726.75,208.65 727.691,208.426 728.208,208.204 728.56,208.071 728.701,208.017 728.983,207.712 729.006,207.685 730.35,206.521 730.657,206.24 730.848,206.116 730.989,205.9 731.556,205.673 731.886,205.81 731.957,205.806 732.074,205.752 732.097,205.736 732.308,205.586 734.538,204.018 734.585,204.018 734.632,204.036 735.176,204.024 735.199,204.042 735.223,204.06 735.391,204.083 735.68,204.173 736.45,203.35 737.012,202.377 737.401,201.796 737.754,201.726 738.034,201.456 738.243,201.412 738.356,201.298 738.553,201.219 739.08,200.334 739.494,199.578 739.529,199.452 739.922,198.972 740.061,199.065 740.103,199.067 740.3,198.865 740.538,198.566 741.089,198.166 741.283,198.026 741.596,197.839 741.79,197.847 742.083,197.712 742.251,197.655 742.462,197.619 742.607,197.505 742.701,197.344 742.869,197.106 743.121,197.011 743.277,197.062 743.59,196.826 743.87,196.933 744.183,197.335 744.277,197.236 744.422,197.236 744.635,196.864 744.776,196.716 744.917,196.671 745.117,196.43 745.311,196.03 745.505,195.738 745.728,195.389 745.983,195.162 746.304,194.863 746.6,194.682 746.797,194.44 747.258,193.748 747.611,193.422 747.903,193.055 748.154,192.944 748.3,192.855 748.472,192.648 749.778,190.952 750.395,189.836 750.569,189.512 750.882,188.936 750.999,188.72 751.251,188.252 752.303,185.71 753.824,181.783 754.743,179.054 755.37,177.382 755.506,176.978 755.729,176.3 755.807,176.051 755.854,175.966 755.924,175.858 755.983,175.84 756.334,175.102 756.501,174.757 756.728,174.308 756.874,174.019 756.988,173.774 757.023,173.721 757.197,173.409 757.303,173.197 757.407,173.036 757.579,172.683 758.86,170.181 759.414,169.272 759.76,168.732 760.003,168.408 760.106,168.246 760.521,167.647 760.694,167.46 760.736,167.361 760.948,167 762.009,165.544 762.051,165.472 763.218,164.613 763.43,164.492 763.676,164.376 763.849,164.419 763.918,164.437 764.058,164.548 764.37,164.448 764.439,164.232 764.924,162.864 765.349,161.982 765.523,161.784 765.663,161.64 766.127,161.298 766.197,161.19 766.588,160.85 766.796,160.566 766.9,160.391 767.211,159.921 767.454,159.581 767.731,159.215 767.904,159.017 768.042,158.858 768.565,158.214 769.231,157.328 769.961,156.248 770.479,155.281 771.089,154.268 771.948,152.743 772.129,152.462 772.296,152.19 772.432,152.066 772.555,152.048 772.655,152.012 772.772,152.061 772.94,151.85 773.127,151.732 773.539,151.745 773.586,151.714 773.665,151.744 773.852,151.609 773.931,151.496 774.009,151.392 774.088,151.294 774.146,151.231 774.286,151.045 774.411,150.851 774.484,150.724 774.557,150.593 774.798,150.167 774.833,150.106 774.868,150.045 774.937,149.923 775.02,149.831 775.166,149.4 775.283,149.271 775.383,149.214 775.519,148.94 775.641,148.779 775.805,148.698 775.962,148.445 776.062,148.315 776.219,148.076 776.587,147.333 776.84,146.812 777.054,146.66 777.287,146.588 777.36,146.444 777.517,146.354 777.864,146.03 778.272,144.824 779.475,141.454 779.499,141.44 779.848,140.88 779.907,140.79 779.948,140.7 780.021,140.52 780.094,140.322 780.129,140.222 780.315,139.707 780.461,139.284 780.586,138.946 780.743,138.536 781.384,135.832 781.662,135.038 782.257,133.482 782.639,132.067 782.899,131.167 782.993,130.905 783.129,130.556 783.308,130.095 784.492,128.13 785.114,126.647 785.736,125.379 786.014,124.862 786.791,123.984 787.317,123.748 787.359,123.856 788.624,122.107 789.215,120.6 789.389,119.856 790.625,113.674 791.899,107.994 792.483,107.364 793.099,107.091 793.358,106.816 796.294,102.841 797.267,102.539 797.855,102.076 798.135,101.968 798.169,101.95 798.48,101.788 798.659,101.62 798.758,101.494 798.799,101.44 798.966,101.224 799.112,101.044 799.529,100.672 799.915,100.48 800.374,100.195 800.617,99.812 800.763,99.352 800.804,99.27 800.846,99.18 800.904,99.16 800.963,99.125 801.061,98.942 801.334,98.569 801.418,98.701 801.49,98.552 801.604,98.501 801.987,97.457 802.267,97.016 802.519,96.492 802.798,95.691 802.822,95.727 803.086,96.3 803.366,97.607 803.659,98.584 803.915,98.849 804.06,98.6 804.205,98.274 804.672,97.657 804.672,97.657 805.139,98.274 805.283,98.6 805.428,98.849 805.685,98.584 805.978,97.607 806.257,96.3 806.521,95.727 806.545,95.691 806.825,96.492 807.076,97.016 807.357,97.457 807.739,98.501 807.853,98.552 807.926,98.701 808.009,98.569 808.282,98.942 808.381,99.125 808.439,99.16 808.497,99.18 808.539,99.27 808.581,99.352 808.727,99.812 808.969,100.195 809.428,100.48 809.814,100.672 810.069,100.9 810.168,101.026 810.362,101.26 810.54,101.314 810.74,101.778 810.862,102.287 810.985,102.823 811.13,103.496 811.344,104.484 811.581,105.24 811.795,105.877 811.989,106.15 812.203,106.71 812.274,107.02 812.75,106.525 812.932,106.519 813.057,106.668 813.203,107.01 813.382,107.431 813.561,107.788 813.735,108.246 813.943,108.739 814.22,109.252 814.497,109.949 814.843,111.054 815.051,111.396 815.157,111.684 815.264,111.972 815.636,113.556 816.067,115.094 816.336,116.476 816.409,116.763 816.481,117.043 816.694,117.651 816.979,118.525 817.256,119.024 817.676,119.942 818.057,120.912 818.195,121.323 818.301,121.514 818.415,121.605 818.498,121.606 818.696,121.456 818.931,121.525 819.224,121.964 819.524,122.186 819.802,122.338 820.258,122.549 820.602,122.126 820.747,121.858 820.847,121.716 821.153,120.978 821.176,120.922 821.317,120.582 821.505,120.285 821.705,121.152 822.018,121.841 822.377,121.864 822.637,121.947 822.851,122.058 823.086,122.482 823.509,123.125 824.111,124.409 824.286,124.621 824.909,124.12 825.083,124.308 825.356,124.764 825.537,124.926 825.719,124.816 826.391,126.016 826.642,126.084 826.781,125.759 826.828,125.496 827.01,125.343 827.166,124.983 827.334,125.173 827.405,125.162 827.463,125.363 827.674,125.325 827.842,125.115 828.01,125.444 828.197,125.596 828.398,126.021 828.654,126.35 828.811,126.494 829.433,126.781 829.511,126.824 829.779,126.745 830.035,126.813 830.058,126.808 830.389,127.087 830.68,127.623 830.704,127.629 831.072,128.228 831.311,128.406 831.447,128.303 831.794,128.183 831.949,128.423 832.136,128.746 832.332,128.987 832.551,129.363 832.76,129.859 833.036,130.712 833.174,131.144 833.28,131.396 833.532,131.936 833.759,132.401 833.885,132.786 834.001,133.056 834.1,133.363 834.178,133.519 834.346,133.681 834.44,133.675 834.77,133.804 835.101,134.012 835.279,134.527 835.357,134.739 835.532,135.285 835.648,135.544 835.672,135.503 836.223,137.029 836.572,138.291 837.158,139.552 837.529,139.844 838.1,141.167 838.429,141.036 838.507,141.125 838.695,142.082 838.917,143.027 839.132,143.76 839.697,147.286 840.299,150.516 840.532,151.057 840.602,151.611 840.72,152.293 840.911,153.084 842.182,155.771 843.41,163.233 843.931,164.958 844.098,166.034 844.41,168.482 844.815,171.084 845.488,176.369 845.779,179.091 845.893,180.117 846.039,181.065 846.419,183.636 846.817,186.7 847.135,189.036 847.239,189.708 849.019,202.075 849.645,205.355 850.271,208.939 850.731,212.213 850.898,213.301 851.511,216.964 852.738,223.494 853.38,226.076 853.994,228.818 854.119,229.279 854.612,231.028 854.908,232.076 855.242,233.322 856.466,237.012 857.105,239.104 858.134,241.814 861.463,250.296 862.261,252.186 863,254.099 863.391,255.03 863.82,256.159 864.093,256.846 864.331,257.407 864.488,257.837 865.03,258.916 865.518,259.639 865.852,260.281 866.131,260.825 866.286,261.051 866.505,261.3 866.645,261.414 866.749,261.472 867.234,262.068 867.372,262.212 867.476,262.32 867.58,262.428 867.614,262.464 867.656,262.554 867.697,262.644 867.989,263.323 868.261,264.023 868.472,264.456 868.59,264.636 868.735,264.888 869.228,265.834 869.564,266.662 869.709,267.008 869.854,267.26 869.971,267.44 870.605,268.502 872.131,271.628 872.488,272.163 872.546,272.26 873.337,273.916 873.617,274.42 874.341,275.68 875.135,276.876 877.127,279.684 878.92,281.791 880.035,283.148 880.313,283.544 881.079,284.66 882.904,287.072 883.171,287.354 883.501,287.76 883.692,288.048 883.763,288.156 884.093,288.66 884.447,289.2 884.658,289.512 884.822,289.638 884.822,289.638 884.869,289.674 885.106,289.854 885.274,289.98 885.442,290.145 885.62,290.334 885.82,290.568 886.092,290.865 886.365,291.089 886.678,291.424 886.814,291.555 887.109,291.937 887.193,292.019 887.292,292.125 887.726,292.408 888.421,293.164 888.939,293.818 889.148,293.997 889.273,294.033 889.44,294.114 889.58,294.195 890.178,294.898 890.958,295.397 891.341,295.88 891.713,296.459 891.9,296.683 892.159,296.894 892.411,296.997 892.67,297.155 893.359,297.901 895.693,299.877 896.342,300.452 899.689,303.144 899.908,303.363 901.44,304.364 901.692,304.68 903.329,306.14 903.515,306.353 903.734,306.592 903.889,306.683 904.158,306.877 904.366,307.062 904.909,307.59 905.427,308.058 907.565,310.008 908.98,311.281 909.235,311.425 909.86,311.75 910.096,311.912 910.385,312.12 910.553,312.228 910.698,312.312 912.067,313.281 913.477,314.351 914.012,314.827 914.325,314.984 914.67,315.346 914.948,315.697 915.326,316.129 915.948,316.647 916.148,316.804 916.773,317.312 917.717,318.456 917.985,318.863 918.184,319.146 918.521,319.456 918.776,319.564 919.067,319.654 920.892,320.276 921.203,320.268 921.476,320.326 921.709,320.428 921.903,320.529 922.025,320.592 922.203,320.654 922.548,320.752 922.815,320.745 922.956,320.781 923.169,320.814 923.24,320.844 923.362,320.88 923.456,320.923 923.592,320.921 923.709,320.897 923.767,320.881 923.809,320.856 923.867,320.835 923.909,320.807 924.048,320.7 924.462,320.406 925.094,320.1 926.213,319.712 926.472,319.714 926.669,319.676 927.196,319.216 929.288,319.55 929.92,319.783 931.743,319.349 932.012,319.435 932.085,319.491 932.38,320.016 932.487,320.144 932.661,320.28 933.017,319.894 934.117,319.382 934.595,319.549 934.752,319.63 935.23,319.567 935.475,319.716 937.707,320.587 937.915,320.593 938.088,320.563 938.295,320.527 938.474,320.485 938.661,320.284 938.869,319.983 939.384,319.332 939.49,319.265 939.532,319.256 939.566,319.235 939.601,319.224 939.643,319.202 939.712,319.193 939.837,319.163 939.92,319.163 940.019,319.182 940.102,319.217 940.687,319.293 940.883,319.219 941.038,319.207 941.193,319.228 941.262,319.25 941.332,319.272 941.4,319.294 941.507,319.317 941.58,319.325 941.663,319.313 941.788,319.281 942.021,319.21 942.755,320.662 943.148,321.495 943.594,321.377 944.041,321.118 944.347,320.43 944.425,320.325 944.658,320.019 944.798,319.818 944.979,319.53 945.105,319.368 945.437,319.291 945.769,319.356 945.915,319.356 946.306,319.183 946.573,318.581 946.959,317.847 947.838,316.46 948.19,316.031 948.304,315.796 948.418,315.622 948.573,315.454 948.74,315.333 948.896,315.225 949.093,315.517 949.366,315.966 949.444,315.875 949.695,315.168 950.044,315.007 950.685,315.674 951.016,316.42 951.851,316.799 952.9,316.935 952.941,316.925 953,316.889 953.083,316.861 953.529,316.577 953.943,316.582 954.808,315.02 955.254,314.876 955.393,314.804 955.608,314.588 956.153,314.021 956.31,313.724 956.641,313.033 957.496,312.014 957.671,311.894 957.793,311.75 957.929,311.588 957.952,311.552 957.999,311.48 958.07,311.372 958.328,311 958.641,310.985 959.018,310.91 959.418,310.568 960.725,309.846 960.985,309.837 961.228,309.955 961.505,309.904 962.691,309.481 964.259,309.796 965.133,309.904 965.297,309.778 965.718,309.622 966.355,309.232 966.541,309.124 966.681,309.088 966.807,308.972 966.932,308.793 967.072,308.5 967.286,307.887 967.426,307.437 967.872,306.888 968.087,307.051 968.187,307.077 968.326,307.212 968.452,307.337 968.565,307.46 968.672,307.631 968.745,307.743 968.883,307.949 969.124,308.108 969.231,308.162 969.439,308.27 970.136,308.704 970.904,309.048 971.182,309.191 971.216,309.216 971.32,309.289 971.354,309.313 971.389,309.338 971.431,309.406 971.465,309.43 971.507,309.495 971.786,309.94 971.912,309.994 972.01,310.066 972.11,310.192 972.251,310.408 972.373,310.57 972.537,310.82 972.682,311.019 972.818,311.219 972.935,311.399 972.993,311.493 973.226,311.622 973.284,311.719 973.407,312.092 973.548,312.524 973.648,312.776 973.747,313.028 973.864,313.244 973.963,313.388 974.102,313.582 974.269,313.743 974.311,313.78 974.508,313.873 974.549,313.903 974.675,313.933 974.883,313.959 975.163,314.312 975.69,315.359 976.094,316.012 976.261,316.402 976.428,316.752 976.602,316.786 976.927,316.978 977.186,317.176 977.259,317.222 977.317,317.344 977.443,317.5 977.559,317.724 977.606,317.825 977.684,317.943 977.778,318.123 977.923,318.402 978.017,318.58 978.096,318.718 978.13,318.722 978.154,318.765 978.195,318.811 978.264,318.817 978.437,318.832 979.137,319.272 979.418,319.488 979.592,319.592 979.698,319.682 979.804,319.772 979.877,319.844 980.032,320.024 980.218,320.222 980.375,320.393 980.498,320.427 980.643,320.458 980.666,320.461 980.973,320.5 981.079,320.5 983.098,320.406 983.79,320.237 984.24,320.112 984.897,320.038 985.943,320.366 986.703,320.971 986.875,320.959 988.409,321.722 988.863,321.552 989.155,321.48 989.698,321.382 990.581,321.87 991.278,321.373 991.958,323.897 992.359,324.933 992.689,325.566 993.934,325.942 994.286,325.836 994.404,325.762 994.462,325.745 994.54,325.716 995.197,325.626 995.458,325.673 995.645,325.785 995.81,325.884 996.091,326 996.259,326 996.615,326 996.793,326 996.883,326 997.692,326 999.516,326.104 1001.646,326.474 1003.775,326.429 1007.971,326.769 1008.551,326.822 1011.355,326.231 1012.631,326 1015.688,326.185 1018.177,326.598 1019.395,326.075 1021.252,325.559 1022.139,325.5 1023.043,325.5 1025.949,326.13 1029.288,326 1030.707,326.302 1033.576,326.745 1040.031,326.408 1042.066,326.077 1043.978,326 1044.924,326 1044.975,326 1045.532,326 1045.932,326 1046.321,326 1046.653,326 1046.905,326 1047.182,326 1047.394,326 1047.609,326 1047.944,326 1049.044,326 1050.858,326 1052.797,326 1053.004,326 1053.284,326 1054.028,326 1054.101,326 1054.174,326 1054.232,326 1054.332,326 1054.454,326 1054.548,326 1054.704,326 1054.803,326 1055.281,326 1055.6,326 1055.846,326 1055.939,326 1056.084,326 1056.108,326 1056.166,326.002 1056.225,326.015 1056.248,326.016 1056.29,326.031 1056.313,326.033 1056.355,326.049 1056.397,326.067 1056.536,326.151 1056.723,326.323 1056.969,326.479 1057.211,326.579 1057.591,326.602 1058.25,326.548 1059.252,326.528 1059.352,326.591 1059.596,326.733 1059.741,326.808 1059.84,326.818 1059.94,326.84 1060.096,326.786 1060.305,326.696 1060.585,326.57 1060.619,326.552 1060.661,326.534 1060.73,326.5 1060.772,326.493 1060.806,326.488 1060.875,326.476 1060.944,326.465 1061.017,326.448 1061.09,326.428 1061.163,326.406 1061.205,326.39 1061.263,326.364 1061.334,326.337 1061.392,326.305 1061.439,326.286 1061.48,326.261 1061.504,326.25 1061.539,326.235 1061.562,326.224 1061.668,326.163 1062.164,326.096 1062.304,326.15 1062.346,326.168 1062.38,326.186 1062.422,326.204 1062.464,326.222 1062.505,326.256 1062.578,326.31 1062.613,326.328 1062.647,326.346 1062.682,326.364 1065.204,326.5 1067.278,326.89 1068.108,326.808 1068.246,326.788 1068.287,326.755 1068.322,326.75 1068.357,326.743 1068.398,326.709 1068.471,326.666 1068.513,326.627 1068.555,326.589 1068.628,326.538 1068.669,326.497 1068.693,326.463 1068.735,326.418 1068.776,326.373 1068.957,326.139 1069.064,326.134 1069.133,326.106 1069.167,326.091 1069.755,325.899 1069.963,325.908 1070.328,325.99 1070.411,325.99 1070.537,325.95 1070.805,325.7 1071.033,325.58 1071.214,325.786 1071.952,326.055 1072.495,326.137 1073.08,326.121 1073.303,326.012 1073.762,326.322 1074.43,326.545 1074.803,326.636 1075.055,326.69 1075.229,326.708 1075.332,326.708 1075.511,326.621 1075.625,326.45 1075.75,326.399 1076.019,326.298 1076.343,326.187 1076.655,326.211 1076.795,326.253 1076.935,326.3 1077.276,326.276 1077.877,326.25 1078.307,326.38 1078.791,326.5 1079.103,326.5 1079.277,326.5 1079.463,326.528 1079.898,326.508 1080.469,326.49 1081.489,326.412 1082.889,326.602 1083.046,326.638 1086.19,326.646 1088.247,326.777 1088.387,326.805 1088.429,326.812 1088.47,326.82 1088.505,326.813 1088.539,326.806 1088.574,326.802 1088.608,326.802 1088.643,326.802 1088.678,326.802 1088.75,326.784 1089.072,326.658 1089.31,326.568 1089.424,326.532 1089.56,326.622 1089.793,326.765 1090.2,326.857 1090.317,326.795 1090.457,326.698 1090.864,326.353 1091.221,326.148 1091.343,326.112 1091.711,326 1092.042,325.853 1092.314,325.779 1092.508,325.768 1092.908,325.84 1093.086,325.876 1094.123,325.999 1094.268,325.988 1094.69,325.815 1094.968,325.633 1095.168,325.528 1095.362,325.543 1095.556,325.587 1095.693,325.603 1095.771,325.61 1095.849,325.612 1095.986,325.601 1096.142,325.865 1096.42,326.411 1096.901,327 1098.404,327 1100.021,327 1100.265,326.534 1100.476,326.073 1100.594,325.817 1100.672,325.714 1100.695,325.665 1100.789,325.622 1101.187,326.081 1101.519,326.324 1101.705,326.401 1101.812,326.406 1101.957,326.387 1102.061,326.425 1102.13,326.45 1102.199,326.475 1102.268,326.5 1102.374,326.514 1103.088,326.596 1103.793,326.731 1105.56,326.512 1106.184,326.607 1107.448,326.418 1107.675,326.414 1108.98,326.313 1110.221,326.596 1111.826,326.537 1113.659,326.522 1117.842,326.79 1117.883,326.799 1117.942,326.8 1117.989,326.778 1118.059,326.745 1118.337,326.602 1118.768,326.605 1120.38,326.301 1120.494,326.264 1120.812,326.211 1121.021,326.18 1124.577,326.519 1128.479,326.626 1128.653,326.644 1128.862,326.626 1129.07,326.644 1130.071,326.344 1130.351,326.164 1130.49,326.108 1130.732,326.126 1131.013,326.162 1131.298,326.216 1131.575,326.234 1131.92,326.234 1132.099,326.198 1132.273,326.18 1132.586,326 1132.726,326 1132.922,326 1133.353,326 1133.508,326 1133.675,326.02 1133.914,326.209 1134.182,326.344 1135.547,326.659 1137.271,326.543 1138.276,326.587 1138.473,326.625 1138.571,326.621 1138.726,326.623 1138.926,326.529 1139.141,326.408 1139.266,326.354 1139.35,326.318 1139.879,326.15 1140.51,326.248 1140.594,326.247 1140.734,326.221 1140.873,326.18 1141.088,326.068 1141.394,326 1142.241,326.019 1143.076,325.933 1144.533,326.118 1145.195,326.19 1149.495,326.15 1150.456,326 1150.653,326 1150.759,326 1150.793,326 1150.862,326 1150.931,326 1150.966,326 1151.106,326 1151.406,326 1151.505,326 1151.563,326 1151.605,326 1151.675,326 1151.839,326 1153.816,326 1154.731,326 1155.811,326 1155.956,326 1156.543,326 1156.684,325.982 1156.784,325.957 1156.92,325.938 1157.172,325.941 1157.479,325.95 1157.67,325.978 1158.022,325.998 1158.867,325.938 1159.762,325.902 1160.305,326.118 1160.668,326.262 1160.781,326.316 1160.895,326.37 1160.999,326.424 1161.275,326.568 1161.448,326.658 1161.554,326.712 1161.637,326.748 1161.794,326.796 1162.008,326.772 1162.125,326.74 1162.36,326.62 1162.574,326.518 1162.697,326.536 1162.861,326.536 1162.983,326.518 1163.062,326.5 1163.132,326.5 1163.202,326.5 1163.302,326.534 1163.691,326.603 1163.769,326.613 1163.891,326.642 1165.048,326.554 1165.36,326.59 1165.582,326.626 1165.783,326.662 1166.018,326.716 1166.218,326.752 1166.409,326.77 1166.599,326.788 1166.744,326.794 1166.935,326.717 1167.123,326.625 1167.311,326.531 1167.578,326.437 1167.89,326.31 1168.182,326.342 1168.473,326.432 1168.842,326.502 1169.042,326.397 1169.242,326.293 1169.477,326.214 1169.634,326.188 1169.809,326.183 1169.983,326.154 1170.501,326.008 1170.716,326.08 1170.774,326.062 1170.931,326.008 1171.448,326.154 1171.623,326.183 1171.798,326.188 1171.955,326.214 1172.19,326.293 1172.39,326.397 1172.59,326.502 1172.959,326.432 1173.25,326.342 1173.541,326.31 1173.854,326.437 1174.121,326.531 1174.309,326.625 1174.497,326.717 1174.687,326.794 1174.832,326.788 1175.023,326.77 1175.214,326.752 1175.414,326.716 1175.649,326.662 1175.849,326.626 1176.072,326.59 1176.384,326.554 1177.54,326.642 1177.663,326.613 1177.741,326.603 1178.129,326.534 1178.229,326.5 1178.3,326.5 1178.37,326.5 1178.448,326.518 1178.571,326.536 1178.735,326.536 1178.857,326.518 1179.072,326.62 1179.307,326.74 1179.423,326.772 1179.638,326.796 1179.794,326.748 1179.878,326.712 1179.984,326.658 1180.157,326.568 1180.433,326.424 1180.537,326.37 1180.65,326.316 1180.764,326.262 1181.127,326.118 1181.67,325.902 1182.564,325.938 1183.41,325.998 1183.762,325.978 1183.953,325.95 1184.259,325.941 1184.512,325.938 1184.69,325.97 1184.768,325.99 1184.886,326 1185.473,326 1185.618,326 1186.697,326 1187.613,326 1189.589,326 1189.754,326 1189.824,326 1189.866,326 1189.924,326 1190.023,326 1190.323,326 1190.463,326 1190.497,326 1190.566,326 1190.636,326 1190.67,326 1190.776,326 1190.973,326 1191.934,326.15 1196.234,326.19 1196.896,326.118 1198.353,325.933 1199.188,326.019 1200.035,326 1200.341,326.068 1200.555,326.18 1200.695,326.221 1200.835,326.247 1200.918,326.248 1201.549,326.15 1202.092,326.336 1202.402,326.444 1202.743,326.501 1203.012,326.5 1203.344,326.5 1203.523,326.5 1203.709,326.5 1204.058,326.32 1204.301,326.168 1204.508,326.033 1204.856,325.858 1205.063,325.892 1205.132,325.904 1205.205,325.925 1205.247,325.938 1205.331,325.962 1205.564,326 1205.877,326 1206.099,326 1206.245,326 1206.358,326 1206.472,326 1206.555,326 1206.807,326 1207.059,326 1207.199,326 1207.55,326 1207.723,326 1208.106,326 1208.318,326 1208.402,326 1208.5,326 1208.579,326 1208.695,326 1208.876,326 1209.224,326 1209.561,326 1209.686,326 1209.938,326 1210.078,326 1210.321,326 1210.461,326.007 1210.567,326.029 1210.67,326.05 1210.744,326.058 1210.9,326.038 1211.025,326.017 1211.109,326 1211.182,326 1211.255,326 1211.296,326 1211.331,326 1211.378,326.012 1211.476,326.062 1211.555,326.115 1211.71,326.203 1211.906,326.315 1212.052,326.372 1212.337,326.451 1212.545,326.488 1212.922,326.644 1213.097,326.626 1216.999,326.519 1220.555,326.18 1220.764,326.211 1221.082,326.264 1221.196,326.301 1222.808,326.605 1223.238,326.602 1223.517,326.745 1223.587,326.778 1223.634,326.8 1223.692,326.799 1223.734,326.79 1227.917,326.522 1229.749,326.537 1231.354,326.596 1232.595,326.313 1233.9,326.414 1234.128,326.418 1235.392,326.607 1236.016,326.512 1237.783,326.731 1238.487,326.596 1239.201,326.514 1239.307,326.5 1239.377,326.475 1239.446,326.45 1239.515,326.425 1239.618,326.387 1239.764,326.406 1239.87,326.401 1240.057,326.324 1240.389,326.081 1240.459,326.029 1240.501,326.049 1240.543,326.067 1240.584,326.082 1240.663,325.987 1240.71,325.947 1240.888,325.767 1240.964,325.735 1241.709,326 1243.186,326 1243.964,325.748 1244.042,325.69 1244.182,325.672 1244.409,325.6 1244.591,325.509 1244.863,325.456 1245.176,325.332 1245.7,324.801 1246.341,323.988 1246.593,323.921 1247.257,323.326 1248.557,321.19 1249.1,320.064 1249.489,318.993 1249.826,318.339 1250.122,318.326 1250.414,318.817 1251.236,317.035 1251.433,317.71 1252.059,317.482 1252.88,317.911 1253.215,317.183 1253.298,317.019 1254.091,317.793 1254.717,317.413 1256.374,318.432 1256.513,318.5 1256.778,318.5 1258.123,318.377 1258.415,318.221 1258.747,318.026 1258.885,318.026 1259.47,317.909 1260.85,316.819 1261.268,316.262 1262.494,314.85 1262.912,314.449 1263.579,313.875 1264.014,313.426 1264.492,312.97 1264.598,312.88 1264.744,312.736 1264.951,312.628 1265.158,312.52 1265.365,312.309 1265.646,311.824 1265.864,311.629 1266.368,311.483 1266.846,311.46 1267.097,311.208 1269.005,309.788 1270.655,308.449 1273.238,306.531 1273.636,306.328 1273.815,306.238 1274.163,306.058 1274.806,305.115 1277.038,304.023 1277.469,303.939 1277.793,303.875 1278.125,303.873 1278.304,303.877 1278.639,303.894 1278.983,303.713 1279.627,304.062 1280.017,304.289 1281.838,305.618 1282.726,305.293 1282.948,305.773 1283.176,305.676 1283.443,306.334 1283.651,306.47 1284.721,305.148 1284.794,305.029 1286.132,304.5 1287.357,305.291 1287.57,305.652 1288.146,305.805 1288.219,305.771 1288.254,305.748 1288.323,305.704 1288.357,305.682 1288.426,305.638 1288.461,305.615 1288.495,305.594 1288.53,305.572 1288.633,305.505 1288.747,305.504 1288.92,305.502 1289.023,305.556 1289.159,305.772 1289.276,305.952 1289.443,306.168 1290.253,306.64 1290.862,306.928 1293.181,309.642 1294.432,310.853 1294.67,311.238 1294.784,311.4 1295.207,311.994 1295.426,311.979 1295.84,312.322 1295.965,312.573 1296.12,312.924 1296.287,313.43 1296.427,313.755 1296.789,314.42 1297.52,314.836 1297.714,315.209 1298.143,316.291 1298.592,317.317 1298.859,317.71 1299.101,318.05 1299.335,318.243 1299.809,319.264 1299.878,319.192 1300.139,320.02 1300.399,321.024 1300.893,323.317 1301.153,323.534 1301.813,323.876 1301.957,323.894 1302.075,323.894 1302.456,324.122 1302.556,324.284 1302.713,324.536 1302.813,324.697 1303.091,325.005 1303.513,325.09 1303.677,325.123 1303.813,325.24 1303.883,325.358 1303.954,325.476 1304.21,325.962 1304.469,325.893 1304.802,325.899 1304.874,325.907 1304.988,325.945 1305.313,326.007 1305.702,326.818 1307.282,326.3 1307.404,326.322 1307.503,326.317 1307.616,326.39 1307.722,326.442 1307.919,326.509 1308.339,326.57 1309.591,326.863 1310.347,326.995 1310.833,327 1311.815,327 1312.074,327 1312.261,327 1313.966,327 1314.091,327 1315.414,327 1316.716,327.409 1317.997,327.294 1318.818,327.034 1319.393,327 1319.857,327 1320.095,327 1321.073,326.832 1321.364,326.956 1322.605,327 1323.828,325.828 1323.954,325.465 1324.099,325.895 1324.244,325.938 1324.313,325.917 1324.397,326.071 1324.48,326.219 1324.753,326.807 1326.109,325.998 1326.422,325.741 1326.883,325.827 1327.355,326.298 1327.454,326.558 1328.122,326.751 1328.581,326.413 1328.604,326.481 1329.189,326.577 1330.233,326.273 1330.64,326.637 1331.379,326.394 1331.728,326.209 1333.125,326.248 1334.721,326.068 1336.066,325.76 1336.263,325.654 1336.692,325.632 1337.712,325.983 1339.126,326.367 1341.451,326.36 1342.43,326.242 1342.767,326.346 1343.08,326.52 1344.072,326.132 1344.987,326.684 1345.376,326.201 1345.598,325.905 1345.676,325.805 1346.021,325.67 1346.538,325.594 1347.154,325.743 1348.025,325.763 1348.756,325.474 1349.48,325.708 1349.909,325.748 1350.142,325.726 1350.433,325.673 1350.783,325.496 1351.133,325.657 1351.446,325.764 1351.797,325.863 1352.053,325.901 1352.095,325.956 1352.273,325.947 1352.573,325.992 1353.107,325.769 1353.207,326.02 1353.607,326.869 1353.685,326.983 1353.945,327.679 1354.081,327.81 1355.646,327.736 1357.199,327.508 1357.923,328.482 1360.044,327.735 1361.023,327.983 1361.434,327.697 1361.725,327.726 1361.998,328.147 1362.056,328.303 1362.503,328.642 1363.17,326.914 1363.248,326.846 1363.29,326.781 1363.332,326.724 1363.355,326.823 1363.413,326.884 1363.492,327.071 1363.538,327.286 1363.638,327.622 1363.717,327.877 1363.775,328.038 1363.932,328.558 1364.03,328.545 1364.054,328.585 1364.112,328.507 1364.154,328.393 1364.195,328.281 1364.219,328.325 1364.261,328.216 1364.302,328.111 1364.326,328.158 1364.384,328.103 1364.426,328.005 1364.449,328.055 1364.491,327.961 1364.574,327.781 1364.807,327.684 1364.982,327.714 1365.351,328.341 1365.589,328.618 1365.728,328.644 1365.752,328.723 1365.786,328.597 1365.828,328.505 1365.863,328.382 1365.904,328.296 1365.946,328.214 1366.004,328.178 1366.046,328.106 1366.088,328.038 1366.146,328.021 1366.204,328.012 1366.263,328.01 1366.362,328.124 1366.433,328.284 1366.48,328.391 1366.538,328.419 1366.596,328.455 1367.76,328.149 1369.468,328.196 1370.108,328.311 1372.185,328.637 1373.297,328.772 1373.668,328.685 1374.081,328.841 1374.637,329.128 1375.015,329.043 1375.193,328.987 1375.407,328.842 1375.663,328.685 1375.858,328.533 1375.936,328.519 1376.136,328.568 1376.449,328.665 1376.916,328.796 1378.159,329.322 1378.359,329.214 1380.649,329.742 1381.881,329.413 1382.747,329.144 1384.334,329.604 1385.246,329.341 1386.584,329.39 1386.829,329.401 1389.205,329.76 1389.627,329.676 1389.827,329.532 1391.751,330.14 1392.086,330.032 1392.464,329.844 1393.091,329.752 1393.598,329.839 1394.788,329.928 1396.111,330.244 1396.211,330.208 1396.735,329.92 1397.494,329.524 1398.602,329.856 1399.127,329.7 1399.225,329.695 1399.574,329.537 1399.885,329.567 1400.107,329.234 1400.352,329.168 1401.861,327.697 1402.283,327.319 1404.143,327.296 1404.868,326.413 1405.105,326.089 1406.81,326.202 1408.813,328.58 1410.324,328.267 1411.664,329.29 1412.743,329.323 1413.236,329.724 1413.404,329.731 1413.781,329.74 1413.972,329.704 1414.041,329.812 1414.147,329.974 1414.253,330.136 1414.295,330.19 1414.336,330.244 1414.378,330.298 1414.425,330.298 1414.472,330.298 1414.753,330.298 1415.2,330.244 1417.231,329.866 1417.865,329.812 1418.499,329.758 1419.182,329.65 1419.346,329.65 1420.895,330.142 1421.253,330.371 1421.932,330.388 1422.267,330.454 1422.481,330.538 1422.681,330.566 1422.817,330.524 1423.246,330.308 1423.391,330.272 1423.703,330.2 1424.003,330.092 1424.452,330.337 1424.762,330.543 1424.809,330.593 1424.964,330.53 1425.086,330.482 1425.165,330.416 1425.96,329.897 1426.406,330.668 1426.621,330.792 1427.032,330.478 1427.559,330.161 1428.233,330.647 1428.824,330.774 1429.523,330.808 1429.885,330.664 1431.011,330.462 1431.873,330.397 1432.165,330.252 1432.429,330.078 1432.569,330.094 1433.709,330.205 1434.755,330.382 1434.993,330.487 1435.543,330.632 1436.25,330.128 1436.975,329.875 1437.596,329.78 1438.45,330.154 1438.954,329.978 1439.458,330.009 1440.043,329.972 1440.634,329.594 1441.104,329.543 1441.183,329.526 1441.539,329.594 1441.952,329.83 1442.351,329.815 1442.651,329.55 1442.829,329.316 1442.97,329.424 1443.063,329.496 1443.186,329.39 1443.399,329.332 1444.056,329.035 1444.333,328.903 1444.478,328.936 1444.623,328.985 1445.012,329.163 1445.447,329.327 1445.851,329.529 1446.82,329.745 1447.056,329.628 1447.446,329.426 1447.69,329.408 1448.505,329.68 1449.344,329.548 1449.49,329.229 1449.603,328.938 1449.812,328.456 1449.987,328.24 1450.155,328.168 1450.363,327.736 1450.488,327.52 1451.032,326.676 1451.61,326.55 1452.715,325.263 1453.249,324.909 1453.355,324.738 1453.461,324.514 1453.68,324.019 1454.482,320.829 1454.807,319.485 1455.821,315.71 1456.389,313.795 1456.658,312.854 1457.04,311.525 1457.433,309.985 1457.506,309.692 1457.54,309.568 1457.564,309.522 1457.587,309.474 1457.611,309.428 1457.681,309.33 1457.728,309.264 1457.85,309.214 1457.95,309.186 1457.997,309.115 1458.02,309.08 1458.044,309.045 1458.078,308.942 1458.12,308.807 1458.245,308.416 1458.627,307.358 1459.025,306.476 1459.366,305.72 1459.646,305.103 1459.785,304.806 1460.29,303.568 1460.415,303.615 1460.667,302.956 1461.366,301.822 1461.62,301.279 1461.875,300.581 1462.09,300.043 1462.362,299.414 1462.595,299.135 1462.83,299.173 1463.021,299.35 1463.195,299.253 1463.368,299.228 1463.576,299.21 1463.649,299.204 1463.896,299.13 1464.399,298.983 1464.713,298.943 1465.111,298.815 1465.463,298.493 1465.788,298.223 1466,298.07 1466.219,297.892 1466.446,297.676 1466.697,297.423 1466.919,297.227 1467.324,296.88 1467.658,296.448 1467.814,296.241 1467.989,296.043 1468.067,295.976 1468.381,295.568 1468.773,294.941 1469.356,294.126 1470.128,292.291 1470.592,290.86 1471.161,288.901 1471.452,288.248 1472.553,284.952 1472.762,284.306 1473.026,283.748 1473.668,282.32 1474.357,280.233 1474.687,279.538 1474.766,279.376 1475.368,278.248 1475.64,278.042 1476.106,276.995 1476.591,275.43 1476.903,274.584 1477.234,274.055 1477.507,273.568 1478.405,271.951 1478.932,271.483 1480.3,270.452 1480.56,270.416 1480.705,270.38 1481.009,270.38 1481.27,270.416 1481.408,270.56 1481.481,270.622 1483.471,272.296 1483.901,272.944 1484.041,272.432 1484.395,271.486 1484.609,271.156 1484.882,270.896 1484.98,270.816 1485.155,270.688 1485.468,270.526 1485.665,270.466 1485.929,270.362 1486.225,270.324 1486.458,270.324 1486.768,270.25 1486.935,270.363 1488.5,270.077 1488.904,269.943 1489.101,269.969 1489.69,270.086 1489.959,270.164 1490.072,270.142 1490.3,270.091 1490.559,269.839 1490.924,269.521 1491.224,269.348 1491.661,269.132 1491.88,269.072 1492.406,270.335 1492.551,270.471 1492.715,270.399 1493.05,270.226 1493.31,270.08 1493.357,270.057 1493.415,270.036 1493.474,270.011 1493.557,269.979 1493.63,269.957 1495.094,270.509 1495.379,270.613 1495.547,270.583 1495.669,270.558 1495.805,270.528 1497.478,270.586 1497.828,270.676 1497.985,270.73 1498.166,270.81 1498.291,270.878 1498.47,270.958 1499.001,271.216 1499.074,271.18 1499.426,271.36 1500.02,271.5 1500.263,271.5 1500.539,271.5 1501.264,271.5 1501.437,271.5 1502.232,271.182 1502.406,271.092 1502.683,271 1502.862,271 1502.976,271 1503.048,271 1503.107,271.004 1503.165,271.021 1503.301,271.053 1503.614,271.087 1504.048,271.024 1504.604,270.955 1505.482,270.705 1506.026,270.494 1506.788,270.108 1507.394,270.03 1507.898,269.734 1508.228,269.518 1508.796,269.96 1509.179,270.194 1509.532,270.348 1509.969,270.47 1510.148,270.493 1510.375,270.558 1510.542,270.702 1510.78,270.918 1511.053,271.17 1511.305,271.404 1511.829,271.862 1512.528,272.37 1513.098,272.438 1513.707,272.407 1514.181,272.642 1514.708,271.642 1515.195,271.602 1515.428,271.674 1515.723,271.756 1516.003,271.936 1516.378,272.285 1516.699,272.831 1516.741,272.91 1517.165,273.709 1517.765,274.711 1518.083,275.058 1518.224,275.188 1518.362,275.368 1519.044,276.365 1519.15,276.476 1519.323,276.792 1520.365,278.532 1520.434,278.69 1520.572,279.007 1520.746,279.303 1520.965,279.496 1521.72,280.051 1521.947,280.111 1522.166,280.344 1523.537,281.244 1523.998,280.099 1524.225,279.962 1524.434,280.212 1524.608,280.224 1524.714,280.204 1524.854,280.216 1524.994,280.238 1525.173,280.234 1525.449,280.371 1526.004,280.29 1526.629,280.113 1527.184,279.65 1527.566,279.401 1528.209,279.311 1530.143,279.048 1530.362,279.13 1530.574,279.094 1530.893,279.099 1531.386,279.13 1531.598,279.219 1531.95,279.301 1532.461,279.298 1533.163,279.734 1533.247,279.911 1534.406,281.231 1534.738,281.308 1535.018,281.574 1535.411,281.875 1537.593,287.064 1537.707,287.388 1537.847,287.683 1538.021,287.888 1538.612,287.79 1538.791,287.824 1539.328,287.972 1539.607,288.711 1540.223,290.884 1540.478,291.761 1540.808,292.627 1541.448,293.814 1541.615,294.091 1541.65,294.128 1542.096,294.736 1542.388,294.666 1543.227,295.123 1544.233,295.548 1544.691,295.746 1545.79,296.235 1546.695,296.931 1546.821,296.978 1547.053,296.88 1548.113,296.962 1548.579,296.962 1548.892,297.105 1549.377,297.423 1550.269,296.948 1550.579,296.945 1550.987,297.212 1552.383,296.959 1552.849,297.336 1553.373,297.332 1553.547,297.336 1553.798,297.652 1554.688,298.348 1555.537,299.019 1556.538,299.766 1556.87,300.137 1557.148,300.096 1557.226,300.06 1557.343,300.132 1557.441,300.204 1557.465,300.204 1557.512,300.204 1557.553,300.24 1557.612,300.276 1557.635,300.276 1557.677,300.312 1557.746,300.384 1557.78,300.42 1557.815,300.456 1557.888,300.528 1557.991,300.636 1558.026,300.672 1558.06,300.708 1558.102,300.744 1558.375,300.608 1558.68,300.861 1559.24,301.32 1559.818,301.86 1559.973,302.002 1560.552,302.272 1561.285,302.452 1561.874,302.506 1561.988,302.524 1562.351,302.6 1562.782,302.78 1563.787,302.688 1563.984,302.599 1564.067,302.569 1564.181,302.536 1564.46,302.608 1564.554,302.608 1564.732,302.716 1564.811,302.77 1564.927,302.878 1565.083,303.04 1565.223,303.202 1565.359,303.31 1565.537,303.418 1565.971,303.627 1566.427,303.554 1567.625,303.404 1570.746,304.092 1571.801,304.488 1573.122,304.228 1573.534,304.318 1575.067,304.5 1575.302,304.5 1575.558,304.5 1577.012,304.5 1577.18,304.502 1579.19,305.072 1579.778,305.5 1580,305.496" stroke="#000000" stroke-linecap="round" stroke-linejoin="round" stroke-width="2" />
		</g>
	</g>
	<defs >
		<clipPath id="profile:drawing_boundary">
			<rect height="300" width="1500" x="80" y="80" />
		</clipPath>
	</defs>
	<text class="draggable" fill="#000000" font-family="Verdana" font-size="13.2" id="profile:axis_title_x" text-anchor="middle" x="830" y="457">Distance</text>
	<text class="draggable" fill="#000000" font-family="Verdana" font-size="13.2" id="profile:axis_title_y" text-anchor="middle" transform="rotate(-90,15.2,230)" x="15.2" y="230">Elevation</text>
	<g class="draggable" id="title" x="830" y="20.625">
		<text fill="#000000" font-family="Verdana" font-size="16.5" font-weight="bold" id="title text 1" text-anchor="middle" x="830" y="20.625">Zurich Marathon 2021 Virtual Run - Elevation Profile</text>
	</g>
	<g id="profile:logo" x="1657" y="230">
		<rect fill="#FFFFFF" height="160" opacity="0.6" width="11" x="1648" y="150" />
		<a href="https://www.gpsvisualizer.com/" target="_blank">
			<text fill="#000000" font-family="Verdana" font-size="9" text-anchor="middle" transform="translate(1657,230) rotate(-90) translate(-1657,-230)" x="1657" y="230">created by GPSVisualizer.com</text>
		</a>
	</g>
	<rect fill="none" height="459" id="image_border" opacity="0" stroke="#000000" stroke-width="1" width="1659" x="0.5" y="0.5" />
	<style type="text/css">.draggable { cursor:move; }</style>
	<script type="text/javascript"><![CDATA[
		function makeDraggable(evt) {
			var svg = evt.target; svg.addEventListener('mousedown', startDrag); svg.addEventListener('mousemove', drag); svg.addEventListener('mouseup', endDrag); svg.addEventListener('mouseleave', endDrag); svg.addEventListener('touchstart', startDrag); svg.addEventListener('touchmove', drag); svg.addEventListener('touchend', endDrag); svg.addEventListener('touchleave', endDrag); svg.addEventListener('touchcancel', endDrag); var selectedElement, offset, transform, bbox, minX, maxX, minY, maxY;
			function getMousePosition(evt) { var CTM = svg.getScreenCTM(); if(evt.touches) { evt = evt.touches[0]; } return { x:(evt.clientX-CTM.e)/CTM.a, y:(evt.clientY-CTM.f)/CTM.d }; }
			function startDrag(evt) { if(evt.target.classList && evt.target.classList.contains('draggable')) { selectedElement = evt.target; initialiseDragging(evt); } else if(evt.target.parentNode) { if(evt.target.parentNode.classList && evt.target.parentNode.classList.contains('draggable')) { selectedElement = evt.target.parentNode; initialiseDragging(evt); } else if(evt.target.parentNode.parentNode && evt.target.parentNode.parentNode.classList && evt.target.parentNode.parentNode.classList.contains('draggable')) { selectedElement = evt.target.parentNode.parentNode; initialiseDragging(evt); } } }
			function initialiseDragging(evt) { offset = getMousePosition(evt); var transforms = selectedElement.transform.baseVal; if(transforms.length === 0 || transforms.getItem(0).type !== SVGTransform.SVG_TRANSFORM_TRANSLATE) { var translate = svg.createSVGTransform(); translate.setTranslate(0,0); selectedElement.transform.baseVal.insertItemBefore(translate,0); } transform = transforms.getItem(0); offset.x -= transform.matrix.e; offset.y -= transform.matrix.f; }
			function drag(evt) { if(selectedElement) { evt.preventDefault(); var coord = getMousePosition(evt); var dx = coord.x-offset.x; var dy = coord.y-offset.y; transform.setTranslate(dx, dy); } }
			function endDrag(evt) { selectedElement = false; }
		}
]]></script>
	<!-- 		debugging stuff:
		key = 20210429115922-73018
		min. ffffff = 
		max. ffffff = 
		colorize min = 
		colorize max = 
		colorize range = 0
		upper left (data) = 47.43718,8.47044
		lower right (data) = 47.34603,8.55786
		upper left (drawing) = 47.43718,8.47044
		lower right (drawing) = 47.34603,8.55786
		center = 47.391605,8.51415
		width,height (pixels) = 1660,460
		width,height (degrees) = 0.0874199999999998,0.091149999999999
		scale = 62527, resolution = 22.06 m/pixel
		input form = https://www.gpsvisualizer.com/profile_input?format=svg&profile_y_max=900&profile_y_min=300&trk_colorize=custom&trk_colorize_custom=%23FFFFFF&trk_elevation_gain=1&trk_elevation_threshold=5&units=metric&width=1500&add_elevation=auto
 -->
	<!-- 
	Generated using the Perl SVG Module V2.59
	by Ronan Oger
	Info: http://www.roitsystems.com/
 -->
</svg>